<svg width="163" height="150" viewBox="0 0 163 150" fill="none" xmlns="http://www.w3.org/2000/svg">
<circle cx="75" cy="75" r="75" fill="#C9E9F8"/>
<path d="M96.4032 48.5545C96.2823 48.2996 96.2232 48.0177 96.2312 47.7336C96.2239 47.4494 96.283 47.1677 96.4032 46.9126C96.5222 47.1682 96.5812 47.4496 96.5753 47.7336C96.5799 48.0174 96.521 48.2985 96.4032 48.5545Z" fill="#263238"/>
<path d="M94.9784 49.1925C94.7173 49.1004 94.4812 48.9443 94.2901 48.7373C94.0926 48.5378 93.9439 48.2919 93.8564 48.0203C94.1109 48.1194 94.3419 48.2745 94.5337 48.4749C94.7255 48.6753 94.8737 48.9164 94.9681 49.1818L94.9784 49.1925Z" fill="#263238"/>
<path d="M94.4073 50.6912C94.1601 50.8094 93.8912 50.8706 93.6192 50.8706C93.3471 50.8706 93.0783 50.8094 92.8311 50.6912C93.0758 50.5655 93.3464 50.5039 93.6192 50.5119C93.8918 50.5058 94.1619 50.5672 94.4073 50.6912Z" fill="#263238"/>
<path d="M95.0199 52.1716C94.9241 52.4374 94.7747 52.6786 94.5817 52.879C94.3888 53.0793 94.1568 53.2342 93.9014 53.3332C93.9971 53.0674 94.1465 52.8262 94.3395 52.6258C94.5325 52.4254 94.7645 52.2706 95.0199 52.1716Z" fill="#263238"/>
<path d="M96.458 52.7668C96.5763 53.0238 96.6342 53.3065 96.6266 53.5914C96.6339 53.8755 96.5748 54.1572 96.4546 54.4123C96.3375 54.1561 96.2786 53.8752 96.2825 53.5914C96.2778 53.306 96.3379 53.0234 96.458 52.7668Z" fill="#263238"/>
<path d="M97.8691 52.1323C98.1236 52.2315 98.3546 52.3866 98.5464 52.587C98.7382 52.7874 98.8863 53.0285 98.9808 53.2939C98.7263 53.1947 98.4953 53.0396 98.3035 52.8392C98.1117 52.6388 97.9636 52.3977 97.8691 52.1323Z" fill="#263238"/>
<path d="M98.4512 50.6337C98.6984 50.5155 98.9672 50.4543 99.2393 50.4543C99.5113 50.4543 99.7801 50.5155 100.027 50.6337C99.7826 50.7594 99.5121 50.821 99.2393 50.813C98.9668 50.8174 98.6971 50.756 98.4512 50.6337Z" fill="#263238"/>
<path d="M97.8379 49.1459C97.9273 48.8744 98.0771 48.6287 98.275 48.4289C98.4661 48.2219 98.7021 48.0658 98.9633 47.9736C98.8675 48.2394 98.7181 48.4806 98.5251 48.681C98.3322 48.8813 98.1002 49.0362 97.8448 49.1352L97.8379 49.1459Z" fill="#263238"/>
<path d="M54.3435 83.8232C54.2239 83.5666 54.1649 83.2839 54.1714 82.9987C54.1675 82.7149 54.2264 82.434 54.3435 82.1777C54.4641 82.434 54.5232 82.717 54.5155 83.0023C54.5194 83.2861 54.4605 83.5669 54.3435 83.8232Z" fill="#263238"/>
<path d="M52.9227 84.4579C52.6674 84.3596 52.4355 84.2049 52.243 84.0044C52.0505 83.8039 51.902 83.5623 51.8076 83.2964C52.0621 83.3961 52.2933 83.5514 52.4856 83.7517C52.6779 83.952 52.8269 84.1928 52.9227 84.4579Z" fill="#263238"/>
<path d="M52.3477 85.9562C52.1024 86.0802 51.8322 86.1416 51.5596 86.1355C51.2871 86.1399 51.0174 86.0785 50.7715 85.9562C51.0164 85.8309 51.2869 85.7694 51.5596 85.777C51.8321 85.7722 52.1019 85.8336 52.3477 85.9562Z" fill="#263238"/>
<path d="M52.9598 87.437C52.864 87.7021 52.715 87.9429 52.5227 88.1432C52.3304 88.3435 52.0993 88.4988 51.8447 88.5985C51.9405 88.3334 52.0895 88.0926 52.2818 87.8923C52.4741 87.692 52.7053 87.5368 52.9598 87.437Z" fill="#263238"/>
<path d="M54.3984 88.0356C54.5161 88.2917 54.5751 88.5727 54.5705 88.8566C54.5753 89.1409 54.5151 89.4223 54.3949 89.6775C54.2771 89.4217 54.2193 89.1403 54.2263 88.8566C54.2184 88.5724 54.2774 88.2905 54.3984 88.0356Z" fill="#263238"/>
<path d="M55.8203 87.3975C56.0748 87.4972 56.306 87.6524 56.4983 87.8528C56.6906 88.0531 56.8396 88.2938 56.9354 88.559C56.6742 88.4669 56.4382 88.3107 56.2471 88.1037C56.0542 87.9059 55.9081 87.6642 55.8203 87.3975Z" fill="#263238"/>
<path d="M56.3916 85.899C56.6387 85.7767 56.9096 85.7153 57.1832 85.7198C57.4561 85.7147 57.7262 85.7774 57.9713 85.9026C57.7246 86.0259 57.4532 86.0861 57.1797 86.0783C56.907 86.0858 56.6365 86.0243 56.3916 85.899Z" fill="#263238"/>
<path d="M55.7822 84.4184C55.8766 84.1524 56.0251 83.9109 56.2176 83.7104C56.4101 83.5099 56.642 83.3552 56.8973 83.2568C56.8088 83.5289 56.6589 83.7748 56.4602 83.9738C56.2704 84.1748 56.0383 84.327 55.7822 84.4184Z" fill="#263238"/>
<path d="M90.2981 110.556C90.2426 110.501 90.1986 110.435 90.169 110.362C90.1393 110.288 90.1247 110.209 90.1261 110.13C90.1248 110.05 90.1394 109.972 90.1691 109.899C90.1987 109.826 90.2427 109.761 90.2981 109.707C90.3523 109.762 90.3954 109.827 90.4249 109.9C90.4545 109.973 90.4699 110.051 90.4702 110.13C90.4699 110.209 90.4546 110.288 90.4251 110.361C90.3955 110.434 90.3524 110.5 90.2981 110.556Z" fill="#263238"/>
<path d="M89.5543 110.883C89.4784 110.884 89.403 110.87 89.3326 110.84C89.2622 110.811 89.1983 110.767 89.1447 110.71C89.0914 110.654 89.0493 110.588 89.021 110.514C88.9926 110.441 88.9785 110.363 88.9795 110.284C89.0555 110.282 89.1309 110.296 89.2014 110.326C89.2718 110.355 89.3357 110.4 89.3891 110.456C89.4429 110.512 89.4853 110.578 89.5137 110.652C89.5421 110.725 89.5559 110.803 89.5543 110.883Z" fill="#263238"/>
<path d="M89.2653 111.657C89.2127 111.714 89.1496 111.759 89.0798 111.79C89.0101 111.821 88.935 111.837 88.8592 111.837C88.7834 111.837 88.7084 111.821 88.6386 111.79C88.5689 111.759 88.5058 111.714 88.4531 111.657C88.505 111.599 88.568 111.554 88.6379 111.523C88.7079 111.492 88.7833 111.477 88.8592 111.478C88.935 111.478 89.01 111.494 89.0798 111.524C89.1496 111.555 89.2127 111.6 89.2653 111.657Z" fill="#263238"/>
<path d="M89.575 112.421C89.576 112.499 89.5619 112.578 89.5335 112.651C89.5052 112.724 89.4631 112.791 89.4098 112.847C89.3567 112.904 89.2929 112.949 89.2225 112.979C89.152 113.009 89.0764 113.024 89.0002 113.023C88.998 112.944 89.0115 112.865 89.04 112.791C89.0684 112.718 89.1111 112.652 89.1654 112.596C89.2185 112.539 89.2823 112.494 89.3527 112.464C89.4232 112.434 89.4988 112.419 89.575 112.421Z" fill="#263238"/>
<path d="M90.3186 112.729C90.3729 112.785 90.416 112.851 90.4455 112.924C90.4751 112.997 90.4904 113.076 90.4907 113.155C90.4903 113.234 90.4749 113.312 90.4454 113.385C90.4159 113.458 90.3728 113.523 90.3186 113.578C90.2635 113.524 90.2197 113.458 90.1901 113.386C90.1605 113.313 90.1457 113.234 90.1465 113.155C90.146 113.076 90.161 112.997 90.1906 112.924C90.2201 112.85 90.2637 112.784 90.3186 112.729Z" fill="#263238"/>
<path d="M91.0518 112.403C91.1277 112.401 91.2032 112.415 91.2736 112.445C91.344 112.474 91.4079 112.518 91.4613 112.575C91.516 112.63 91.5589 112.696 91.5874 112.77C91.6158 112.843 91.6292 112.922 91.6265 113.001C91.5507 113.002 91.4755 112.988 91.4052 112.958C91.3348 112.929 91.2709 112.885 91.217 112.829C91.1638 112.773 91.1218 112.706 91.0935 112.633C91.0651 112.56 91.051 112.481 91.0518 112.403Z" fill="#263238"/>
<path d="M91.3477 111.628C91.4002 111.571 91.4633 111.526 91.5331 111.495C91.6029 111.464 91.678 111.449 91.7538 111.449C91.7877 111.414 91.8306 111.391 91.8772 111.382C91.9238 111.372 91.972 111.378 92.0157 111.397C92.0594 111.416 92.0968 111.448 92.123 111.489C92.1493 111.53 92.1633 111.579 92.1633 111.628C92.1633 111.678 92.1493 111.726 92.123 111.767C92.0968 111.808 92.0594 111.84 92.0157 111.859C91.972 111.879 91.9238 111.884 91.8772 111.875C91.8306 111.865 91.7877 111.842 91.7538 111.807C91.601 111.806 91.455 111.741 91.3477 111.628Z" fill="#263238"/>
<path d="M91.0309 110.865C90.8981 110.864 90.7696 110.816 90.6672 110.727C90.5649 110.639 90.4951 110.517 90.4696 110.381C90.4442 110.245 90.4647 110.104 90.5276 109.982C90.5905 109.861 90.6921 109.765 90.8149 109.713C90.9377 109.66 91.0743 109.653 91.2013 109.694C91.3284 109.734 91.4381 109.819 91.5118 109.934C91.5855 110.049 91.6187 110.187 91.6057 110.325C91.5927 110.463 91.5343 110.591 91.4404 110.689C91.3873 110.746 91.3236 110.791 91.2531 110.821C91.1827 110.851 91.1071 110.866 91.0309 110.865Z" fill="#263238"/>
<path d="M154.416 32.8351L56.6523 46.7307L65.1121 111.314L162.876 97.4179L154.416 32.8351Z" fill="#31538C"/>
<path d="M154.656 32.8325C151.208 37.3228 147.67 41.6588 144.252 46.0874C140.834 50.5159 137.178 54.8056 133.625 59.1262C130.073 63.4467 126.194 68.1068 122.449 72.5508L122.107 72.9828C118.807 76.9022 115.488 80.8267 112.149 84.7563L111.659 85.3118L111.049 84.9106C106.828 82.056 102.637 79.2013 98.4309 76.3158C98.2758 76.2292 98.1268 76.1312 97.9851 76.0226C93.229 72.7668 88.473 69.4955 83.7319 66.1625C78.9907 62.8295 74.6657 59.8051 70.1475 56.5801C65.6293 53.3552 61.126 50.0839 56.6523 46.7046C61.3043 49.4821 65.9117 52.4293 70.5191 55.2994C75.1265 58.1695 79.7487 61.163 84.3561 64.1565C89.4688 67.4587 94.5815 70.8174 99.6942 74.2327C103.529 76.7633 107.358 79.3351 111.183 81.948C114.155 78.4144 117.232 74.8808 120.279 71.3935C124.336 66.7643 128.379 62.0426 132.466 57.4134C136.122 53.2986 139.798 49.1838 143.494 45.0689C147.21 40.9181 150.881 36.7982 154.656 32.8325Z" fill="#2DAAE2"/>
<path d="M100.28 75.1953L100.175 75.3215C99.7233 75.8577 99.257 76.4096 98.7907 76.8985C96.5946 79.4533 94.2782 81.9293 91.9919 84.358C89.1641 87.3386 86.2461 90.2246 83.2979 93.0949C80.3498 95.9651 77.3716 98.7249 74.273 101.453C71.1745 104.182 68.106 106.878 64.8721 109.338C67.5194 106.184 70.3171 103.125 73.1449 100.16C75.9727 97.1952 78.9058 94.2934 81.8389 91.4232C84.772 88.5529 87.8555 85.7616 90.8638 83.0333C93.3005 80.8569 95.7824 78.6964 98.3846 76.6462C98.9712 76.1573 99.5728 75.7 100.175 75.2268L100.28 75.1953Z" fill="#2DAAE2"/>
<path d="M162.243 95.4284C158.571 93.8715 154.972 92.3145 151.432 90.4929C147.892 88.6713 144.367 86.8809 140.871 85.0282C137.375 83.1754 133.923 81.167 130.589 79.1119C127.813 77.4616 125.051 75.7489 122.363 73.9274L120.63 72.7597L120.513 72.6663H120.66L122.701 73.5381C125.639 74.7681 128.474 76.1382 131.324 77.5394C134.893 79.2831 138.389 81.1359 141.87 83.0198C145.351 84.9036 148.818 86.8653 152.152 88.9205C155.486 90.9756 159.012 93.1241 162.243 95.4284Z" fill="#2DAAE2"/>
<path d="M29.788 16.7384L7.08105 19.9658L9.04597 34.9661L31.7529 31.7387L29.788 16.7384Z" fill="#A6DBF2"/>
<path d="M109.718 119.743L105.579 137.953L133.145 144.751L137.283 126.541L109.718 119.743Z" fill="#9AF2F2"/>
<path d="M137.277 126.532C135.901 127.367 134.524 128.149 133.168 128.966C131.812 129.784 130.415 130.544 129.038 131.318C127.6 132.128 126.161 132.928 124.723 133.716L124.588 133.799L120.761 135.9L120.575 135.993L120.452 135.821C119.607 134.607 118.769 133.388 117.936 132.164C117.905 132.125 117.874 132.082 117.846 132.039C116.896 130.655 115.95 129.271 115.014 127.869C114.119 126.539 113.228 125.191 112.34 123.843C111.452 122.495 110.574 121.133 109.714 119.749C110.681 120.993 111.617 122.277 112.567 123.542C113.517 124.808 114.453 126.098 115.382 127.396C116.417 128.83 117.449 130.278 118.48 131.741L120.792 135.021C121.945 134.401 123.108 133.774 124.265 133.168C125.809 132.348 127.356 131.535 128.907 130.73C130.284 130.013 131.673 129.304 133.075 128.604C134.49 127.901 135.88 127.192 137.277 126.532Z" fill="white"/>
<path d="M118.427 132.153L118.386 132.175L117.866 132.451C117.037 132.888 116.197 133.297 115.347 133.684C114.314 134.164 113.261 134.612 112.208 135.053C111.155 135.494 110.095 135.903 109.021 136.294C107.948 136.684 106.874 137.061 105.772 137.369C106.784 136.81 107.813 136.315 108.849 135.835C109.885 135.354 110.938 134.906 111.988 134.465C113.038 134.024 114.104 133.612 115.178 133.221C116.032 132.906 116.899 132.605 117.77 132.34L118.379 132.157L118.427 132.153Z" fill="white"/>
<path d="M133.205 144.145C132.359 143.349 131.553 142.51 130.769 141.661C129.984 140.811 129.213 139.94 128.452 139.061C127.692 138.183 126.952 137.287 126.236 136.373C125.648 135.631 125.069 134.878 124.515 134.1C124.394 133.935 124.279 133.77 124.171 133.605C124.163 133.591 124.154 133.578 124.144 133.566C124.155 133.578 124.167 133.589 124.181 133.598L124.646 134.05C125.314 134.695 125.95 135.369 126.584 136.046C127.375 136.896 128.136 137.771 128.896 138.649C129.657 139.527 130.393 140.424 131.113 141.338C131.832 142.252 132.544 143.173 133.205 144.145Z" fill="white"/>
</svg>
