<svg width="95" height="40" viewBox="0 0 95 40" fill="none" xmlns="http://www.w3.org/2000/svg">
<path d="M16.2792 11.4632C16.8821 11.4632 17.4489 11.5838 17.9794 11.8249C18.51 12.042 18.9683 12.3555 19.3541 12.7655C19.7641 13.1514 20.1018 13.6096 20.3671 14.1402C20.6324 14.6467 20.8253 15.1893 20.9459 15.7681C21.0665 16.4193 21.1147 17.0825 21.0906 17.7578C21.0906 18.4331 21.0906 19.0963 21.0906 19.7475C21.0906 20.3986 21.0785 21.0498 21.0544 21.701C21.0544 22.3521 21.0303 23.0033 20.9821 23.6545C20.9338 24.2092 20.8735 24.788 20.8012 25.3909C20.7288 25.9697 20.5962 26.5485 20.4032 27.1274C20.2344 27.7062 19.9932 28.2488 19.6797 28.7553C19.3903 29.2376 18.9924 29.6476 18.4859 29.9853C18.0518 30.2747 17.5815 30.4676 17.0751 30.5641C16.5927 30.6364 16.1104 30.6244 15.628 30.5279C15.1698 30.4073 14.7357 30.2023 14.3257 29.9129C13.9398 29.5994 13.6383 29.2015 13.4213 28.7191C13.0595 29.2738 12.5892 29.72 12.0104 30.0576C11.4316 30.3711 10.8287 30.552 10.2016 30.6003C9.57457 30.6244 8.97164 30.5038 8.39282 30.2385C7.83812 29.9491 7.39195 29.4909 7.05431 28.8638C6.78902 29.4909 6.42726 30.0576 5.96903 30.5641C5.53492 31.0464 4.96816 31.3479 4.26876 31.4685C3.64171 31.5891 3.05084 31.5288 2.49614 31.2876C1.94144 31.0705 1.48321 30.7088 1.12145 30.2023C0.783812 29.6959 0.530581 29.1291 0.36176 28.5021C0.217056 27.875 0.120587 27.2359 0.0723519 26.5847C0.0241173 25.9094 0.0120587 25.2462 0.036176 24.595C0.0602933 23.9439 0.0844106 23.3289 0.108528 22.7501C0.132645 21.9542 0.156762 21.1583 0.18088 20.3625C0.204997 19.5425 0.241173 18.7225 0.289408 17.9025C0.313525 17.179 0.337642 16.4555 0.36176 15.7319C0.409994 15.0084 0.639109 14.309 1.0491 13.6337C1.43498 13.0067 1.92938 12.5243 2.53232 12.1867C3.13525 11.8491 3.7623 11.6682 4.41347 11.6441C5.06463 11.6199 5.69168 11.7767 6.29462 12.1143C6.92167 12.4279 7.41607 12.9223 7.77783 13.5976C8.45311 13.1393 9.17663 12.8982 9.94839 12.874C10.7201 12.8499 11.4557 13.067 12.1551 13.5252C12.6616 12.9223 13.2645 12.4279 13.9639 12.042C14.6874 11.6561 15.4592 11.4632 16.2792 11.4632ZM19.6435 21.2669C19.6435 20.6157 19.6556 19.8198 19.6797 18.8792C19.728 17.9146 19.6677 16.9981 19.4988 16.1299C19.33 15.2375 19.0044 14.4778 18.5221 13.8508C18.0397 13.2237 17.2921 12.9102 16.2792 12.9102C15.8451 12.9102 15.423 12.9946 15.013 13.1634C14.6271 13.3081 14.2654 13.5131 13.9277 13.7784C13.6142 14.0437 13.3128 14.3452 13.0233 14.6828C12.7581 15.0205 12.5289 15.3702 12.336 15.7319C12.0225 15.2496 11.6125 14.8758 11.106 14.6105C10.6237 14.3211 10.0931 14.2487 9.51428 14.3934C8.95958 14.514 8.46517 14.7914 8.03106 15.2255C7.59695 15.6355 7.24725 16.0816 6.98196 16.564C6.98196 16.2505 6.95784 15.9369 6.90961 15.6234C6.86137 15.2858 6.77696 14.9722 6.65638 14.6828C6.53579 14.3693 6.37903 14.092 6.18609 13.8508C5.99315 13.5855 5.73992 13.3805 5.42639 13.2358C4.94405 12.9946 4.43758 12.9584 3.907 13.1273C3.37642 13.272 2.94231 13.5493 2.60467 13.9593C2.31526 14.2728 2.11026 14.6225 1.98968 15.0084C1.86909 15.3943 1.78468 15.8043 1.73645 16.2384C1.71233 16.6484 1.70027 17.0704 1.70027 17.5046C1.72439 17.9146 1.72439 18.3125 1.70027 18.6984C1.65204 19.5425 1.61586 20.3986 1.59174 21.2669C1.56762 22.1351 1.54351 22.9912 1.51939 23.8354C1.51939 24.5348 1.53145 25.2342 1.55557 25.9336C1.57968 26.633 1.66409 27.3324 1.8088 28.0318C1.90527 28.4176 2.03791 28.8035 2.20673 29.1894C2.37555 29.5753 2.66496 29.8526 3.07496 30.0214C3.65377 30.2385 4.13612 30.2144 4.52199 29.9491C4.90787 29.6838 5.2214 29.31 5.46257 28.8276C5.70374 28.3453 5.87256 27.8268 5.96903 27.2721C6.08962 26.7174 6.17403 26.2471 6.22226 25.8612C6.34285 24.9447 6.37903 24.0403 6.33079 23.148C6.30667 22.2316 6.39109 21.3151 6.58402 20.3986C6.60814 20.3263 6.68049 20.1213 6.80108 19.7836C6.92167 19.446 7.06637 19.1325 7.23519 18.8431C7.40401 18.5295 7.57283 18.3125 7.74165 18.1919C7.93459 18.0713 8.10341 18.1919 8.24812 18.5537C8.48929 19.1325 8.54958 19.7836 8.429 20.5072C8.33253 21.2307 8.24812 21.8939 8.17577 22.4968C8.0793 23.1721 7.99489 23.8474 7.92253 24.5227C7.8743 25.198 7.8743 25.8853 7.92253 26.5847C7.97077 27.0671 8.0793 27.5615 8.24812 28.0679C8.44106 28.5503 8.80282 28.8759 9.3334 29.0447C9.88809 29.2376 10.4307 29.2135 10.9613 28.9723C11.516 28.707 11.9381 28.3332 12.2275 27.8509C12.6133 27.2238 12.8545 26.5365 12.951 25.7889C13.0475 25.0171 13.1078 24.2815 13.1319 23.5821C13.1801 23.0515 13.2042 22.533 13.2042 22.0266C13.2042 21.5201 13.2042 21.0136 13.2042 20.5072C13.2042 20.0731 13.1922 19.6389 13.168 19.2048C13.168 18.7466 13.2645 18.3125 13.4575 17.9025C13.578 17.6613 13.7227 17.4925 13.8916 17.396C14.0845 17.2996 14.2774 17.384 14.4704 17.6493C14.6633 17.9628 14.7839 18.3245 14.8321 18.7345C14.8804 19.1445 14.8924 19.5304 14.8683 19.8922C14.8683 20.5192 14.8201 21.1463 14.7236 21.7733C14.6271 22.4004 14.5427 23.0274 14.4704 23.6545C14.4221 24.0886 14.3739 24.6433 14.3257 25.3186C14.3016 25.9697 14.3377 26.5968 14.4342 27.1997C14.5548 27.8026 14.7839 28.2971 15.1215 28.6829C15.4833 29.0688 16.0259 29.2135 16.7495 29.117C17.5212 29.0206 18.1 28.6588 18.4859 28.0318C18.8959 27.4047 19.1733 26.6812 19.318 25.8612C19.4868 25.0171 19.5833 24.173 19.6074 23.3289C19.6315 22.4848 19.6435 21.7974 19.6435 21.2669ZM31.652 13.3081C32.5926 13.8628 33.3643 14.5743 33.9672 15.4425C34.5702 16.3108 35.0163 17.2513 35.3058 18.2643C35.6193 19.2772 35.776 20.3263 35.776 21.4116C35.776 22.4727 35.6434 23.4977 35.3781 24.4865C35.0646 25.5477 34.5943 26.5244 33.9672 27.4168C33.3402 28.285 32.5926 29.0085 31.7243 29.5873C30.8802 30.142 29.9397 30.5279 28.9026 30.745C27.8656 30.962 26.7923 30.9379 25.6829 30.6726C24.1877 30.335 22.9698 29.6476 22.0292 28.6106C21.1127 27.5494 20.4616 26.3436 20.0757 24.993C19.7139 23.6183 19.6054 22.1833 19.7501 20.688C19.9189 19.1928 20.3289 17.8301 20.9801 16.6002C21.6312 15.3461 22.5115 14.3211 23.6209 13.5252C24.7544 12.7052 26.105 12.2952 27.6726 12.2952C28.372 12.2952 29.0594 12.3796 29.7347 12.5485C30.4099 12.7173 31.049 12.9705 31.652 13.3081ZM27.4917 29.4064C28.987 29.4064 30.2411 29.0206 31.254 28.2488C32.267 27.4771 33.0267 26.5124 33.5331 25.3547C34.0637 24.1971 34.3411 22.943 34.3652 21.5924C34.3893 20.2178 34.1602 18.9516 33.6778 17.794C33.1955 16.6363 32.4479 15.6716 31.4349 14.8999C30.4461 14.1281 29.192 13.7423 27.6726 13.7423C26.2979 13.7423 25.1283 14.1281 24.1636 14.8999C23.223 15.6716 22.4995 16.6363 21.993 17.794C21.4865 18.9516 21.2092 20.2178 21.161 21.5924C21.1368 22.943 21.3418 24.1971 21.7759 25.3547C22.2101 26.5124 22.8974 27.4771 23.838 28.2488C24.8027 29.0206 26.0206 29.4064 27.4917 29.4064ZM27.5641 16.6725C28.0223 16.6725 28.3117 16.8775 28.4323 17.2875C28.5529 17.6734 28.5529 18.1196 28.4323 18.626C28.3359 19.1084 28.1309 19.5545 27.8173 19.9645C27.5038 20.3504 27.1541 20.5433 26.7682 20.5433C26.2859 20.5433 25.9844 20.3504 25.8638 19.9645C25.7432 19.5545 25.7432 19.1084 25.8638 18.626C25.9844 18.1196 26.2015 17.6734 26.515 17.2875C26.8285 16.8775 27.1782 16.6725 27.5641 16.6725ZM42.7309 13.7061C43.7679 13.8749 44.7326 14.2125 45.6249 14.719C46.5414 15.2014 47.3132 15.8163 47.9402 16.564C48.5673 17.2875 49.0014 18.1316 49.2425 19.0963C49.5078 20.061 49.4958 21.098 49.2064 22.2074C48.9411 23.2204 48.4949 24.1368 47.8679 24.9568C47.2408 25.7768 46.5052 26.4641 45.6611 27.0188C44.7447 27.6459 43.792 28.1162 42.8032 28.4297C42.6585 28.4779 42.5379 28.5141 42.4415 28.5382C42.3691 28.5623 42.3088 28.6468 42.2606 28.7915C42.2365 28.912 42.2123 29.0206 42.1882 29.117C42.1641 29.1894 42.1279 29.2859 42.0797 29.4064C41.935 29.8164 41.6938 30.2144 41.3562 30.6003C41.0185 30.9379 40.6206 31.2032 40.1624 31.3961C39.7041 31.6132 39.2339 31.7458 38.7515 31.7941C38.2692 31.8423 37.7868 31.7941 37.3045 31.6494C36.8462 31.5288 36.4363 31.2997 36.0745 30.962C35.7368 30.6244 35.4595 30.2506 35.2424 29.8406C35.0495 29.4064 34.8927 28.9603 34.7722 28.5021C34.6516 28.0197 34.5672 27.5374 34.5189 27.055C34.4707 26.5485 34.4345 26.0783 34.4104 25.6441C34.3622 24.4865 34.3742 23.3289 34.4466 22.1713C34.5189 21.0136 34.6033 19.856 34.6998 18.6984C34.7963 17.6854 34.8445 16.6966 34.8445 15.7319C34.8445 14.7431 34.8686 13.7423 34.9169 12.7293C34.941 11.8852 35.0013 10.9205 35.0977 9.83526C35.1942 8.74998 35.4113 7.72499 35.7489 6.7603C36.0866 5.79561 36.581 4.98768 37.2321 4.33651C37.9074 3.66123 38.8239 3.32359 39.9815 3.32359C40.8738 3.32359 41.5853 3.50447 42.1159 3.86622C42.6465 4.22798 43.0323 4.71033 43.2735 5.31326C43.5388 5.89208 43.6835 6.56736 43.7076 7.33912C43.7317 8.08675 43.6956 8.84645 43.5991 9.6182C43.5026 10.3658 43.37 11.1014 43.2012 11.8249C43.0323 12.5485 42.8756 13.1755 42.7309 13.7061ZM46.674 24.1609C47.3252 23.3168 47.7352 22.3642 47.904 21.303C48.097 20.2178 47.9281 19.1807 47.3976 18.1919C47.084 17.6131 46.6861 17.1307 46.2038 16.7449C45.7214 16.3349 45.1908 16.0093 44.612 15.7681C44.0332 15.5028 43.4182 15.3099 42.767 15.1893C42.14 15.0687 41.5129 15.0084 40.8859 15.0084C40.9824 14.6467 41.1271 14.1402 41.32 13.489C41.5129 12.8379 41.6938 12.1385 41.8626 11.3908C42.0556 10.6191 42.2003 9.84732 42.2968 9.07556C42.4173 8.27969 42.4294 7.56823 42.3329 6.94118C42.2365 6.29001 42.0073 5.77149 41.6456 5.38561C41.2838 4.97562 40.7291 4.77062 39.9815 4.77062C39.4991 4.77062 39.0771 4.87915 38.7153 5.09621C38.3536 5.31326 38.0521 5.59061 37.8109 5.92826C37.5698 6.2659 37.3648 6.65177 37.1959 7.08589C37.0512 7.49588 36.9307 7.90587 36.8342 8.31587C36.5689 9.44938 36.4242 10.595 36.4001 11.7526C36.376 12.8861 36.3518 14.0317 36.3277 15.1893C36.3036 16.4193 36.2433 17.6251 36.1468 18.8069C36.0504 19.9886 35.966 21.1945 35.8936 22.4245C35.8695 22.9551 35.8454 23.5218 35.8213 24.1248C35.7971 24.7277 35.7971 25.3306 35.8213 25.9336C35.8454 26.5365 35.9177 27.1274 36.0383 27.7062C36.1589 28.285 36.3518 28.8156 36.6171 29.2979C36.9065 29.8285 37.2924 30.1541 37.7748 30.2747C38.2812 30.3953 38.8118 30.3591 39.3665 30.1661C39.8488 29.9973 40.2227 29.72 40.488 29.3341C40.7532 28.9241 40.898 28.4659 40.9221 27.9594C40.9221 27.7182 40.91 27.5856 40.8859 27.5615C40.8859 27.5132 41.0185 27.4529 41.2838 27.3806C42.1038 27.1877 42.8394 26.9344 43.4906 26.6209C44.1176 26.3315 44.6964 25.9818 45.227 25.5718C45.7817 25.1618 46.2641 24.6915 46.674 24.1609ZM41.6818 17.8301C42.0676 17.9025 42.3691 18.1437 42.5862 18.5537C42.8273 18.9637 42.9479 19.4098 42.9479 19.8922C42.972 20.3745 42.8756 20.8086 42.6585 21.1945C42.4415 21.5804 42.1038 21.7733 41.6456 21.7733C41.2115 21.7733 40.8738 21.5563 40.6327 21.1222C40.4156 20.688 40.3071 20.2178 40.3071 19.7113C40.3071 19.2048 40.4156 18.7466 40.6327 18.3366C40.8497 17.9266 41.1994 17.7578 41.6818 17.8301ZM56.9472 9.36497C57.0436 9.99202 57.0075 10.6191 56.8386 11.2461C56.6698 11.8491 56.3925 12.4038 56.0066 12.9102C55.8619 13.1032 55.7654 13.2237 55.7172 13.272C55.6931 13.2961 55.7413 13.4167 55.8619 13.6337C55.9101 13.7543 55.9584 13.887 56.0066 14.0317C56.0789 14.1523 56.1392 14.2849 56.1875 14.4296C56.2839 14.719 56.3442 15.0084 56.3684 15.2978C56.4166 15.5872 56.4528 15.8766 56.4769 16.166C56.5734 17.2513 56.5492 18.3366 56.4045 19.4219C56.2598 20.483 56.1875 21.5563 56.1875 22.6415C56.2116 23.7268 56.2237 24.8242 56.2237 25.9336C56.2478 27.043 56.0669 28.1162 55.681 29.1532C55.3434 30.1179 54.7766 30.8414 53.9807 31.3238C53.1849 31.8302 52.2684 32.0352 51.2314 31.9388C50.1702 31.8182 49.3864 31.36 48.8799 30.5641C48.3976 29.7682 48.1202 28.8759 48.0479 27.8871C47.9514 26.85 47.9514 25.825 48.0479 24.8121C48.1685 23.7992 48.2529 22.7742 48.3011 21.7371C48.3494 20.6036 48.3373 19.4701 48.2649 18.3366C48.2167 17.179 48.3132 16.0455 48.5543 14.9361C48.6026 14.6467 48.6749 14.3693 48.7714 14.104C48.8679 13.8146 48.9885 13.5373 49.1332 13.272C48.9885 13.079 48.8438 12.8861 48.6991 12.6932C48.5785 12.4761 48.4699 12.259 48.3735 12.042C48.1805 11.5596 48.0599 11.0652 48.0117 10.5588C47.9876 10.0523 48.0358 9.55791 48.1564 9.07556C48.3494 8.08675 48.8076 7.25471 49.5311 6.57942C50.2787 5.88002 51.159 5.5062 52.1719 5.45797C52.7749 5.43385 53.3416 5.51826 53.8722 5.7112C54.4269 5.88002 54.9093 6.13325 55.3193 6.47089C55.7534 6.80854 56.1151 7.23059 56.4045 7.73705C56.6939 8.2194 56.8748 8.76204 56.9472 9.36497ZM53.1125 13.0549C53.9084 12.8861 54.5234 12.4761 54.9575 11.8249C55.4157 11.1497 55.6087 10.402 55.5363 9.58203C55.4157 8.73792 55.0419 8.07469 54.4149 7.59235C53.7878 7.11 53.0522 6.88089 52.2081 6.90501C51.4122 6.92912 50.7731 7.24265 50.2908 7.84558C49.8326 8.42439 49.5673 9.08762 49.4949 9.83526C49.4226 10.5588 49.5552 11.2461 49.8929 11.8973C50.2546 12.5485 50.8455 12.9584 51.6655 13.1273C51.0867 13.272 50.6526 13.5734 50.3631 14.0317C50.0979 14.4899 49.917 15.0084 49.8205 15.5872C49.7482 16.166 49.712 16.769 49.712 17.396C49.7361 17.999 49.7482 18.5175 49.7482 18.9516C49.7723 19.9404 49.7482 20.9172 49.6758 21.8819C49.6276 22.8224 49.5793 23.7871 49.5311 24.7759C49.4829 25.4753 49.4467 26.1988 49.4226 26.9465C49.3985 27.67 49.4829 28.3694 49.6758 29.0447C49.8446 29.5753 50.122 29.9491 50.5078 30.1661C50.9178 30.3832 51.4002 30.4917 51.9549 30.4917C52.6302 30.4435 53.1728 30.2264 53.5828 29.8406C53.9928 29.4306 54.2943 28.9 54.4872 28.2488C54.6801 27.5494 54.7766 26.838 54.7766 26.1144C54.8007 25.3668 54.8128 24.6312 54.8128 23.9077C54.7646 23.2324 54.7525 22.5813 54.7766 21.9542C54.8248 21.303 54.8731 20.6519 54.9213 20.0007C54.9696 19.4942 55.0298 18.8792 55.1022 18.1557C55.1745 17.4322 55.1745 16.7207 55.1022 16.0213C55.0298 15.3219 54.849 14.6949 54.5596 14.1402C54.2701 13.5855 53.7878 13.2237 53.1125 13.0549ZM66.7494 11.4994C67.4971 11.4994 68.1121 11.6802 68.5944 12.042C69.1009 12.4038 69.4988 12.874 69.7882 13.4529C70.0776 14.0317 70.2947 14.6828 70.4394 15.4064C70.5841 16.1299 70.6685 16.8655 70.6926 17.6131C70.7409 18.3607 70.7529 19.0842 70.7288 19.7836C70.7047 20.4589 70.6806 21.0498 70.6564 21.5563C70.6323 22.0627 70.6203 22.6657 70.6203 23.3651C70.6203 24.0645 70.5841 24.788 70.5117 25.5356C70.4394 26.2591 70.3188 26.9827 70.15 27.7062C69.9812 28.4056 69.7279 29.0326 69.3903 29.5873C69.0768 30.142 68.6547 30.5882 68.1241 30.9258C67.6177 31.2876 66.9786 31.4685 66.2068 31.4685C65.628 31.4685 65.0733 31.3358 64.5427 31.0705C64.4221 31.0223 64.3136 30.962 64.2171 30.8897C64.1448 30.8173 64.0483 30.745 63.9277 30.6726C63.8071 30.552 63.7107 30.5279 63.6383 30.6003C63.566 30.6485 63.4574 30.7088 63.3127 30.7811C62.8786 31.0223 62.4204 31.2032 61.938 31.3238C61.4557 31.4444 60.9733 31.4805 60.491 31.4323C59.5745 31.3841 58.7546 31.0947 58.031 30.5641C57.3316 30.0335 56.789 29.3582 56.4031 28.5382C55.969 27.5977 55.7158 26.6209 55.6434 25.608C55.5711 24.5709 55.559 23.5459 55.6072 22.533C55.6314 21.6166 55.6796 20.7001 55.7519 19.7836C55.8484 18.8431 55.9931 17.9266 56.1861 17.0343C56.2825 16.6002 56.4031 16.154 56.5478 15.6958C56.7166 15.2375 56.9096 14.8034 57.1266 14.3934C57.3678 13.9834 57.6572 13.6217 57.9949 13.3081C58.3325 12.9946 58.7425 12.7655 59.2248 12.6208C60.0689 12.3796 60.901 12.452 61.721 12.8379C62.541 13.2237 63.1439 13.8026 63.5298 14.5743C63.7468 13.7784 64.1086 13.067 64.6151 12.4399C65.1456 11.8129 65.8571 11.4994 66.7494 11.4994ZM69.2094 22.0627C69.2576 20.9775 69.2818 19.8801 69.2818 18.7707C69.2818 17.6613 69.1612 16.564 68.92 15.4787C68.8476 15.1893 68.7632 14.8999 68.6668 14.6105C68.5703 14.3211 68.4376 14.0558 68.2688 13.8146C68.1 13.5493 67.883 13.3443 67.6177 13.1996C67.3765 13.0308 67.0871 12.9464 66.7494 12.9464C66.4359 12.9464 66.1706 13.0308 65.9536 13.1996C65.7365 13.3443 65.5556 13.5373 65.4109 13.7784C65.2662 13.9955 65.1456 14.2487 65.0492 14.5381C64.9527 14.8275 64.8803 15.0928 64.8321 15.334C64.6392 16.1781 64.5306 17.0222 64.5065 17.8663C64.5065 18.7104 64.5186 19.5545 64.5427 20.3986C64.5427 20.7845 64.5668 21.2066 64.6151 21.6648C64.6633 22.0989 64.6874 22.533 64.6874 22.9671C64.6874 23.4012 64.6512 23.8354 64.5789 24.2695C64.5306 24.6795 64.4101 25.0653 64.2171 25.4271C64.0724 25.7165 63.8554 25.9939 63.566 26.2591C63.2765 26.5003 62.951 26.5606 62.5892 26.44C62.2757 26.3194 62.0586 26.1024 61.938 25.7889C61.8416 25.4512 61.7813 25.1377 61.7572 24.8483C61.7089 24.1489 61.7692 23.4495 61.938 22.7501C62.1069 22.0266 62.2516 21.3151 62.3721 20.6157C62.4927 19.9163 62.5892 19.2289 62.6616 18.5537C62.7339 17.8543 62.7098 17.1549 62.5892 16.4555C62.5169 15.9008 62.336 15.3943 62.0466 14.9361C61.7572 14.4537 61.323 14.1402 60.7442 13.9955C60.0931 13.8267 59.5504 13.9231 59.1163 14.2849C58.7063 14.6467 58.3807 15.1049 58.1396 15.6596C57.7778 16.4555 57.5366 17.2996 57.416 18.1919C57.2955 19.0842 57.199 19.9525 57.1266 20.7966C57.0784 21.8095 57.0302 22.8465 56.9819 23.9077C56.9578 24.9689 57.0784 25.9939 57.3437 26.9827C57.5366 27.5856 57.8019 28.1523 58.1396 28.6829C58.5013 29.2135 58.9837 29.5873 59.5866 29.8044C60.3825 30.0938 61.1783 30.0938 61.9742 29.8044C62.7701 29.4909 63.4454 29.0567 64.0001 28.5021C64.2171 28.9362 64.4945 29.2859 64.8321 29.5512C65.1698 29.7923 65.5315 29.937 65.9174 29.9853C66.3033 30.0094 66.6891 29.9491 67.075 29.8044C67.4609 29.6356 67.7865 29.3462 68.0518 28.9362C68.3653 28.4779 68.5944 27.9594 68.7391 27.3806C68.9079 26.8018 69.0165 26.2109 69.0647 25.608C69.1371 25.005 69.1732 24.4021 69.1732 23.7992C69.1732 23.1962 69.1853 22.6174 69.2094 22.0627ZM82.6273 14.3573C82.9408 14.9119 83.1579 15.5269 83.2785 16.2022C83.399 16.8534 83.4111 17.5046 83.3146 18.1557C83.2182 18.8069 83.0132 19.4219 82.6996 20.0007C82.4102 20.5795 81.9882 21.0498 81.4335 21.4116C81.94 21.8457 82.3258 22.3642 82.5911 22.9671C82.8564 23.5459 83.0132 24.1489 83.0614 24.7759C83.1338 25.403 83.1096 26.0421 82.9891 26.6933C82.8685 27.3444 82.6635 27.9474 82.3741 28.5021C81.8676 29.5391 81.132 30.347 80.1673 30.9258C79.2026 31.5288 78.1535 31.8905 77.02 32.0111C76.3206 32.0835 75.6092 32.0594 74.8856 31.9388C74.1862 31.8182 73.511 31.6011 72.8598 31.2876C72.2327 30.9982 71.6539 30.6123 71.1233 30.13C70.6169 29.6235 70.2069 29.0447 69.8934 28.3935C69.6281 27.8871 69.4472 27.3203 69.3507 26.6933C69.2784 26.0662 69.2904 25.4633 69.3869 24.8845C69.4834 24.2815 69.6884 23.7268 70.0019 23.2204C70.3154 22.7139 70.7616 22.316 71.3404 22.0266C70.858 21.5683 70.4842 21.0498 70.2189 20.471C69.9537 19.8681 69.7728 19.2531 69.6763 18.626C69.6039 17.999 69.616 17.3599 69.7125 16.7087C69.8089 16.0575 69.9778 15.4305 70.2189 14.8275C70.7254 13.5976 71.5333 12.6449 72.6427 11.9696C73.7762 11.2702 74.9942 10.9205 76.2965 10.9205C77.5506 10.9205 78.7565 11.222 79.9141 11.8249C81.0958 12.4038 82.0002 13.2479 82.6273 14.3573ZM81.542 19.0963C81.952 18.204 82.0726 17.3478 81.9038 16.5278C81.735 15.7078 81.3732 14.9964 80.8185 14.3934C80.2879 13.7664 79.6247 13.272 78.8288 12.9102C78.0329 12.5485 77.2009 12.3676 76.3327 12.3676C75.0786 12.3676 73.9812 12.7293 73.0407 13.4529C72.1242 14.1523 71.5333 15.1169 71.268 16.3469C71.0751 17.2875 71.0751 18.204 71.268 19.0963C71.4851 19.9886 71.9795 20.7483 72.7513 21.3754C73.0889 21.6648 73.4748 21.918 73.9089 22.1351C74.343 22.3521 74.7771 22.5813 75.2112 22.8224C75.6453 23.0636 76.0433 23.3289 76.405 23.6183C76.7668 23.9077 77.0441 24.2695 77.2371 24.7036C77.3335 24.9206 77.3697 25.21 77.3456 25.5718C77.3456 25.9094 77.2853 26.223 77.1647 26.5124C77.0441 26.8018 76.8633 27.0188 76.6221 27.1635C76.405 27.2841 76.1277 27.2359 75.79 27.0188C75.5489 26.85 75.4524 26.6571 75.5006 26.44C75.5489 26.223 75.6092 26.018 75.6815 25.825C75.8021 25.4392 75.79 25.0653 75.6453 24.7036C75.5006 24.3177 75.2595 24.0042 74.9218 23.763C74.6083 23.5218 74.2586 23.3409 73.8727 23.2204C73.0045 22.9551 72.281 23.0757 71.7022 23.5821C71.1233 24.0645 70.8098 24.7277 70.7616 25.5718C70.7133 26.4159 70.8822 27.1997 71.268 27.9232C71.678 28.6468 72.2327 29.2256 72.9321 29.6597C73.5592 30.0697 74.2586 30.347 75.0303 30.4917C75.8021 30.6364 76.5618 30.6485 77.3094 30.5279C78.0812 30.4073 78.7806 30.142 79.4076 29.732C80.0588 29.322 80.5773 28.7673 80.9632 28.0679C81.325 27.4168 81.542 26.6691 81.6144 25.825C81.7108 24.9809 81.5902 24.2092 81.2526 23.5098C80.9873 22.9792 80.6135 22.5571 80.1312 22.2436C79.6729 21.9301 79.1906 21.6407 78.6841 21.3754C78.2018 21.1342 77.7074 20.893 77.2009 20.6519C76.6944 20.4107 76.2603 20.0731 75.8986 19.6389C75.7297 19.446 75.585 19.1807 75.4645 18.8431C75.3439 18.4813 75.2836 18.1316 75.2836 17.794C75.2836 17.4563 75.3559 17.1669 75.5006 16.9257C75.6695 16.6605 75.9589 16.5278 76.3689 16.5278C76.803 16.5278 77.0924 16.7328 77.2371 17.1428C77.4059 17.5287 77.4662 17.8904 77.418 18.2281C77.3697 18.6381 77.418 19.0239 77.5627 19.3857C77.7074 19.7234 77.9485 20.0007 78.2862 20.2178C78.5997 20.4348 78.9132 20.5554 79.2268 20.5795C79.5644 20.6036 79.8779 20.5675 80.1673 20.471C80.4567 20.3504 80.722 20.1695 80.9632 19.9283C81.2044 19.6872 81.3973 19.4098 81.542 19.0963Z" fill="black"/>
<line x1="0.835248" y1="-0.835248" x2="5.92617" y2="-0.835248" transform="matrix(0.424576 -0.905018 0.904056 0.428213 79.6433 7.37402)" stroke="#256AE5" stroke-width="1.6705" stroke-linecap="round"/>
<line x1="0.835248" y1="-0.835248" x2="5.9149" y2="-0.835248" transform="matrix(0.75803 -0.651351 0.648487 0.761971 83.2593 10.7351)" stroke="#F47F3A" stroke-width="1.6705" stroke-linecap="round"/>
<line x1="0.835248" y1="-0.835248" x2="5.90329" y2="-0.835248" transform="matrix(0.951748 -0.30547 0.303083 0.953414 85.6936 15.5781)" stroke="#873694" stroke-width="1.6705" stroke-linecap="round"/>
<line x1="0.835248" y1="-0.835248" x2="5.89808" y2="-0.835248" transform="matrix(0.999362 0.0328282 -0.0325216 0.999569 86.0718 20.9055)" stroke="#1C830B" stroke-width="1.6705" stroke-linecap="round"/>
</svg>
