<svg width="94" height="40" viewBox="0 0 94 40" fill="none" xmlns="http://www.w3.org/2000/svg">
<path d="M16.1079 11.6369C16.7045 11.6369 17.2653 11.7563 17.7903 11.9949C18.3153 12.2097 18.7687 12.5199 19.1505 12.9256C19.5562 13.3074 19.8903 13.7608 20.1528 14.2858C20.4153 14.7869 20.6062 15.3239 20.7255 15.8966C20.8448 16.5409 20.8926 17.1972 20.8687 17.8653C20.8687 18.5335 20.8687 19.1898 20.8687 19.8341C20.8687 20.4784 20.8568 21.1227 20.8329 21.767C20.8329 22.4114 20.809 23.0557 20.7613 23.7C20.7136 24.2488 20.6539 24.8216 20.5823 25.4182C20.5107 25.9909 20.3795 26.5636 20.1886 27.1363C20.0215 27.7091 19.7829 28.246 19.4727 28.7471C19.1863 29.2244 18.7926 29.6301 18.2914 29.9642C17.8619 30.2505 17.3966 30.4414 16.8954 30.5369C16.4181 30.6085 15.9409 30.5966 15.4636 30.5011C15.0102 30.3818 14.5806 30.1789 14.175 29.8926C13.7932 29.5824 13.4949 29.1886 13.2801 28.7113C12.9221 29.2602 12.4568 29.7017 11.8841 30.0358C11.3113 30.346 10.7147 30.525 10.0943 30.5727C9.47384 30.5966 8.87725 30.4772 8.30453 30.2147C7.75566 29.9284 7.31419 29.475 6.9801 28.8545C6.7176 29.475 6.35964 30.0358 5.90624 30.5369C5.47669 31.0142 4.9159 31.3125 4.22385 31.4318C3.6034 31.5511 3.01874 31.4914 2.46988 31.2528C1.92102 31.038 1.46761 30.6801 1.10966 30.1789C0.775566 29.6778 0.524999 29.117 0.357954 28.4966C0.214772 27.8761 0.119318 27.2437 0.0715907 26.5994C0.0238636 25.9312 0.0119318 25.275 0.0357954 24.6307C0.059659 23.9863 0.0835225 23.3778 0.107386 22.8051C0.13125 22.0176 0.155113 21.2301 0.178977 20.4426C0.20284 19.6312 0.238636 18.8199 0.286363 18.0085C0.310227 17.2926 0.33409 16.5767 0.357954 15.8608C0.405681 15.1449 0.632385 14.4528 1.03807 13.7847C1.41988 13.1642 1.90909 12.6869 2.50568 12.3529C3.10227 12.0188 3.72272 11.8398 4.36704 11.8159C5.01135 11.7921 5.63181 11.9472 6.2284 12.2813C6.84885 12.5915 7.33805 13.0807 7.69601 13.7489C8.36419 13.2955 9.08009 13.0568 9.84373 13.033C10.6074 13.0091 11.3352 13.2239 12.0272 13.6773C12.5284 13.0807 13.125 12.5915 13.817 12.2097C14.5329 11.8279 15.2966 11.6369 16.1079 11.6369ZM19.4369 21.3375C19.4369 20.6932 19.4488 19.9057 19.4727 18.975C19.5204 18.0205 19.4608 17.1136 19.2937 16.2545C19.1267 15.3716 18.8045 14.6199 18.3272 13.9994C17.85 13.379 17.1102 13.0688 16.1079 13.0688C15.6784 13.0688 15.2608 13.1523 14.8551 13.3193C14.4733 13.4625 14.1153 13.6653 13.7812 13.9278C13.471 14.1903 13.1727 14.4886 12.8863 14.8227C12.6238 15.1568 12.3971 15.5028 12.2062 15.8608C11.896 15.3835 11.4903 15.0136 10.9892 14.7511C10.5119 14.4648 9.98691 14.3932 9.41418 14.5364C8.86532 14.6557 8.37612 14.9301 7.94657 15.3597C7.51703 15.7653 7.17101 16.2068 6.90851 16.6841C6.90851 16.3739 6.88464 16.0636 6.83692 15.7534C6.78919 15.4193 6.70567 15.1091 6.58635 14.8227C6.46703 14.5125 6.31192 14.2381 6.12101 13.9994C5.9301 13.7369 5.67953 13.5341 5.36931 13.3909C4.89203 13.1523 4.3909 13.1165 3.8659 13.2835C3.3409 13.4267 2.91136 13.7011 2.57727 14.1068C2.2909 14.4171 2.08806 14.7631 1.96875 15.1449C1.84943 15.5267 1.76591 15.9324 1.71818 16.3619C1.69431 16.7676 1.68238 17.1852 1.68238 17.6148C1.70625 18.0205 1.70625 18.4142 1.68238 18.796C1.63466 19.6312 1.59886 20.4784 1.575 21.3375C1.55113 22.1966 1.52727 23.0437 1.50341 23.879C1.50341 24.571 1.51534 25.263 1.5392 25.9551C1.56306 26.6471 1.64659 27.3392 1.78977 28.0312C1.88522 28.413 2.01647 28.7949 2.18352 29.1767C2.35056 29.5585 2.63693 29.8329 3.04261 30C3.61533 30.2147 4.0926 30.1909 4.47442 29.9284C4.85624 29.6659 5.16647 29.296 5.4051 28.8187C5.64374 28.3415 5.81078 27.8284 5.90624 27.2795C6.02555 26.7307 6.10908 26.2653 6.1568 25.8835C6.27612 24.9767 6.31192 24.0818 6.26419 23.1988C6.24033 22.292 6.32385 21.3852 6.51476 20.4784C6.53862 20.4068 6.61021 20.204 6.72953 19.8699C6.84885 19.5358 6.99203 19.2256 7.15907 18.9392C7.32612 18.629 7.49317 18.4142 7.66021 18.2949C7.85112 18.1756 8.01816 18.2949 8.16135 18.6528C8.39998 19.2256 8.45964 19.8699 8.34032 20.5858C8.24487 21.3017 8.16135 21.9579 8.08975 22.5545C7.9943 23.2227 7.91078 23.8909 7.83919 24.5591C7.79146 25.2273 7.79146 25.9074 7.83919 26.5994C7.88691 27.0767 7.9943 27.5659 8.16135 28.067C8.35225 28.5443 8.71021 28.8665 9.23521 29.0335C9.78407 29.2244 10.321 29.2005 10.846 28.9619C11.3949 28.6994 11.8125 28.3295 12.0988 27.8522C12.4807 27.2318 12.7193 26.5517 12.8147 25.8119C12.9102 25.0483 12.9699 24.3204 12.9937 23.6284C13.0414 23.1034 13.0653 22.5903 13.0653 22.0892C13.0653 21.5881 13.0653 21.0869 13.0653 20.5858C13.0653 20.1562 13.0534 19.7267 13.0295 19.2972C13.0295 18.8437 13.125 18.4142 13.3159 18.0085C13.4352 17.7699 13.5784 17.6028 13.7454 17.5074C13.9363 17.4119 14.1272 17.4955 14.3181 17.758C14.5091 18.0682 14.6284 18.4261 14.6761 18.8318C14.7238 19.2375 14.7358 19.6193 14.7119 19.9773C14.7119 20.5977 14.6642 21.2182 14.5687 21.8386C14.4733 22.4591 14.3897 23.0795 14.3181 23.7C14.2704 24.1295 14.2227 24.6784 14.175 25.3466C14.1511 25.9909 14.1869 26.6113 14.2824 27.2079C14.4017 27.8045 14.6284 28.2937 14.9625 28.6755C15.3204 29.0574 15.8574 29.2005 16.5733 29.1051C17.3369 29.0096 17.9096 28.6517 18.2914 28.0312C18.6971 27.4108 18.9715 26.6949 19.1147 25.8835C19.2818 25.0483 19.3772 24.2131 19.4011 23.3778C19.425 22.5426 19.4369 21.8625 19.4369 21.3375ZM31.319 13.4625C32.2497 14.0114 33.0133 14.7153 33.6099 15.5744C34.2065 16.4335 34.648 17.3642 34.9343 18.3665C35.2446 19.3687 35.3997 20.4068 35.3997 21.4807C35.3997 22.5307 35.2684 23.5449 35.0059 24.5233C34.6957 25.5733 34.2304 26.5398 33.6099 27.4227C32.9894 28.2818 32.2497 28.9977 31.3906 29.5704C30.5554 30.1193 29.6247 30.5011 28.5985 30.7159C27.5724 30.9307 26.5105 30.9068 25.4128 30.6443C23.9332 30.3102 22.7281 29.6301 21.7974 28.604C20.8906 27.554 20.2463 26.3608 19.8645 25.0244C19.5065 23.6642 19.3991 22.2443 19.5423 20.7648C19.7094 19.2852 20.115 17.9369 20.7594 16.7199C21.4037 15.479 22.2747 14.4648 23.3724 13.6773C24.494 12.8659 25.8304 12.4602 27.3815 12.4602C28.0735 12.4602 28.7537 12.5438 29.4218 12.7108C30.09 12.8778 30.7224 13.1284 31.319 13.4625ZM27.2025 29.3914C28.6821 29.3914 29.923 29.0096 30.9252 28.246C31.9275 27.4824 32.6792 26.5278 33.1804 25.3824C33.7054 24.2369 33.9798 22.996 34.0036 21.6596C34.0275 20.2994 33.8008 19.0466 33.3235 17.9011C32.8463 16.7557 32.1065 15.8011 31.1042 15.0375C30.1258 14.2739 28.8849 13.8921 27.3815 13.8921C26.0213 13.8921 24.8639 14.2739 23.9094 15.0375C22.9787 15.8011 22.2628 16.7557 21.7616 17.9011C21.2605 19.0466 20.9861 20.2994 20.9383 21.6596C20.9145 22.996 21.1173 24.2369 21.5469 25.3824C21.9764 26.5278 22.6565 27.4824 23.5872 28.246C24.5417 29.0096 25.7468 29.3914 27.2025 29.3914ZM27.2741 16.7915C27.7275 16.7915 28.0139 16.9943 28.1332 17.4C28.2525 17.7818 28.2525 18.2233 28.1332 18.7244C28.0378 19.2017 27.8349 19.6432 27.5247 20.0489C27.2145 20.4307 26.8684 20.6216 26.4866 20.6216C26.0093 20.6216 25.7111 20.4307 25.5917 20.0489C25.4724 19.6432 25.4724 19.2017 25.5917 18.7244C25.7111 18.2233 25.9258 17.7818 26.236 17.4C26.5463 16.9943 26.8923 16.7915 27.2741 16.7915ZM42.2813 13.8563C43.3075 14.0233 44.262 14.3574 45.145 14.8585C46.0518 15.3358 46.8154 15.9443 47.4359 16.6841C48.0563 17.4 48.4859 18.2352 48.7245 19.1898C48.987 20.1443 48.9751 21.1704 48.6887 22.2682C48.4262 23.2704 47.9847 24.1773 47.3643 24.9886C46.7438 25.8 46.016 26.4801 45.1808 27.029C44.2739 27.6494 43.3313 28.1147 42.3529 28.425C42.2097 28.4727 42.0904 28.5085 41.995 28.5324C41.9234 28.5562 41.8637 28.6397 41.816 28.7829C41.7921 28.9022 41.7683 29.0096 41.7444 29.1051C41.7205 29.1767 41.6847 29.2721 41.637 29.3914C41.4938 29.7971 41.2552 30.1909 40.9211 30.5727C40.587 30.9068 40.1933 31.1693 39.7399 31.3602C39.2864 31.575 38.8211 31.7062 38.3438 31.7539C37.8666 31.8017 37.3893 31.7539 36.912 31.6108C36.4586 31.4914 36.0529 31.2647 35.695 30.9307C35.3609 30.5966 35.0865 30.2267 34.8717 29.821C34.6808 29.3914 34.5257 28.95 34.4063 28.4966C34.287 28.0193 34.2035 27.542 34.1558 27.0647C34.1081 26.5636 34.0723 26.0983 34.0484 25.6687C34.0007 24.5233 34.0126 23.3778 34.0842 22.2324C34.1558 21.0869 34.2393 19.9415 34.3348 18.796C34.4302 17.7937 34.4779 16.8153 34.4779 15.8608C34.4779 14.8824 34.5018 13.8921 34.5495 12.8898C34.5734 12.0546 34.633 11.1 34.7285 10.0262C34.824 8.95229 35.0387 7.93809 35.3728 6.98355C35.7069 6.029 36.1961 5.22957 36.8404 4.58525C37.5086 3.91707 38.4154 3.58298 39.5609 3.58298C40.4438 3.58298 41.1478 3.76196 41.6728 4.11991C42.1978 4.47787 42.5796 4.95514 42.8183 5.55173C43.0808 6.12446 43.2239 6.79264 43.2478 7.55627C43.2717 8.29604 43.2359 9.04775 43.1404 9.81138C43.045 10.5512 42.9137 11.279 42.7467 11.9949C42.5796 12.7108 42.4245 13.3313 42.2813 13.8563ZM46.183 24.2011C46.8273 23.3659 47.233 22.4233 47.4001 21.3733C47.591 20.2994 47.4239 19.2733 46.8989 18.2949C46.5887 17.7222 46.195 17.2449 45.7177 16.8631C45.2404 16.4574 44.7154 16.1352 44.1427 15.8966C43.57 15.6341 42.9614 15.4432 42.3171 15.3239C41.6967 15.2045 41.0762 15.1449 40.4558 15.1449C40.5512 14.7869 40.6944 14.2858 40.8853 13.6415C41.0762 12.9972 41.2552 12.3051 41.4222 11.5654C41.6131 10.8017 41.7563 10.0381 41.8518 9.27445C41.9711 8.48695 41.983 7.78297 41.8876 7.16252C41.7921 6.51821 41.5654 6.00514 41.2075 5.62332C40.8495 5.21764 40.3006 5.0148 39.5609 5.0148C39.0836 5.0148 38.666 5.12219 38.308 5.33696C37.9501 5.55173 37.6518 5.82616 37.4132 6.16025C37.1745 6.49434 36.9717 6.87616 36.8046 7.3057C36.6615 7.71138 36.5421 8.11706 36.4467 8.52275C36.1842 9.64433 36.041 10.7779 36.0171 11.9233C35.9933 13.0449 35.9694 14.1784 35.9455 15.3239C35.9217 16.5409 35.862 17.7341 35.7666 18.9034C35.6711 20.0727 35.5876 21.2659 35.516 22.4829C35.4921 23.0079 35.4683 23.5687 35.4444 24.1653C35.4205 24.7619 35.4205 25.3585 35.4444 25.9551C35.4683 26.5517 35.5399 27.1363 35.6592 27.7091C35.7785 28.2818 35.9694 28.8068 36.2319 29.2841C36.5183 29.8091 36.9001 30.1312 37.3774 30.2505C37.8785 30.3699 38.4035 30.3341 38.9524 30.1432C39.4296 29.9761 39.7995 29.7017 40.062 29.3199C40.3245 28.9142 40.4677 28.4608 40.4916 27.9596C40.4916 27.721 40.4796 27.5897 40.4558 27.5659C40.4558 27.5182 40.587 27.4585 40.8495 27.3869C41.6609 27.196 42.3887 26.9454 43.033 26.6352C43.6535 26.3488 44.2262 26.0028 44.7512 25.5971C45.3001 25.1915 45.7773 24.7261 46.183 24.2011ZM41.2433 17.9369C41.6251 18.0085 41.9234 18.2472 42.1381 18.6528C42.3768 19.0585 42.4961 19.5 42.4961 19.9773C42.52 20.4545 42.4245 20.8841 42.2097 21.2659C41.995 21.6477 41.6609 21.8386 41.2075 21.8386C40.7779 21.8386 40.4438 21.6239 40.2052 21.1943C39.9904 20.7648 39.883 20.2994 39.883 19.7983C39.883 19.2972 39.9904 18.8437 40.2052 18.4381C40.42 18.0324 40.766 17.8653 41.2433 17.9369ZM56.3481 9.56081C56.4435 10.1813 56.4077 10.8017 56.2407 11.4222C56.0736 12.0188 55.7992 12.5676 55.4174 13.0688C55.2742 13.2597 55.1788 13.379 55.131 13.4267C55.1072 13.4506 55.1549 13.5699 55.2742 13.7847C55.3219 13.904 55.3697 14.0352 55.4174 14.1784C55.489 14.2977 55.5486 14.429 55.5964 14.5722C55.6918 14.8585 55.7515 15.1449 55.7753 15.4313C55.8231 15.7176 55.8589 16.004 55.8827 16.2903C55.9782 17.3642 55.9543 18.4381 55.8111 19.5119C55.668 20.5619 55.5964 21.6239 55.5964 22.6977C55.6202 23.7716 55.6322 24.8574 55.6322 25.9551C55.656 27.0528 55.477 28.1147 55.0952 29.1409C54.7611 30.0954 54.2003 30.8113 53.4128 31.2886C52.6253 31.7897 51.7185 31.9926 50.6924 31.8971C49.6424 31.7778 48.8668 31.3244 48.3657 30.5369C47.8884 29.7494 47.614 28.8665 47.5424 27.888C47.447 26.8619 47.447 25.8477 47.5424 24.8454C47.6617 23.8432 47.7452 22.829 47.793 21.8028C47.8407 20.6812 47.8288 19.5597 47.7572 18.4381C47.7094 17.2926 47.8049 16.171 48.0435 15.0733C48.0913 14.7869 48.1629 14.5125 48.2583 14.25C48.3538 13.9636 48.4731 13.6892 48.6163 13.4267C48.4731 13.2358 48.3299 13.0449 48.1867 12.854C48.0674 12.6392 47.96 12.4244 47.8646 12.2097C47.6737 11.7324 47.5543 11.2432 47.5066 10.7421C47.4827 10.2409 47.5305 9.75172 47.6498 9.27445C47.8407 8.29604 48.2941 7.47275 49.01 6.80457C49.7498 6.11252 50.6208 5.74264 51.6231 5.69491C52.2197 5.67105 52.7805 5.75457 53.3055 5.94548C53.8543 6.11252 54.3316 6.36309 54.7373 6.69718C55.1668 7.03127 55.5248 7.44889 55.8111 7.95002C56.0975 8.42729 56.2765 8.96422 56.3481 9.56081ZM52.5538 13.2119C53.3413 13.0449 53.9498 12.6392 54.3793 11.9949C54.8327 11.3267 55.0236 10.5869 54.952 9.77559C54.8327 8.94036 54.4628 8.28411 53.8424 7.80684C53.2219 7.32957 52.4941 7.10286 51.6589 7.12673C50.8714 7.15059 50.239 7.46082 49.7617 8.05741C49.3083 8.63013 49.0458 9.28638 48.9742 10.0262C48.9026 10.7421 49.0339 11.4222 49.368 12.0665C49.7259 12.7108 50.3106 13.1165 51.1219 13.2835C50.5492 13.4267 50.1197 13.725 49.8333 14.1784C49.5708 14.6318 49.3918 15.1449 49.2964 15.7176C49.2248 16.2903 49.189 16.8869 49.189 17.5074C49.2129 18.104 49.2248 18.617 49.2248 19.0466C49.2487 20.025 49.2248 20.9915 49.1532 21.946C49.1055 22.8767 49.0577 23.8312 49.01 24.8096C48.9623 25.5017 48.9265 26.2176 48.9026 26.9574C48.8788 27.6733 48.9623 28.3653 49.1532 29.0335C49.3202 29.5585 49.5947 29.9284 49.9765 30.1432C50.3822 30.3579 50.8594 30.4653 51.4083 30.4653C52.0765 30.4176 52.6134 30.2028 53.0191 29.821C53.4248 29.4153 53.7231 28.8903 53.914 28.246C54.1049 27.554 54.2003 26.85 54.2003 26.1341C54.2242 25.3943 54.2361 24.6665 54.2361 23.9506C54.1884 23.2824 54.1765 22.6381 54.2003 22.0176C54.2481 21.3733 54.2958 20.729 54.3435 20.0847C54.3913 19.5835 54.4509 18.975 54.5225 18.2591C54.5941 17.5432 54.5941 16.8392 54.5225 16.1472C54.4509 15.4551 54.2719 14.8347 53.9856 14.2858C53.6992 13.7369 53.2219 13.379 52.5538 13.2119ZM66.0472 11.6727C66.787 11.6727 67.3955 11.8517 67.8728 12.2097C68.3739 12.5676 68.7677 13.033 69.054 13.6057C69.3404 14.1784 69.5552 14.8227 69.6983 15.5386C69.8415 16.2545 69.925 16.9824 69.9489 17.7222C69.9966 18.4619 70.0086 19.1778 69.9847 19.8699C69.9608 20.5381 69.937 21.1227 69.9131 21.6239C69.8892 22.125 69.8773 22.7216 69.8773 23.4136C69.8773 24.1057 69.8415 24.8216 69.7699 25.5613C69.6983 26.2773 69.579 26.9932 69.412 27.7091C69.2449 28.4011 68.9944 29.0216 68.6603 29.5704C68.35 30.1193 67.9324 30.5608 67.4074 30.8949C66.9063 31.2528 66.2739 31.4318 65.5103 31.4318C64.9376 31.4318 64.3887 31.3005 63.8637 31.038C63.7444 30.9903 63.637 30.9307 63.5415 30.8591C63.4699 30.7875 63.3745 30.7159 63.2552 30.6443C63.1359 30.525 63.0404 30.5011 62.9688 30.5727C62.8972 30.6204 62.7898 30.6801 62.6467 30.7517C62.2171 30.9903 61.7637 31.1693 61.2864 31.2886C60.8092 31.4079 60.3319 31.4437 59.8546 31.396C58.9478 31.3483 58.1364 31.0619 57.4205 30.5369C56.7285 30.0119 56.1916 29.3437 55.8097 28.5324C55.3802 27.6017 55.1296 26.6352 55.058 25.6329C54.9864 24.6068 54.9745 23.5926 55.0222 22.5903C55.0461 21.6835 55.0938 20.7767 55.1654 19.8699C55.2609 18.9392 55.4041 18.0324 55.595 17.1494C55.6904 16.7199 55.8097 16.2784 55.9529 15.825C56.12 15.3716 56.3109 14.942 56.5256 14.5364C56.7643 14.1307 57.0506 13.7727 57.3847 13.4625C57.7188 13.1523 58.1245 12.9256 58.6018 12.7824C59.437 12.5438 60.2603 12.6154 61.0717 12.9972C61.883 13.379 62.4796 13.9517 62.8614 14.7153C63.0762 13.9278 63.4342 13.2239 63.9353 12.6034C64.4603 11.983 65.1643 11.6727 66.0472 11.6727ZM68.4813 22.125C68.529 21.0511 68.5529 19.9653 68.5529 18.8676C68.5529 17.7699 68.4336 16.6841 68.1949 15.6102C68.1233 15.3239 68.0398 15.0375 67.9444 14.7511C67.8489 14.4648 67.7177 14.2023 67.5506 13.9636C67.3836 13.7011 67.1688 13.4983 66.9063 13.3551C66.6677 13.1881 66.3813 13.1046 66.0472 13.1046C65.737 13.1046 65.4745 13.1881 65.2597 13.3551C65.0449 13.4983 64.866 13.6892 64.7228 13.9278C64.5796 14.1426 64.4603 14.3932 64.3648 14.6796C64.2694 14.9659 64.1978 15.2284 64.1501 15.467C63.9591 16.3023 63.8518 17.1375 63.8279 17.9727C63.8279 18.808 63.8398 19.6432 63.8637 20.4784C63.8637 20.8602 63.8876 21.2778 63.9353 21.7312C63.983 22.1608 64.0069 22.5903 64.0069 23.0199C64.0069 23.4494 63.9711 23.879 63.8995 24.3085C63.8518 24.7142 63.7324 25.096 63.5415 25.454C63.3984 25.7403 63.1836 26.0148 62.8972 26.2773C62.6109 26.5159 62.2887 26.5755 61.9307 26.4562C61.6205 26.3369 61.4057 26.1221 61.2864 25.8119C61.191 25.4778 61.1313 25.1676 61.1075 24.8812C61.0597 24.1892 61.1194 23.4971 61.2864 22.8051C61.4535 22.0892 61.5967 21.3852 61.716 20.6932C61.8353 20.0011 61.9307 19.321 62.0023 18.6528C62.0739 17.9608 62.0501 17.2687 61.9307 16.5767C61.8592 16.0278 61.6802 15.5267 61.3938 15.0733C61.1075 14.596 60.6779 14.2858 60.1052 14.1426C59.4609 13.9756 58.9239 14.071 58.4944 14.429C58.0887 14.7869 57.7665 15.2403 57.5279 15.7892C57.17 16.5767 56.9313 17.4119 56.812 18.2949C56.6927 19.1778 56.5972 20.0369 56.5256 20.8722C56.4779 21.8744 56.4302 22.9006 56.3825 23.9506C56.3586 25.0005 56.4779 26.0148 56.7404 26.9932C56.9313 27.5897 57.1938 28.1505 57.5279 28.6755C57.8859 29.2005 58.3631 29.5704 58.9597 29.7852C59.7472 30.0716 60.5347 30.0716 61.3222 29.7852C62.1097 29.475 62.7779 29.0454 63.3268 28.4966C63.5415 28.9261 63.816 29.2721 64.1501 29.5346C64.4841 29.7733 64.8421 29.9164 65.2239 29.9642C65.6057 29.988 65.9876 29.9284 66.3694 29.7852C66.7512 29.6182 67.0733 29.3318 67.3358 28.9261C67.6461 28.4727 67.8728 27.9596 68.016 27.3869C68.183 26.8142 68.2904 26.2295 68.3381 25.6329C68.4097 25.0363 68.4455 24.4398 68.4455 23.8432C68.4455 23.2466 68.4574 22.6739 68.4813 22.125ZM81.758 14.5006C82.0683 15.0494 82.283 15.658 82.4023 16.3261C82.5217 16.9705 82.5336 17.6148 82.4381 18.2591C82.3427 18.9034 82.1398 19.5119 81.8296 20.0847C81.5433 20.6574 81.1256 21.1227 80.5768 21.4807C81.0779 21.9102 81.4597 22.4233 81.7222 23.0199C81.9847 23.5926 82.1398 24.1892 82.1876 24.8096C82.2592 25.4301 82.2353 26.0625 82.116 26.7068C81.9967 27.3511 81.7938 27.9477 81.5075 28.4966C81.0063 29.5227 80.2785 30.3221 79.3239 30.8949C78.3694 31.4914 77.3313 31.8494 76.2097 31.9687C75.5177 32.0403 74.8137 32.0164 74.0978 31.8971C73.4058 31.7778 72.7376 31.563 72.0933 31.2528C71.4728 30.9664 70.9001 30.5846 70.3751 30.1074C69.874 29.6062 69.4683 29.0335 69.1581 28.3892C68.8956 27.888 68.7166 27.3272 68.6211 26.7068C68.5495 26.0863 68.5615 25.4898 68.6569 24.917C68.7524 24.3204 68.9552 23.7716 69.2654 23.2704C69.5757 22.7693 70.0171 22.3756 70.5899 22.0892C70.1126 21.6358 69.7427 21.1227 69.4802 20.55C69.2177 19.9534 69.0387 19.3449 68.9433 18.7244C68.8717 18.104 68.8836 17.4716 68.9791 16.8273C69.0745 16.183 69.2416 15.5625 69.4802 14.9659C69.9814 13.7489 70.7808 12.8063 71.8785 12.1381C73.0001 11.446 74.2052 11.1 75.4938 11.1C76.7347 11.1 77.9279 11.3983 79.0734 11.9949C80.2427 12.5676 81.1376 13.4028 81.758 14.5006ZM80.6842 19.1898C81.0898 18.3068 81.2092 17.4597 81.0421 16.6483C80.8751 15.8369 80.5171 15.133 79.9683 14.5364C79.4433 13.9159 78.787 13.4267 77.9995 13.0688C77.212 12.7108 76.3887 12.5318 75.5296 12.5318C74.2887 12.5318 73.2029 12.8898 72.2723 13.6057C71.3654 14.2977 70.7808 15.2523 70.5183 16.4693C70.3274 17.4 70.3274 18.3068 70.5183 19.1898C70.7331 20.0727 71.2223 20.8244 71.9859 21.4449C72.32 21.7312 72.7018 21.9818 73.1313 22.1966C73.5609 22.4114 73.9904 22.6381 74.42 22.8767C74.8495 23.1153 75.2433 23.3778 75.6012 23.6642C75.9592 23.9506 76.2336 24.3085 76.4245 24.7381C76.52 24.9528 76.5558 25.2392 76.5319 25.5971C76.5319 25.9312 76.4722 26.2415 76.3529 26.5278C76.2336 26.8142 76.0546 27.029 75.816 27.1721C75.6012 27.2915 75.3268 27.2437 74.9927 27.029C74.7541 26.8619 74.6586 26.671 74.7063 26.4562C74.7541 26.2415 74.8137 26.0386 74.8853 25.8477C75.0046 25.4659 74.9927 25.096 74.8495 24.7381C74.7063 24.3562 74.4677 24.046 74.1336 23.8074C73.8234 23.5687 73.4774 23.3898 73.0956 23.2704C72.2365 23.0079 71.5206 23.1273 70.9478 23.6284C70.3751 24.1057 70.0649 24.7619 70.0171 25.5971C69.9694 26.4324 70.1365 27.2079 70.5183 27.9238C70.924 28.6397 71.4728 29.2125 72.1649 29.642C72.7853 30.0477 73.4774 30.3221 74.241 30.4653C75.0046 30.6085 75.7563 30.6204 76.4961 30.5011C77.2597 30.3818 77.9518 30.1193 78.5722 29.7136C79.2166 29.3079 79.7296 28.7591 80.1114 28.067C80.4694 27.4227 80.6842 26.6829 80.7558 25.8477C80.8512 25.0125 80.7319 24.2488 80.3978 23.5568C80.1353 23.0318 79.7654 22.6142 79.2881 22.304C78.8347 21.9937 78.3575 21.7074 77.8563 21.4449C77.3791 21.2062 76.8899 20.9676 76.3887 20.729C75.8876 20.4903 75.458 20.1562 75.1001 19.7267C74.933 19.5358 74.7899 19.2733 74.6705 18.9392C74.5512 18.5812 74.4916 18.2352 74.4916 17.9011C74.4916 17.567 74.5632 17.2807 74.7063 17.042C74.8734 16.7795 75.1597 16.6483 75.5654 16.6483C75.995 16.6483 76.2813 16.8511 76.4245 17.2568C76.5916 17.6386 76.6512 17.9966 76.6035 18.3307C76.5558 18.7364 76.6035 19.1182 76.7467 19.4761C76.8899 19.8102 77.1285 20.0847 77.4626 20.2994C77.7728 20.5142 78.083 20.6335 78.3933 20.6574C78.7274 20.6812 79.0376 20.6454 79.3239 20.55C79.6103 20.4307 79.8728 20.2517 80.1114 20.0131C80.3501 19.7744 80.541 19.5 80.6842 19.1898Z" fill="white"/>
<line x1="0.826461" y1="-0.826461" x2="5.86382" y2="-0.826461" transform="matrix(0.424576 -0.905018 0.904056 0.428213 78.8043 7.30688)" stroke="white" stroke-width="1.65292" stroke-linecap="round"/>
<line x1="0.826461" y1="-0.826461" x2="5.85267" y2="-0.826461" transform="matrix(0.75803 -0.651351 0.648487 0.761971 82.3828 10.6326)" stroke="white" stroke-width="1.65292" stroke-linecap="round"/>
<line x1="0.826461" y1="-0.826461" x2="5.84119" y2="-0.826461" transform="matrix(0.951748 -0.30547 0.303083 0.953414 84.7915 15.4246)" stroke="white" stroke-width="1.65292" stroke-linecap="round"/>
<line x1="0.826461" y1="-0.826461" x2="5.83603" y2="-0.826461" transform="matrix(0.999362 0.0328282 -0.0325216 0.999569 85.1658 20.696)" stroke="white" stroke-width="1.65292" stroke-linecap="round"/>
</svg>
