<svg width="1440" height="895" viewBox="0 0 1440 895" fill="none" xmlns="http://www.w3.org/2000/svg">
<g opacity="0.04">
<path d="M-3 788.982L110.962 671.194L-3.00001 553.537L-3.00002 483.948L178.356 671.184L-3 858.627L-3 788.982Z" fill="#2E3120"/>
<path d="M-3.00003 106.02L-3.00004 36.3757L178.351 223.811L-3.00002 411.246L-3.00002 341.602L110.967 223.811L-3.00003 106.02Z" fill="#2E3120"/>
<path d="M168.235 895L100.851 895L317.39 671.194L100.843 447.627L317.394 223.811L100.848 3.44469e-05L168.233 0.000250007L384.778 223.811L168.237 447.617L384.783 671.184L168.235 895Z" fill="#2E3120"/>
<path d="M374.663 895L307.279 895L523.817 671.194L307.271 447.627L523.822 223.811L307.275 2.54237e-05L374.66 0.000240984L591.206 223.811L374.665 447.617L591.21 671.184L374.663 895Z" fill="#2E3120"/>
<path d="M581.089 895L513.705 895L730.244 671.194L513.698 447.627L730.248 223.811L513.702 1.64005e-05L581.087 0.000231961L797.633 223.811L581.091 447.617L797.637 671.184L581.089 895Z" fill="#2E3120"/>
<path d="M787.517 895L720.133 895L936.671 671.194L720.125 447.627L936.676 223.811L720.13 7.37727e-06L787.514 0.000222938L1004.06 223.811L787.519 447.617L1004.06 671.184L787.517 895Z" fill="#2E3120"/>
<path d="M993.944 895L926.56 895L1143.1 671.194L926.552 447.627L1143.1 223.811L926.556 -1.64593e-06L993.941 0.000213914L1210.49 223.811L993.946 447.617L1210.49 671.184L993.944 895Z" fill="#2E3120"/>
<path d="M1200.37 895L1132.99 895L1349.52 671.194L1132.98 447.627L1349.53 223.811L1132.98 -1.06692e-05L1200.37 0.000204891L1416.91 223.811L1200.37 447.617L1416.92 671.184L1200.37 895Z" fill="#2E3120"/>
<path d="M1406.8 895L1339.41 895L1442 788.971L1442 858.616L1406.8 895Z" fill="#2E3120"/>
<path d="M1442 411.236L1406.8 447.617L1442 483.958L1442 553.547L1339.41 447.627L1442 341.591L1442 411.236Z" fill="#2E3120"/>
<path d="M1339.41 -1.96924e-05L1442 106.031L1442 36.3861L1406.8 0.000195868L1339.41 -1.96924e-05Z" fill="#2E3120"/>
</g>
</svg>
