<svg width="252" height="283" viewBox="0 0 252 283" fill="none" xmlns="http://www.w3.org/2000/svg">
<g clip-path="url(#clip0_2395_8172)">
<path d="M142.714 218.056C202.928 218.056 251.742 169.243 251.742 109.028C251.742 48.8136 202.928 0 142.714 0C82.4991 0 33.6855 48.8136 33.6855 109.028C33.6855 169.243 82.4991 218.056 142.714 218.056Z" fill="#F2F2F2"/>
<path d="M213.962 48.7575H14.2376C13.8093 48.7483 13.4695 48.3937 13.4787 47.9654C13.4876 47.55 13.8222 47.2154 14.2376 47.2065H213.962C214.39 47.2157 214.73 47.5703 214.721 47.9986C214.712 48.414 214.377 48.7486 213.962 48.7575Z" fill="#CACACA"/>
<path d="M145.896 74.8911H90.6846C86.5376 74.8911 83.1758 78.2529 83.1758 82.4V82.4C83.1758 86.547 86.5376 89.9088 90.6846 89.9088H145.896C150.043 89.9088 153.405 86.547 153.405 82.4C153.405 78.2529 150.043 74.8911 145.896 74.8911Z" fill="white"/>
<path d="M55.0167 104.927H181.562C185.709 104.927 189.071 108.289 189.071 112.436C189.071 116.583 185.709 119.944 181.562 119.944H55.0167C50.8696 119.944 47.5078 116.583 47.5078 112.436C47.5078 108.289 50.8696 104.927 55.0167 104.927Z" fill="white"/>
<path d="M55.0167 134.962H181.562C185.709 134.962 189.071 138.324 189.071 142.471C189.071 146.618 185.709 149.98 181.562 149.98H55.0167C50.8696 149.98 47.5078 146.618 47.5078 142.471C47.5078 138.324 50.8696 134.962 55.0167 134.962Z" fill="white"/>
<path d="M39.3362 282.34L39.0384 282.311C28.9337 281.268 19.7991 275.834 14.0613 267.451C12.4897 265.115 11.2184 262.591 10.2775 259.937L10.1871 259.684L10.4548 259.663C13.6514 259.405 16.9353 258.863 18.3941 258.605L8.98728 255.418L8.92911 255.138C8.37141 252.518 9.464 249.822 11.6885 248.33C13.919 246.766 16.8769 246.715 19.1591 248.203C20.1833 248.858 21.2545 249.506 22.2904 250.132C25.8502 252.286 29.5312 254.512 32.2911 257.559C36.476 262.271 38.3103 268.62 37.2832 274.838L39.3362 282.34Z" fill="#F2F2F2"/>
<path d="M73.5286 277.662L78.1645 277.662L80.3704 259.778L73.5273 259.779L73.5286 277.662Z" fill="#A0616A"/>
<path d="M73.3655 282.498L87.6226 282.497V282.317C87.6223 279.252 85.1379 276.768 82.0733 276.768H82.0729L79.4687 274.792L74.6098 276.768L73.3652 276.768L73.3655 282.498Z" fill="#2F2E41"/>
<path d="M36.375 264.821L40.0832 267.603L52.5798 254.622L47.1061 250.516L36.375 264.821Z" fill="#A0616A"/>
<path d="M33.3418 268.591L44.7464 277.146L44.8546 277.002C46.6936 274.551 46.1973 271.072 43.746 269.233L43.7457 269.233L42.8482 266.09L37.7757 264.754L36.7801 264.007L33.3418 268.591H33.3418Z" fill="#2F2E41"/>
<path d="M51.7882 193.741C51.7882 193.741 52.0442 200.722 52.367 206.321C52.4199 207.239 50.2688 208.236 50.3245 209.235C50.3614 209.898 50.7658 210.542 50.8033 211.233C50.843 211.963 50.2847 212.608 50.3245 213.362C50.3633 214.099 51.0002 214.944 51.0386 215.699C51.452 223.815 52.9507 233.532 51.45 236.248C50.7104 237.587 41.2832 256.133 41.2832 256.133C41.2832 256.133 46.5357 264.012 48.0364 261.385C50.0186 257.917 65.2947 241.688 65.2947 238.589C65.2947 235.494 68.8289 212.297 68.8289 212.297L71.2932 226.025L72.4231 228.745L72.0681 230.342L72.7983 232.497L72.8378 234.629L73.5487 238.589C73.5487 238.589 71.4102 269.444 72.6145 270.303C73.8225 271.166 79.6716 272.716 80.3619 271.166C81.0485 269.617 85.5175 238.965 85.5175 238.965C85.5175 238.965 86.2378 224.918 87.0182 211.862C87.0632 211.104 87.596 210.188 87.6373 209.442C87.6861 208.575 87.3484 207.45 87.3934 206.609C87.4422 205.645 87.8699 204.966 87.9111 204.043C88.23 196.911 86.4399 188.226 85.8696 187.37C84.1475 184.789 82.598 182.725 82.598 182.725C82.598 182.725 59.4035 175.105 53.2056 182.848L51.7883 193.741L51.7882 193.741Z" fill="#2F2E41"/>
<path d="M74.9195 121.95L65.7247 120.111L61.4338 125.935C53.4273 133.807 53.3067 140.755 54.736 151.893V167.524L53.7015 178.003C53.7015 178.003 50.0394 185.663 53.8165 187.446C57.5936 189.229 82.4035 189.077 84.7723 188.365C87.1411 187.654 85.0879 186.779 84.4658 183.462C83.2974 177.229 84.0789 180.236 84.1594 178.251C85.3122 149.786 82.6269 138.101 82.3542 135.029L77.678 126.548L74.9195 121.95Z" fill="#3F3D56"/>
<path d="M123.381 144.9C122.423 146.716 120.174 147.411 118.359 146.453C118.165 146.351 117.981 146.232 117.808 146.097L97.9512 158.705L98.0084 151.841L117.298 140.647C118.672 139.106 121.035 138.971 122.575 140.345C123.864 141.495 124.197 143.378 123.381 144.9Z" fill="#A0616A"/>
<path d="M67.6604 129.9L65.3997 129.66C63.3109 129.444 61.2614 130.338 60.0001 132.017C59.517 132.654 59.17 133.383 58.9807 134.16L58.9793 134.166C58.4122 136.504 59.3016 138.953 61.2363 140.382L69.0444 146.139C74.5239 153.543 84.8219 158.455 96.9016 162.446L115.678 150.785L109.037 142.741L96.158 149.643L77.0144 134.824L77.0033 134.815L69.7172 130.121L67.6604 129.9L67.6604 129.9Z" fill="#3F3D56"/>
<path d="M71.8123 117.435C77.7341 117.435 82.5347 112.634 82.5347 106.712C82.5347 100.79 77.7341 95.9897 71.8123 95.9897C65.8904 95.9897 61.0898 100.79 61.0898 106.712C61.0898 112.634 65.8904 117.435 71.8123 117.435Z" fill="#A0616A"/>
<path d="M72.0585 117.437C71.9721 117.44 71.8854 117.442 71.7989 117.444C71.7618 117.54 71.7219 117.635 71.6758 117.729L72.0585 117.437V117.437Z" fill="#2F2E41"/>
<path d="M75.002 107.01C75.0188 107.115 75.0445 107.219 75.0788 107.321C75.0647 107.215 75.0389 107.11 75.002 107.01Z" fill="#2F2E41"/>
<path d="M82.671 96.4483C82.2297 97.8188 81.8358 96.0804 80.3839 96.3931C78.6374 96.7692 76.6049 96.6401 75.1746 95.5695C73.0435 94.0058 70.2818 93.5849 67.7816 94.4427C65.3343 95.3085 61.2342 95.919 60.5965 98.4354C60.3748 99.3101 60.2868 100.259 59.7495 100.984C59.2797 101.618 58.5383 101.98 57.9183 102.467C55.8248 104.115 57.4249 108.794 58.4157 111.267C59.4066 113.74 61.6795 115.541 64.1784 116.464C66.5963 117.357 69.2205 117.514 71.7998 117.444C72.2484 116.28 72.0546 114.937 71.6844 113.73C71.2837 112.425 70.6903 111.164 70.5229 109.809C70.3555 108.453 70.7231 106.913 71.8598 106.156C72.9045 105.46 74.6047 105.884 75.0021 107.01C74.7702 105.602 76.1957 104.24 77.6656 104.001C79.2437 103.744 80.8218 104.314 82.3954 104.597C83.969 104.881 83.4105 98.256 82.671 96.4483Z" fill="#2F2E41"/>
<path d="M142.64 124.45C143.64 112.372 134.659 101.771 122.582 100.772C110.504 99.7721 99.9032 108.753 98.9036 120.83C97.9041 132.908 106.884 143.509 118.962 144.508C131.039 145.508 141.641 136.527 142.64 124.45Z" fill="#00B7AB"/>
<path d="M126.534 113.497L120.77 119.261L115.006 113.497C114.073 112.564 112.561 112.564 111.628 113.497C110.694 114.43 110.694 115.943 111.628 116.876L117.392 122.64L111.628 128.404C110.695 129.338 110.697 130.85 111.631 131.783C112.563 132.713 114.074 132.713 115.006 131.783L120.77 126.019L126.534 131.783C127.468 132.715 128.981 132.713 129.913 131.779C130.844 130.847 130.844 129.336 129.913 128.404L124.149 122.64L129.913 116.876C130.846 115.943 130.846 114.43 129.913 113.497C128.98 112.564 127.468 112.564 126.534 113.497Z" fill="white"/>
<path d="M112.124 104.196C112.771 106.145 111.716 108.249 109.767 108.896C109.559 108.965 109.346 109.015 109.129 109.047L104.48 132.104L99.5664 127.311L104.843 105.641C104.683 103.583 106.221 101.785 108.279 101.625C110.001 101.49 111.591 102.554 112.124 104.196Z" fill="#A0616A"/>
<path d="M62.7247 134.021L60.9868 135.487C59.3843 136.844 58.611 138.942 58.9494 141.015C59.0744 141.804 59.3605 142.56 59.7898 143.234L59.7933 143.239C61.0874 145.266 63.4707 146.32 65.8413 145.914L75.4009 144.265C84.5372 145.436 95.2112 141.406 106.454 135.452L111.038 113.83L100.636 113.054L96.7006 127.126L72.7539 130.68L72.7398 130.682L64.3082 132.69L62.7247 134.021L62.7247 134.021Z" fill="#3F3D56"/>
<path d="M117.157 282.868L0.509443 283C0.227176 282.999 -0.000911552 282.77 2.73912e-06 282.488C0.000908445 282.207 0.22846 281.979 0.509443 281.978L117.157 281.846C117.439 281.847 117.667 282.077 117.666 282.359C117.665 282.64 117.438 282.867 117.157 282.868Z" fill="#CACACA"/>
<path d="M24.3702 38.9339C26.375 38.9339 28.0001 37.2725 28.0001 35.2231C28.0001 33.1736 26.375 31.5122 24.3702 31.5122C22.3654 31.5122 20.7402 33.1736 20.7402 35.2231C20.7402 37.2725 22.3654 38.9339 24.3702 38.9339Z" fill="#3F3D56"/>
<path d="M36.9093 38.9339C38.914 38.9339 40.5392 37.2725 40.5392 35.2231C40.5392 33.1736 38.914 31.5122 36.9093 31.5122C34.9045 31.5122 33.2793 33.1736 33.2793 35.2231C33.2793 37.2725 34.9045 38.9339 36.9093 38.9339Z" fill="#3F3D56"/>
<path d="M49.4483 38.9339C51.4531 38.9339 53.0783 37.2725 53.0783 35.2231C53.0783 33.1736 51.4531 31.5122 49.4483 31.5122C47.4435 31.5122 45.8184 33.1736 45.8184 35.2231C45.8184 37.2725 47.4435 38.9339 49.4483 38.9339Z" fill="#3F3D56"/>
<path d="M63.7497 38.1557C63.6382 38.1557 63.5269 38.1125 63.4428 38.0266L60.9935 35.5228C60.8303 35.356 60.8303 35.0893 60.9935 34.9225L63.4428 32.4189C63.609 32.2496 63.8811 32.2469 64.0498 32.4122C64.2194 32.578 64.2223 32.8499 64.0565 33.0192L61.9009 35.2227L64.0565 37.4263C64.2223 37.5957 64.2194 37.8675 64.0498 38.0333C63.9664 38.115 63.858 38.1557 63.7497 38.1557Z" fill="#3F3D56"/>
<path d="M67.8629 38.156C67.7545 38.156 67.6461 38.1153 67.5627 38.0336C67.3932 37.8678 67.3902 37.5962 67.556 37.4266L69.7115 35.223L67.556 33.0195C67.3902 32.8502 67.3932 32.5783 67.5627 32.4125C67.7319 32.2465 68.0039 32.2497 68.1697 32.4193L70.6188 34.9228C70.7821 35.0897 70.7821 35.3563 70.6188 35.5231L68.1697 38.0269C68.0857 38.1128 67.9744 38.156 67.8629 38.156Z" fill="#3F3D56"/>
<path d="M195.998 31.9419H191.444C190.925 31.9419 190.504 32.3625 190.504 32.8819V37.4405C190.504 37.9599 190.925 38.3806 191.444 38.3806H195.998C196.518 38.3806 196.943 37.9599 196.943 37.4405V32.8819C196.943 32.3625 196.518 31.9419 195.998 31.9419Z" fill="#3F3D56"/>
<path d="M184.838 31.9419H180.284C179.764 31.9419 179.344 32.3625 179.344 32.8819V37.4405C179.344 37.9599 179.764 38.3806 180.284 38.3806H184.838C185.357 38.3806 185.782 37.9599 185.782 37.4405V32.8819C185.782 32.3625 185.357 31.9419 184.838 31.9419Z" fill="#3F3D56"/>
<path d="M206.514 32.1562H201.96C201.44 32.1562 201.02 32.5769 201.02 33.0963V37.6549C201.02 38.1743 201.44 38.5949 201.96 38.5949H206.514C207.033 38.5949 207.458 38.1743 207.458 37.6549V33.0963C207.458 32.5769 207.033 32.1562 206.514 32.1562Z" fill="#3F3D56"/>
<path d="M137.871 33.8906H101.466C100.831 33.8906 100.32 34.4057 100.32 35.0367C100.32 35.6677 100.831 36.1828 101.466 36.1828H137.871C138.502 36.1828 139.017 35.6677 139.017 35.0367C139.017 34.4058 138.502 33.8906 137.871 33.8906Z" fill="#3F3D56"/>
</g>
<defs>
<clipPath id="clip0_2395_8172">
<rect width="251.743" height="283" fill="white"/>
</clipPath>
</defs>
</svg>
