<svg width="353" height="268" viewBox="0 0 353 268" fill="none" xmlns="http://www.w3.org/2000/svg">
<g clip-path="url(#clip0_2501_8202)">
<path d="M141.352 55.577H140.067V20.3744C140.067 17.6988 139.54 15.0494 138.516 12.5774C137.492 10.1055 135.991 7.85946 134.099 5.96752C132.207 4.07559 129.961 2.57482 127.489 1.55091C125.017 0.527004 122.368 2.26698e-06 119.692 0H45.1107C39.7071 -1.03011e-05 34.5248 2.14655 30.7039 5.96748C26.8829 9.7884 24.7363 14.9707 24.7363 20.3743V213.499C24.7363 216.175 25.2633 218.824 26.2872 221.296C27.3111 223.768 28.8119 226.014 30.7038 227.906C32.5958 229.798 34.8418 231.298 37.3137 232.322C39.7857 233.346 42.4351 233.873 45.1107 233.873H119.692C125.096 233.873 130.278 231.727 134.099 227.906C137.92 224.085 140.067 218.903 140.067 213.499V80.6349H141.352V55.577Z" fill="#3F3D56"/>
<path d="M120.516 5.30078H110.78C111.228 6.39841 111.399 7.5893 111.278 8.76853C111.157 9.94776 110.748 11.0792 110.087 12.063C109.425 13.0469 108.532 13.8531 107.486 14.4105C106.44 14.968 105.273 15.2596 104.087 15.2597H61.3604C60.175 15.2596 59.0078 14.968 57.9616 14.4105C56.9155 13.8531 56.0224 13.0469 55.3612 12.063C54.7 11.0792 54.2909 9.94777 54.1699 8.76853C54.049 7.5893 54.2199 6.39841 54.6676 5.30078H45.5747C43.5766 5.30078 41.5981 5.69434 39.7521 6.45898C37.9061 7.22362 36.2287 8.34437 34.8159 9.75724C33.403 11.1701 32.2822 12.8474 31.5176 14.6935C30.7529 16.5395 30.3594 18.518 30.3594 20.5161V213.357C30.3594 215.355 30.7529 217.334 31.5176 219.18C32.2822 221.026 33.403 222.703 34.8158 224.116C36.2287 225.529 37.906 226.65 39.7521 227.414C41.5981 228.179 43.5766 228.573 45.5747 228.573H120.516C122.514 228.573 124.492 228.179 126.338 227.414C128.184 226.65 129.862 225.529 131.274 224.116C132.687 222.703 133.808 221.026 134.573 219.18C135.337 217.334 135.731 215.355 135.731 213.357V20.5161C135.731 18.518 135.337 16.5395 134.573 14.6935C133.808 12.8474 132.687 11.1701 131.274 9.75724C129.862 8.34437 128.184 7.22362 126.338 6.45898C124.492 5.69434 122.514 5.30078 120.516 5.30078Z" fill="white"/>
<path d="M165.257 233.907H0.831953C0.717495 233.907 0.607725 233.862 0.526792 233.781C0.445858 233.7 0.400391 233.59 0.400391 233.476C0.400391 233.361 0.445858 233.251 0.526792 233.17C0.607725 233.089 0.717495 233.044 0.831953 233.044H165.257C165.372 233.044 165.481 233.089 165.562 233.17C165.643 233.251 165.689 233.361 165.689 233.476C165.689 233.59 165.643 233.7 165.562 233.781C165.481 233.862 165.372 233.907 165.257 233.907Z" fill="#CBCBCB"/>
<path d="M83.0453 149.182C103.173 149.182 119.489 132.866 119.489 112.738C119.489 92.6109 103.173 76.2944 83.0453 76.2944C62.918 76.2944 46.6016 92.6109 46.6016 112.738C46.6016 132.866 62.918 149.182 83.0453 149.182Z" fill="#00B7AB"/>
<path d="M79.4323 126.641C78.6124 126.642 77.8143 126.377 77.1584 125.885L77.1177 125.854L68.5529 119.303C68.1562 118.998 67.8233 118.619 67.5732 118.186C67.3231 117.754 67.1607 117.276 67.0953 116.78C67.0298 116.285 67.0626 115.781 67.1918 115.298C67.3209 114.816 67.5439 114.363 67.848 113.966C68.1521 113.57 68.5314 113.237 68.9641 112.987C69.3969 112.736 69.8747 112.574 70.3702 112.509C70.8657 112.443 71.3693 112.476 71.8521 112.605C72.335 112.734 72.7877 112.957 73.1843 113.261L78.7319 117.516L91.8411 100.413C92.1451 100.017 92.5242 99.6839 92.9568 99.4339C93.3894 99.1839 93.8669 99.0215 94.3623 98.9561C94.8576 98.8907 95.3609 98.9235 95.8436 99.0526C96.3262 99.1817 96.7787 99.4046 97.1752 99.7086L97.1763 99.7094L97.095 99.8224L97.1785 99.7094C97.9785 100.324 98.5018 101.231 98.6338 102.231C98.7657 103.232 98.4954 104.243 97.8823 105.045L82.463 125.152C82.1063 125.615 81.6476 125.99 81.1226 126.247C80.5976 126.505 80.0203 126.638 79.4356 126.636L79.4323 126.641Z" fill="white"/>
<path d="M300.011 237.489C300.454 236.772 300.976 236.107 301.567 235.505C301.811 235.253 302.068 235.015 302.333 234.783C303.944 233.349 305.908 232.37 308.024 231.946C310.139 231.523 312.329 231.67 314.368 232.374C316.407 233.077 318.222 234.311 319.627 235.949C321.031 237.586 321.974 239.568 322.358 241.691C324.138 235.109 319.505 228.625 314.846 223.645C310.186 218.667 304.859 213.205 304.885 206.383C304.898 202.587 306.755 199.201 309.559 196.69C309.645 196.614 309.732 196.538 309.82 196.465C313.209 193.56 317.568 192.041 322.028 192.211C330.314 192.654 337.548 198.223 342.572 204.828C350.659 215.457 354.203 230.375 348.542 242.474C343.562 253.115 332.941 259.434 322.102 264.513C320.588 265.223 319.078 265.911 317.57 266.578C317.56 266.58 317.55 266.587 317.539 266.59C317.467 266.622 317.394 266.654 317.326 266.687C317.015 266.824 316.704 266.961 316.396 267.097L316.538 267.19L316.984 267.479C316.83 267.385 316.677 267.294 316.522 267.201C316.476 267.173 316.428 267.146 316.382 267.117C311.058 263.923 305.66 260.544 301.983 255.557C298.168 250.379 296.635 242.962 300.011 237.489Z" fill="#F1F1F1"/>
<path d="M335.529 225.464C336.708 228.145 337.489 230.985 337.849 233.892C338.132 236.484 338.025 239.104 337.533 241.665C336.476 246.928 334.171 251.86 330.811 256.046C328.276 259.224 325.349 262.069 322.101 264.513C320.588 265.223 319.077 265.911 317.569 266.578C317.56 266.58 317.549 266.587 317.539 266.59C317.466 266.622 317.393 266.654 317.325 266.687C317.014 266.824 316.703 266.961 316.395 267.097L316.538 267.19L316.983 267.479C316.829 267.385 316.676 267.294 316.521 267.201C316.475 267.172 316.427 267.146 316.381 267.117C317.553 263.019 317.725 258.7 316.883 254.522C316.042 250.343 314.211 246.428 311.544 243.102C308.863 239.819 305.445 237.216 301.566 235.505C301.81 235.253 302.067 235.015 302.332 234.783C303.826 235.469 305.256 236.286 306.606 237.223C311.434 240.56 315.059 245.363 316.945 250.921C318.629 255.963 318.84 261.381 317.552 266.539C317.819 266.364 318.087 266.185 318.348 266.006C323.307 262.662 327.878 258.645 331.321 253.719C334.291 249.556 336.191 244.727 336.854 239.657C337.514 234.118 336.128 228.672 333.656 223.73C330.925 218.443 327.485 213.554 323.429 209.199C319.356 204.724 314.751 200.765 309.716 197.408C309.603 197.332 309.523 197.214 309.494 197.081C309.464 196.947 309.487 196.807 309.558 196.69C309.612 196.584 309.706 196.503 309.819 196.465C309.877 196.45 309.937 196.449 309.995 196.46C310.053 196.472 310.108 196.497 310.156 196.533C310.777 196.948 311.394 197.366 312.002 197.797C317.073 201.387 321.678 205.594 325.711 210.319C329.608 214.874 333.155 219.935 335.529 225.464Z" fill="white"/>
<path d="M226.99 16.9212C231.264 16.9212 234.729 13.456 234.729 9.18155C234.729 4.90706 231.264 1.44189 226.99 1.44189C222.715 1.44189 219.25 4.90706 219.25 9.18155C219.25 13.456 222.715 16.9212 226.99 16.9212Z" fill="#F1F1F1"/>
<path d="M323.227 120.497C325.833 120.497 327.945 118.384 327.945 115.778C327.945 113.172 325.833 111.059 323.227 111.059C320.62 111.059 318.508 113.172 318.508 115.778C318.508 118.384 320.62 120.497 323.227 120.497Z" fill="#F1F1F1"/>
<path d="M185.127 133.443C187.733 133.443 189.846 131.331 189.846 128.725C189.846 126.119 187.733 124.006 185.127 124.006C182.521 124.006 180.408 126.119 180.408 128.725C180.408 131.331 182.521 133.443 185.127 133.443Z" fill="#F1F1F1"/>
<path d="M187.791 268H352.216C352.331 268 352.44 267.954 352.521 267.873C352.602 267.793 352.648 267.683 352.648 267.568C352.648 267.454 352.602 267.344 352.521 267.263C352.44 267.182 352.331 267.137 352.216 267.137H187.791C187.676 267.137 187.567 267.182 187.486 267.263C187.405 267.344 187.359 267.454 187.359 267.568C187.359 267.683 187.405 267.793 187.486 267.873C187.567 267.954 187.676 268 187.791 268Z" fill="#CBCBCB"/>
<path d="M334.071 41.7037C334.287 40.1709 333.933 38.6121 333.077 37.3227C332.22 36.0333 330.92 35.103 329.423 34.7079C327.927 34.3129 326.337 34.4806 324.956 35.1793C323.574 35.878 322.497 37.0591 321.929 38.4989L308.586 53.7953L312.501 64.7297L325.919 46.8564C326.795 47.1369 327.722 47.222 328.634 47.1057C329.546 46.9894 330.421 46.6745 331.198 46.1832C331.976 45.692 332.636 45.0363 333.132 44.2623C333.628 43.4884 333.949 42.615 334.071 41.7037Z" fill="#FFB7B7"/>
<path d="M278.765 101.223L323.055 53.9544L317.081 44.4565L261.529 91.4381L278.765 101.223Z" fill="#3F3D56"/>
<path d="M268.878 72.5022C277.458 72.5022 284.414 65.5463 284.414 56.9659C284.414 48.3855 277.458 41.4297 268.878 41.4297C260.298 41.4297 253.342 48.3855 253.342 56.9659C253.342 65.5463 260.298 72.5022 268.878 72.5022Z" fill="#2F2E41"/>
<path d="M270.129 48.1897C273.472 44.7995 277.518 42.1834 281.981 40.5255C284.846 39.4641 287.964 38.8083 290.96 39.4111C293.955 40.0138 296.787 42.0859 297.623 45.0248C298.306 47.4278 297.601 50.0152 296.54 52.2774C295.48 54.5395 294.064 56.6372 293.207 58.9838C292.332 61.3781 292.069 63.953 292.441 66.4749C292.814 68.9967 293.81 71.3855 295.34 73.4245C296.87 75.4635 298.885 77.0881 301.202 78.1508C303.52 79.2135 306.065 79.6806 308.609 79.5099C305.666 79.9045 302.953 81.2875 300.076 82.0237C297.2 82.7598 293.805 82.7099 291.667 80.649C289.405 78.4686 289.36 74.9234 289.469 71.7837C289.632 67.1164 289.794 62.449 289.957 57.7817C290.04 55.4014 290.111 52.9449 289.252 50.7232C288.394 48.5016 286.354 46.5562 283.972 46.5764C282.167 46.5917 280.57 47.6852 279.122 48.7636C277.674 49.842 276.142 50.9925 274.344 51.1529C272.546 51.3133 270.494 49.9827 270.628 48.1827L270.129 48.1897Z" fill="#2F2E41"/>
<path d="M209.871 161.284C208.38 161.699 206.788 161.551 205.398 160.871C204.008 160.19 202.915 159.023 202.328 157.59C201.741 156.158 201.699 154.56 202.212 153.099C202.724 151.639 203.754 150.416 205.107 149.665L218.529 134.438L229.881 136.89L213.915 152.529C214.307 153.361 214.512 154.268 214.516 155.187C214.52 156.107 214.322 157.016 213.937 157.851C213.551 158.685 212.988 159.425 212.285 160.019C211.583 160.612 210.759 161.044 209.871 161.284H209.871Z" fill="#FFB7B7"/>
<path d="M254.028 106.771L220.576 148.762L210.379 144.08L249.699 82.8652L254.028 106.771Z" fill="#3F3D56"/>
<path d="M227.336 233.566L219.363 233.441L220.322 260.615H227.335L227.336 233.566Z" fill="#FFB7B7"/>
<path d="M229.126 258.325L215.315 258.325H215.315C212.981 258.325 210.742 259.252 209.092 260.903C207.441 262.553 206.514 264.792 206.514 267.126V267.412L229.125 267.413L229.126 258.325Z" fill="#2F2E41"/>
<path d="M280.123 226.359L271.414 231.95L288.835 252.909L294.737 249.12L280.123 226.359Z" fill="#FFB7B7"/>
<path d="M295.004 246.228L283.382 253.689L283.382 253.689C281.418 254.95 280.035 256.94 279.538 259.22C279.041 261.501 279.47 263.886 280.731 265.85L280.885 266.091L299.913 253.875L295.004 246.228Z" fill="#2F2E41"/>
<path d="M283.227 143.382C283.227 143.382 263.876 79.1105 257.658 78.242C251.439 77.3735 241.419 94.7333 241.419 94.7333C228.427 111.309 215.031 165.001 215.031 165.001C215.031 165.001 237.363 166.398 253.688 175.083C270.012 183.769 289.278 174.644 289.278 174.644L283.227 143.382Z" fill="#3F3D56"/>
<path opacity="0.1" d="M283.227 143.382C283.227 143.382 263.876 79.1107 257.658 78.2422C251.439 77.3736 243.964 94.9096 243.964 94.9096C237.49 121.666 215.031 165.001 215.031 165.001C215.031 165.001 237.363 166.398 253.688 175.084C270.012 183.769 289.278 174.644 289.278 174.644L283.227 143.382Z" fill="black"/>
<path d="M267.351 124.152V156.448L271.152 203.231L290.141 238.619L281.078 245.093L255.184 211.431L244.943 178.007L228.859 251.998L216.775 251.135L225.168 148.548L241.093 119.672L267.351 124.152Z" fill="#2F2E41"/>
<path d="M247.842 92.9153C241.801 98.9572 247.411 105.431 247.411 105.431L240.506 120.967L267.694 128.303L277.196 85.8471L270.722 78.9421C257.775 78.5105 257.768 78.2422 257.768 78.2422C255.5 80.4621 247.842 92.9153 247.842 92.9153Z" fill="#00B7AB"/>
<path d="M278.288 81.4488C277.053 80.5373 275.65 79.8798 274.159 79.5145C272.668 79.1493 271.12 79.0834 269.604 79.3207C268.087 79.5581 266.633 80.0939 265.325 80.8972C264.018 81.7006 262.882 82.7554 261.985 84.0006C255.15 93.5175 248.83 108.885 257.538 128.051C271.52 158.825 283.688 174.58 288.634 174.578C288.85 174.58 289.065 174.546 289.27 174.478C292.315 173.445 296.717 168.293 297.514 163.753C297.799 162.127 297.731 159.864 295.788 158.31C290.205 153.845 280.183 139.942 277.057 121.642C275.329 111.531 278.68 102.321 281.795 96.3745C283.111 93.9142 283.495 91.0622 282.879 88.3411C282.263 85.6201 280.686 83.2124 278.438 81.5594L278.288 81.4488Z" fill="#3F3D56"/>
<path d="M269.678 70.9764C275.22 67.9468 277.257 60.998 274.227 55.4558C271.198 49.9137 264.249 47.8769 258.707 50.9065C253.165 53.9361 251.128 60.8849 254.157 66.4271C257.187 71.9692 264.136 74.006 269.678 70.9764Z" fill="#FFB7B7"/>
<path d="M248.109 60.0765H264.623L264.793 57.7056L265.639 60.0765H268.182L268.518 55.3774L270.196 60.0765H275.116V59.8437C275.112 56.5722 273.811 53.4358 271.498 51.1226C269.185 48.8093 266.048 47.5081 262.777 47.5044H260.449C257.177 47.5081 254.041 48.8093 251.728 51.1226C249.414 53.4358 248.113 56.5722 248.109 59.8437V60.0765Z" fill="#2F2E41"/>
<path d="M272.621 68.5988L279.669 66.3121V49.1982H266.357L266.687 49.5273C271.272 54.1065 276.372 70.3532 272.621 68.5988Z" fill="#2F2E41"/>
</g>
<defs>
<clipPath id="clip0_2501_8202">
<rect width="352.248" height="268" fill="white" transform="translate(0.400391)"/>
</clipPath>
</defs>
</svg>
