<svg width="529" height="406" viewBox="0 0 529 406" fill="none" xmlns="http://www.w3.org/2000/svg">
<path d="M528.584 358.128H0V358.393H528.584V358.128Z" fill="#EBEBEB"/>
<path d="M475.62 368.192H379.523V368.457H475.62V368.192Z" fill="#EBEBEB"/>
<path d="M350.155 365.328H323.842V365.592H350.155V365.328Z" fill="#EBEBEB"/>
<path d="M410.298 378.014H369.502V378.278H410.298V378.014Z" fill="#EBEBEB"/>
<path d="M79.3933 376.238H55.459V376.502H79.3933V376.238Z" fill="#EBEBEB"/>
<path d="M117.23 376.238H88.8027V376.502H117.23V376.238Z" fill="#EBEBEB"/>
<path d="M238.022 371.776H188.504V372.041H238.022V371.776Z" fill="#EBEBEB"/>
<path d="M250.549 310.979H46.4204C44.8213 310.976 43.2886 310.339 42.1588 309.207C41.0291 308.075 40.3945 306.541 40.3945 304.942V17.9948C40.4085 16.4049 41.0491 14.8846 42.1774 13.7642C43.3056 12.6439 44.8304 12.014 46.4204 12.0112H250.549C252.15 12.0112 253.685 12.6472 254.818 13.7793C255.95 14.9113 256.586 16.4467 256.586 18.0477V304.942C256.586 306.543 255.95 308.078 254.818 309.211C253.685 310.343 252.15 310.979 250.549 310.979ZM46.4204 12.2227C44.8914 12.2255 43.4259 12.8348 42.3457 13.917C41.2655 14.9992 40.6588 16.4658 40.6588 17.9948V304.942C40.6588 306.471 41.2655 307.938 42.3457 309.02C43.4259 310.102 44.8914 310.711 46.4204 310.714H250.549C252.079 310.711 253.546 310.102 254.628 309.021C255.709 307.939 256.318 306.472 256.321 304.942V17.9948C256.318 16.4648 255.709 14.9983 254.628 13.9164C253.546 12.8345 252.079 12.2255 250.549 12.2227H46.4204Z" fill="#EBEBEB"/>
<path d="M479.225 310.979H275.085C273.485 310.976 271.951 310.339 270.82 309.207C269.689 308.076 269.052 306.542 269.049 304.942V17.9948C269.066 16.4039 269.709 14.8836 270.838 13.7636C271.968 12.6435 273.494 12.0139 275.085 12.0112H479.225C480.813 12.0167 482.335 12.6479 483.461 13.768C484.587 14.888 485.226 16.4067 485.24 17.9948V304.942C485.24 306.539 484.607 308.072 483.479 309.203C482.352 310.335 480.822 310.973 479.225 310.979ZM275.085 12.2227C273.555 12.2255 272.089 12.8345 271.007 13.9164C269.925 14.9983 269.316 16.4648 269.313 17.9948V304.942C269.316 306.472 269.925 307.939 271.007 309.021C272.089 310.102 273.555 310.711 275.085 310.714H479.225C480.755 310.711 482.221 310.102 483.303 309.021C484.385 307.939 484.994 306.472 484.997 304.942V17.9948C484.994 16.4648 484.385 14.9983 483.303 13.9164C482.221 12.8345 480.755 12.2255 479.225 12.2227H275.085Z" fill="#EBEBEB"/>
<path d="M453.706 230.961C452.14 230.967 450.581 231.169 449.065 231.564C447.566 229.524 445.666 227.811 443.482 226.53C441.298 225.25 438.876 224.428 436.363 224.115C433.851 223.802 431.301 224.005 428.87 224.712C426.439 225.418 424.177 226.613 422.223 228.223C419.017 222.806 414.178 218.544 408.399 216.048C402.62 213.552 396.199 212.951 390.058 214.331C383.916 215.71 378.369 219 374.213 223.727C370.057 228.455 367.505 234.377 366.923 240.645C363.594 239.905 360.135 239.981 356.842 240.867C353.548 241.753 350.518 243.423 348.01 245.733C345.502 248.044 343.589 250.927 342.436 254.137C341.283 257.346 340.924 260.787 341.389 264.166C341.853 267.544 343.128 270.76 345.105 273.54C347.082 276.319 349.702 278.578 352.741 280.126C355.78 281.673 359.148 282.463 362.558 282.427C365.969 282.391 369.319 281.53 372.325 279.919C373.67 284.778 376.443 289.12 380.284 292.385C384.126 295.649 388.859 297.685 393.871 298.229C398.883 298.772 403.943 297.798 408.395 295.432C412.847 293.067 416.486 289.419 418.841 284.962C422.875 288.405 427.802 290.636 433.051 291.396C438.3 292.156 443.658 291.414 448.503 289.256C453.348 287.098 457.484 283.613 460.43 279.203C463.377 274.793 465.015 269.638 465.155 264.336C468.235 261.96 470.494 258.679 471.614 254.953C472.734 251.228 472.66 247.245 471.402 243.564C470.144 239.883 467.765 236.689 464.599 234.428C461.433 232.168 457.638 230.956 453.748 230.961H453.706Z" fill="#F5F5F5"/>
<path d="M76.824 119.124C74.4505 118.089 71.7632 118.039 69.3527 118.984C66.9422 119.93 65.0057 121.794 63.9689 124.166C62.7834 123.572 61.4893 123.225 60.1654 123.147C58.8415 123.069 57.5156 123.261 56.2685 123.712C55.0214 124.163 53.8791 124.864 52.9114 125.77C51.9437 126.677 51.1707 127.772 50.6397 128.987C50.1086 130.202 49.8306 131.513 49.8224 132.839C49.8143 134.165 50.0764 135.479 50.5925 136.7C51.1087 137.922 51.8682 139.026 52.8247 139.944C53.7813 140.863 54.9149 141.577 56.1564 142.043L74.0543 149.856L81.8667 131.958C82.8979 129.587 82.9461 126.904 82.0006 124.497C81.0551 122.091 79.1933 120.158 76.824 119.124Z" fill="#F5F5F5"/>
<path d="M160.278 33.8525C159.879 33.0933 159.335 32.4201 158.676 31.8715C158.017 31.3229 157.256 30.9096 156.437 30.6553C155.618 30.401 154.757 30.3107 153.904 30.3894C153.05 30.4682 152.22 30.7146 151.461 31.1144C150.626 29.6339 149.246 28.5374 147.615 28.0578C145.983 27.5782 144.23 27.7534 142.726 28.546C141.222 29.3386 140.086 30.6863 139.559 32.3028C139.033 33.9194 139.157 35.6775 139.906 37.2037L145.996 48.7586L157.519 42.6693C158.28 42.2725 158.955 41.7295 159.506 41.0713C160.056 40.4131 160.472 39.6526 160.728 38.8336C160.985 38.0145 161.077 37.1529 160.999 36.2982C160.922 35.4434 160.677 34.6123 160.278 33.8525Z" fill="#E6E6E6"/>
<path d="M426.038 7.6135C425.639 6.85519 425.094 6.18306 424.434 5.63552C423.775 5.08799 423.014 4.67578 422.195 4.42248C421.377 4.16917 420.516 4.07973 419.662 4.15926C418.809 4.2388 417.98 4.48575 417.222 4.886C416.823 4.12522 416.279 3.45036 415.62 2.89996C414.96 2.34957 414.199 1.93441 413.379 1.67819C412.56 1.42198 411.698 1.32972 410.842 1.40669C409.987 1.48366 409.155 1.72836 408.394 2.1268C407.634 2.52524 406.959 3.06962 406.408 3.72887C405.858 4.38812 405.443 5.14932 405.187 5.96902C404.93 6.78872 404.838 7.65085 404.915 8.5062C404.992 9.36155 405.237 10.1934 405.635 10.9542L411.724 22.4984L423.269 16.4197C424.801 15.616 425.952 14.2385 426.471 12.5882C426.99 10.938 426.835 9.14938 426.038 7.6135Z" fill="#F5F5F5"/>
<path d="M468.325 198.676C468.124 197.411 467.431 196.277 466.397 195.522C465.363 194.768 464.072 194.453 462.806 194.648C462.557 193.434 461.85 192.363 460.831 191.657C459.813 190.951 458.562 190.664 457.338 190.856C456.114 191.048 455.011 191.703 454.257 192.687C453.504 193.671 453.158 194.907 453.292 196.138L454.782 205.653L464.297 204.162C465.556 203.964 466.687 203.277 467.441 202.249C468.196 201.221 468.513 199.937 468.325 198.676Z" fill="#EBEBEB"/>
<path d="M370.568 116.946C370.074 116.791 369.553 116.734 369.036 116.78C368.519 116.826 368.017 116.974 367.557 117.214C367.098 117.455 366.69 117.784 366.358 118.182C366.025 118.581 365.775 119.041 365.621 119.536C365.125 119.381 364.604 119.326 364.087 119.372C363.57 119.419 363.067 119.567 362.607 119.808C362.147 120.049 361.739 120.378 361.406 120.777C361.074 121.176 360.823 121.636 360.668 122.132C360.513 122.627 360.458 123.148 360.504 123.666C360.551 124.183 360.699 124.686 360.94 125.145C361.181 125.605 361.51 126.013 361.909 126.346C362.308 126.679 362.768 126.93 363.263 127.084L370.812 129.442L373.169 121.894C373.48 120.893 373.381 119.809 372.893 118.882C372.405 117.954 371.569 117.258 370.568 116.946Z" fill="#F5F5F5"/>
<path d="M77.5847 20.4687C76.5823 20.1576 75.4975 20.2567 74.5681 20.7442C73.6386 21.2317 72.9404 22.0678 72.6266 23.0693C72.1317 22.9152 71.6112 22.8601 71.095 22.9072C70.5788 22.9542 70.0769 23.1024 69.6179 23.3434C69.159 23.5844 68.752 23.9135 68.4203 24.3118C68.0885 24.71 67.8384 25.1698 67.6843 25.6647C67.5302 26.1596 67.4751 26.6801 67.5221 27.1963C67.5692 27.7125 67.7174 28.2144 67.9584 28.6733C68.1994 29.1323 68.5285 29.5392 68.9267 29.871C69.325 30.2028 69.7847 30.4529 70.2797 30.607L77.8173 32.9644L80.1748 25.4163C80.3303 24.9214 80.3867 24.4006 80.3407 23.8839C80.2946 23.3672 80.1471 22.8646 79.9065 22.405C79.6659 21.9454 79.3369 21.5378 78.9385 21.2055C78.5401 20.8732 78.08 20.6229 77.5847 20.4687Z" fill="#F5F5F5"/>
<path d="M195.48 196.931C195.474 190.635 193.126 184.566 188.894 179.905C184.662 175.243 178.848 172.321 172.582 171.707C169.454 164.675 164.526 158.592 158.295 154.073C152.065 149.553 144.752 146.757 137.096 145.967C129.44 145.177 121.71 146.42 114.688 149.571C107.666 152.723 101.599 157.671 97.1003 163.916C93.3708 161.197 88.8905 159.701 84.2758 159.634C79.6612 159.566 75.1389 160.93 71.3313 163.538C67.5237 166.146 64.6178 169.87 63.0134 174.197C61.409 178.524 61.1851 183.242 62.3723 187.702C58.8449 190.673 55.964 194.334 53.9075 198.462C51.851 202.589 50.6626 207.095 50.4156 211.699C50.1686 216.304 50.8684 220.911 52.4716 225.234C54.0748 229.558 56.5475 233.507 59.7369 236.838C62.9263 240.168 66.7647 242.81 71.0149 244.599C75.2652 246.388 79.8371 247.286 84.4483 247.239C89.0594 247.191 93.6119 246.199 97.8245 244.323C102.037 242.447 105.82 239.727 108.941 236.332C113.093 241.728 118.699 245.826 125.1 248.146C131.501 250.465 138.431 250.909 145.076 249.426C151.72 247.943 157.804 244.594 162.611 239.772C167.418 234.951 170.749 228.857 172.212 222.208C178.554 221.681 184.466 218.789 188.775 214.107C193.085 209.425 195.478 203.295 195.48 196.931Z" fill="#EBEBEB"/>
<path d="M366.627 78C366.63 73.7326 368.221 69.619 371.089 66.4594C373.958 63.2999 377.899 61.3202 382.146 60.9056C384.254 56.1287 387.588 51.9944 391.81 48.9222C396.032 45.8499 400.991 43.949 406.184 43.4122C411.378 42.8755 416.621 43.722 421.382 45.8659C426.143 48.0099 430.252 51.375 433.292 55.6197C435.821 53.7907 438.853 52.788 441.974 52.7488C445.095 52.7096 448.151 53.6359 450.725 55.4009C453.299 57.1659 455.265 59.6832 456.353 62.6084C457.441 65.5335 457.598 68.7235 456.804 71.7415C459.203 73.7514 461.165 76.2327 462.566 79.0316C463.967 81.8306 464.779 84.8876 464.95 88.0131C465.121 91.1386 464.649 94.266 463.562 97.2013C462.475 100.137 460.796 102.817 458.631 105.078C456.465 107.338 453.858 109.129 450.972 110.34C448.085 111.551 444.981 112.156 441.851 112.118C438.721 112.08 435.632 111.4 432.776 110.119C429.92 108.838 427.357 106.984 425.247 104.672C422.439 108.331 418.644 111.113 414.309 112.69C409.975 114.267 405.28 114.574 400.777 113.575C396.274 112.575 392.149 110.312 388.888 107.049C385.627 103.787 383.365 99.6614 382.368 95.1578C378.069 94.7968 374.064 92.8315 371.147 89.6527C368.231 86.4738 366.617 82.314 366.627 78Z" fill="#F0F0F0"/>
<path d="M264.293 405.87C377.497 405.87 469.267 400.512 469.267 393.903C469.267 387.294 377.497 381.936 264.293 381.936C151.089 381.936 59.3184 387.294 59.3184 393.903C59.3184 400.512 151.089 405.87 264.293 405.87Z" fill="#F5F5F5"/>
<path d="M143.892 366.956H86.4556C85.1106 366.942 83.8253 366.398 82.8792 365.442C81.933 364.486 81.4023 363.195 81.4023 361.85V338.285C81.4049 337.082 81.8316 335.918 82.6075 334.998L147.518 257.824C147.998 257.255 148.597 256.797 149.272 256.483C149.948 256.169 150.684 256.006 151.429 256.006H176.304C177.659 256.006 178.957 256.544 179.915 257.501C180.873 258.459 181.41 259.758 181.41 261.112V332.999C181.41 334.354 181.948 335.652 182.906 336.61C183.864 337.568 185.162 338.106 186.517 338.106H193.082C194.436 338.106 195.735 338.644 196.692 339.601C197.65 340.559 198.188 341.857 198.188 343.212V361.807C198.188 363.162 197.65 364.46 196.692 365.418C195.735 366.375 194.436 366.913 193.082 366.913H186.517C185.162 366.913 183.864 367.451 182.906 368.409C181.948 369.367 181.41 370.665 181.41 372.02V386.82C181.41 388.174 180.873 389.473 179.915 390.43C178.957 391.388 177.659 391.926 176.304 391.926H154.104C152.75 391.926 151.451 391.388 150.493 390.43C149.536 389.473 148.998 388.174 148.998 386.82V372.02C148.987 370.673 148.444 369.385 147.487 368.436C146.531 367.488 145.239 366.956 143.892 366.956ZM148.998 334.575V305.82C149.01 305.077 148.79 304.349 148.37 303.737C147.949 303.125 147.348 302.659 146.65 302.405C145.952 302.15 145.193 302.119 144.477 302.316C143.761 302.513 143.124 302.929 142.655 303.504L118.224 332.259C117.782 332.779 117.498 333.414 117.405 334.089C117.313 334.765 117.415 335.453 117.701 336.072C117.986 336.691 118.443 337.215 119.017 337.583C119.591 337.951 120.259 338.147 120.94 338.148H145.382C145.855 338.153 146.324 338.065 146.763 337.888C147.201 337.711 147.6 337.449 147.936 337.116C148.273 336.784 148.54 336.388 148.722 335.952C148.904 335.516 148.998 335.047 148.998 334.575Z" fill="#263238"/>
<path d="M209.711 324.574C209.711 299.202 214.292 281.424 223.454 271.24C232.616 261.055 246.546 255.981 265.244 256.016C274.237 256.016 281.637 257.126 287.445 259.346C292.693 261.24 297.5 264.186 301.568 268.005C304.999 271.275 307.905 275.055 310.184 279.211C312.443 283.561 314.144 288.178 315.248 292.954C317.771 303.153 319.028 313.623 318.991 324.13C318.991 348.381 314.885 366.127 306.675 377.369C298.464 388.61 284.337 394.248 264.293 394.283C253.016 394.283 243.928 392.49 237.028 388.902C229.998 385.257 224.079 379.787 219.892 373.066C216.664 368.133 214.155 361.402 212.365 352.874C210.512 343.557 209.623 334.073 209.711 324.574ZM246.543 324.658C246.543 341.679 248.048 353.308 251.057 359.545C254.066 365.782 258.425 368.901 264.134 368.901C265.949 368.918 267.75 368.576 269.432 367.894C271.114 367.211 272.644 366.203 273.934 364.926C276.704 362.283 278.741 358.104 280.045 352.388C281.348 346.672 282 337.771 282 325.684C282 307.944 280.496 296.02 277.486 289.909C274.477 283.799 269.966 280.743 263.954 280.743C257.809 280.743 253.372 283.859 250.645 290.089C247.917 296.319 246.55 307.842 246.543 324.658Z" fill="#263238"/>
<path d="M392.94 366.956H335.514C334.16 366.956 332.861 366.418 331.904 365.46C330.946 364.503 330.408 363.204 330.408 361.85V338.285C330.408 337.083 330.831 335.919 331.603 334.998L396.524 257.824C397.002 257.255 397.599 256.797 398.273 256.483C398.947 256.169 399.681 256.006 400.424 256.006H425.31C426.664 256.006 427.963 256.544 428.921 257.501C429.878 258.459 430.416 259.758 430.416 261.112V332.999C430.411 333.676 430.54 334.347 430.796 334.974C431.052 335.6 431.43 336.17 431.908 336.649C432.386 337.128 432.955 337.507 433.581 337.764C434.207 338.022 434.877 338.152 435.554 338.148H442.109C443.463 338.148 444.762 338.686 445.719 339.643C446.677 340.601 447.215 341.9 447.215 343.254V361.85C447.215 363.204 446.677 364.503 445.719 365.46C444.762 366.418 443.463 366.956 442.109 366.956H435.554C434.2 366.956 432.901 367.494 431.944 368.451C430.986 369.409 430.448 370.708 430.448 372.062V386.862C430.448 388.216 429.91 389.515 428.953 390.473C427.995 391.43 426.696 391.968 425.342 391.968H403.141C401.787 391.968 400.488 391.43 399.531 390.473C398.573 389.515 398.035 388.216 398.035 386.862V372.062C398.035 370.709 397.499 369.412 396.543 368.455C395.588 367.498 394.292 366.959 392.94 366.956ZM398.046 334.575V305.82C398.045 305.09 397.82 304.377 397.402 303.779C396.984 303.18 396.392 302.724 395.707 302.472C395.022 302.22 394.276 302.184 393.569 302.368C392.863 302.553 392.23 302.949 391.756 303.504L367.314 332.259C366.873 332.777 366.59 333.41 366.496 334.084C366.403 334.758 366.504 335.444 366.787 336.062C367.07 336.68 367.523 337.205 368.094 337.575C368.665 337.944 369.33 338.143 370.01 338.148H394.441C394.913 338.152 395.381 338.063 395.818 337.885C396.255 337.707 396.653 337.445 396.988 337.113C397.323 336.78 397.589 336.385 397.771 335.949C397.952 335.514 398.046 335.047 398.046 334.575Z" fill="#263238"/>
<path d="M166.843 269.833C165.859 271.948 164.823 273.851 163.819 275.817L160.859 281.684L157.899 287.573C156.905 289.55 155.88 291.527 154.664 293.472C154.846 291.206 155.282 288.969 155.964 286.801C156.613 284.618 157.451 282.495 158.47 280.458C159.484 278.419 160.688 276.479 162.064 274.665C163.425 272.84 165.033 271.214 166.843 269.833Z" fill="white"/>
<path d="M170.607 274.802C169.687 276.631 168.735 278.354 167.805 280.088L165.067 285.268L162.329 290.469C161.409 292.214 160.468 293.969 159.348 295.681C159.545 293.664 159.967 291.675 160.606 289.751C161.224 287.823 162.005 285.952 162.942 284.158C163.876 282.356 164.985 280.649 166.251 279.063C167.494 277.444 168.961 276.01 170.607 274.802Z" fill="white"/>
<path d="M160.331 267.751C159.517 269.654 158.65 271.44 157.804 273.238L155.32 278.619L152.836 284.01C151.99 285.818 151.134 287.636 150.098 289.423C150.195 287.376 150.524 285.348 151.081 283.376C151.611 281.396 152.318 279.467 153.195 277.614C154.047 275.761 155.07 273.992 156.25 272.329C157.395 270.624 158.768 269.084 160.331 267.751Z" fill="white"/>
<path d="M402.781 348.096C404.59 349.489 406.198 351.125 407.56 352.959C408.964 354.774 410.196 356.717 411.239 358.763C412.251 360.801 413.086 362.923 413.734 365.106C414.414 367.274 414.854 369.511 415.044 371.776C413.818 369.831 412.803 367.854 411.799 365.877L408.839 359.989L405.879 354.122C404.832 352.113 403.838 350.168 402.781 348.096Z" fill="white"/>
<path d="M399.061 353.064C400.696 354.267 402.159 355.69 403.405 357.293C404.673 358.883 405.781 360.593 406.714 362.399C407.66 364.189 408.442 366.061 409.051 367.992C409.698 369.914 410.123 371.904 410.319 373.922C409.199 372.21 408.258 370.455 407.328 368.711L404.59 363.509L401.851 358.329C400.921 356.648 399.97 354.893 399.061 353.064Z" fill="white"/>
<path d="M409.326 346.013C410.909 347.332 412.303 348.862 413.47 350.559C414.651 352.22 415.671 353.99 416.515 355.845C417.387 357.7 418.095 359.628 418.629 361.606C419.181 363.579 419.51 365.607 419.612 367.653C418.555 365.856 417.71 364.048 416.874 362.241L414.39 356.839L411.906 351.468C411.018 349.703 410.182 347.916 409.326 346.013Z" fill="white"/>
<path d="M316.221 378.447H330.26V382.021H321.475V384.716H329.626V388.173H321.475V391.535H330.514V395.373H316.221V378.447Z" fill="#00B7AB"/>
<path d="M330.513 397.445H316.22C315.679 397.445 315.16 397.23 314.777 396.847C314.395 396.464 314.18 395.945 314.18 395.404V378.49C314.178 378.221 314.23 377.955 314.332 377.707C314.434 377.459 314.584 377.233 314.774 377.044C314.964 376.854 315.189 376.704 315.438 376.602C315.686 376.5 315.952 376.448 316.22 376.449H330.259C330.528 376.448 330.794 376.5 331.042 376.602C331.29 376.704 331.515 376.854 331.705 377.044C331.895 377.233 332.045 377.459 332.147 377.707C332.249 377.955 332.301 378.221 332.3 378.49V382.021C331.874 382.308 331.573 382.745 331.455 383.244C331.337 383.744 331.413 384.27 331.665 384.716V388.173C331.43 388.427 331.263 388.736 331.179 389.072C331.095 389.407 331.098 389.759 331.186 390.093C331.275 390.428 331.447 390.735 331.686 390.985C331.925 391.235 332.223 391.421 332.553 391.524V395.362C332.559 395.633 332.51 395.903 332.41 396.156C332.31 396.408 332.161 396.638 331.971 396.832C331.781 397.026 331.554 397.18 331.304 397.285C331.053 397.391 330.785 397.445 330.513 397.445ZM318.26 393.364H320.512C320.189 393.189 319.92 392.929 319.734 392.612C319.547 392.296 319.451 391.934 319.455 391.567V388.216C319.745 388.03 319.984 387.775 320.15 387.473C320.315 387.17 320.402 386.832 320.402 386.487C320.402 386.143 320.315 385.804 320.15 385.502C319.984 385.2 319.745 384.944 319.455 384.759V382.021C319.455 381.719 319.523 381.421 319.652 381.148C319.782 380.876 319.971 380.636 320.206 380.445H318.282L318.26 393.364Z" fill="#00B7AB"/>
<path d="M333.41 395.404V378.49H342.142C343.393 378.445 344.643 378.584 345.853 378.902C346.714 379.159 347.46 379.704 347.967 380.445C348.343 380.983 348.604 381.593 348.734 382.237C348.864 382.88 348.86 383.543 348.722 384.185C348.584 384.827 348.315 385.433 347.933 385.967C347.55 386.5 347.062 386.949 346.498 387.285C345.925 387.607 345.304 387.835 344.658 387.962C345.14 388.104 345.6 388.314 346.022 388.586C346.335 388.847 346.616 389.145 346.857 389.474C347.134 389.804 347.382 390.158 347.597 390.531L350.135 395.447H344.214L341.413 390.266C341.188 389.769 340.864 389.323 340.461 388.956C340.087 388.694 339.639 388.557 339.182 388.564H338.717V395.447L333.41 395.404ZM338.696 385.319H340.905C341.373 385.279 341.836 385.201 342.29 385.086C342.634 385.021 342.939 384.828 343.147 384.547C343.389 384.213 343.503 383.803 343.468 383.391C343.433 382.98 343.251 382.595 342.956 382.306C342.368 381.954 341.682 381.802 341.001 381.873H338.696V385.319Z" fill="#00B7AB"/>
<path d="M350.091 397.445H344.171C343.804 397.445 343.444 397.348 343.128 397.162C342.812 396.976 342.552 396.708 342.374 396.388L340.714 393.301V395.415C340.711 395.955 340.496 396.473 340.114 396.855C339.731 397.237 339.214 397.453 338.674 397.455H333.388C333.12 397.455 332.855 397.403 332.607 397.3C332.36 397.198 332.135 397.047 331.945 396.858C331.756 396.668 331.606 396.443 331.503 396.196C331.4 395.948 331.348 395.683 331.348 395.415V378.5C331.346 378.232 331.398 377.966 331.5 377.718C331.602 377.47 331.752 377.244 331.942 377.054C332.132 376.865 332.357 376.714 332.606 376.612C332.854 376.51 333.12 376.459 333.388 376.46H342.12C343.586 376.41 345.052 376.585 346.465 376.978C347.731 377.381 348.825 378.196 349.573 379.293C350.358 380.444 350.761 381.812 350.726 383.205C350.748 384.418 350.445 385.616 349.848 386.672C349.485 387.295 349.021 387.852 348.474 388.321C348.809 388.728 349.103 389.167 349.351 389.632L351.878 394.516C352.039 394.827 352.118 395.174 352.107 395.524C352.095 395.875 351.994 396.216 351.812 396.515C351.63 396.815 351.375 397.062 351.07 397.234C350.765 397.407 350.42 397.497 350.07 397.498L350.091 397.445ZM345.387 393.364H346.751L345.693 391.429C345.553 391.171 345.383 390.929 345.186 390.711C345.038 390.521 344.88 390.341 344.71 390.171C344.461 390.038 344.199 389.932 343.928 389.854C343.667 389.764 343.427 389.624 343.22 389.442L345.387 393.364ZM335.45 393.364H336.634V388.522C336.633 388.213 336.704 387.907 336.839 387.629C336.975 387.35 337.172 387.106 337.416 386.915C337.172 386.727 336.975 386.485 336.84 386.208C336.704 385.931 336.633 385.627 336.634 385.319V381.873C336.634 381.36 336.826 380.866 337.173 380.488H335.45V393.364ZM341.645 387.285C342.028 387.582 342.36 387.939 342.628 388.343C342.589 388.166 342.571 387.985 342.575 387.803C342.594 387.544 342.659 387.29 342.765 387.053H342.67C342.268 387.18 341.93 387.243 341.645 387.307V387.285ZM344.002 380.572L344.245 380.752C344.652 381.096 344.976 381.528 345.192 382.015C345.408 382.502 345.511 383.032 345.493 383.564C345.498 384.362 345.238 385.14 344.753 385.774C344.979 385.712 345.196 385.62 345.397 385.499C345.791 385.27 346.122 384.947 346.359 384.558C346.587 384.125 346.697 383.64 346.677 383.152C346.705 382.595 346.557 382.044 346.254 381.577C346.004 381.2 345.63 380.923 345.197 380.794C344.806 380.685 344.406 380.611 344.002 380.572Z" fill="#00B7AB"/>
<path d="M351.836 395.404V378.49H360.568C361.822 378.445 363.076 378.583 364.289 378.902C365.151 379.158 365.898 379.703 366.404 380.446C366.78 380.984 367.041 381.593 367.17 382.237C367.3 382.88 367.296 383.544 367.158 384.185C367.02 384.827 366.752 385.434 366.369 385.967C365.986 386.5 365.498 386.949 364.934 387.285C364.361 387.607 363.74 387.836 363.095 387.962C363.577 388.104 364.036 388.314 364.459 388.586C364.776 388.846 365.06 389.144 365.304 389.474C365.575 389.806 365.819 390.16 366.034 390.531L368.571 395.447H362.608L359.807 390.267C359.586 389.767 359.262 389.321 358.856 388.956C358.483 388.69 358.034 388.553 357.576 388.565H357.111V395.447L351.836 395.404ZM357.122 385.319H359.331C359.798 385.28 360.262 385.202 360.716 385.087C361.059 385.021 361.365 384.829 361.572 384.547C361.793 384.268 361.908 383.92 361.9 383.564C361.914 383.329 361.875 383.094 361.785 382.876C361.695 382.658 361.558 382.463 361.382 382.306C360.794 381.954 360.108 381.802 359.426 381.873H357.122V385.319Z" fill="#00B7AB"/>
<path d="M368.518 397.444H362.609C362.242 397.445 361.882 397.347 361.566 397.161C361.25 396.975 360.989 396.708 360.811 396.387L359.152 393.3V395.415C359.152 395.956 358.937 396.475 358.554 396.857C358.171 397.24 357.652 397.455 357.111 397.455H351.825C351.285 397.452 350.768 397.236 350.386 396.854C350.004 396.472 349.788 395.955 349.785 395.415V378.5C349.785 377.959 350 377.44 350.383 377.057C350.765 376.675 351.284 376.46 351.825 376.46H360.558C362.024 376.409 363.489 376.584 364.903 376.978C366.173 377.378 367.271 378.193 368.021 379.293C368.73 380.387 369.13 381.653 369.176 382.956C369.223 384.26 368.915 385.551 368.286 386.693C367.923 387.313 367.463 387.87 366.922 388.342C367.253 388.752 367.547 389.191 367.799 389.653L370.315 394.537C370.477 394.848 370.556 395.195 370.544 395.545C370.533 395.895 370.431 396.237 370.25 396.536C370.068 396.836 369.812 397.083 369.507 397.255C369.202 397.427 368.858 397.518 368.508 397.518L368.518 397.444ZM363.814 393.364H365.178L364.173 391.429C364.021 391.175 363.848 390.935 363.655 390.71C363.516 390.515 363.356 390.334 363.179 390.171C362.931 390.038 362.668 389.932 362.397 389.854C362.14 389.763 361.903 389.623 361.699 389.442L363.814 393.364ZM353.876 393.364H355.06V388.522C355.06 388.212 355.131 387.907 355.266 387.628C355.402 387.35 355.599 387.106 355.843 386.915C355.599 386.726 355.402 386.484 355.266 386.208C355.131 385.931 355.06 385.627 355.06 385.319V381.872C355.06 381.358 355.257 380.862 355.61 380.487H353.876V393.364ZM360.071 387.306C360.455 387.602 360.787 387.96 361.055 388.363C361.028 388.185 361.028 388.003 361.055 387.824C361.065 387.565 361.126 387.31 361.234 387.074H361.15C360.695 387.179 360.357 387.243 360.071 387.306ZM362.439 380.593L362.672 380.773C363.079 381.117 363.403 381.548 363.619 382.035C363.835 382.523 363.938 383.052 363.919 383.585C363.925 384.383 363.665 385.161 363.179 385.795C363.409 385.733 363.63 385.64 363.835 385.52C364.226 385.291 364.553 384.967 364.786 384.579C365.014 384.146 365.124 383.661 365.104 383.173C365.132 382.616 364.984 382.065 364.681 381.598C364.431 381.221 364.057 380.944 363.623 380.815C363.237 380.7 362.841 380.618 362.439 380.572V380.593Z" fill="#00B7AB"/>
<path d="M369.13 386.936C369.014 385.755 369.161 384.564 369.56 383.447C369.959 382.329 370.6 381.314 371.438 380.474C372.276 379.634 373.29 378.991 374.406 378.589C375.522 378.187 376.713 378.038 377.894 378.151C379.078 378.076 380.265 378.238 381.386 378.628C382.506 379.019 383.537 379.629 384.417 380.424C385.205 381.273 385.813 382.273 386.206 383.363C386.598 384.453 386.767 385.61 386.701 386.767C386.766 388.448 386.425 390.119 385.707 391.641C385.054 392.891 384.046 393.92 382.81 394.601C381.356 395.353 379.732 395.717 378.095 395.658C376.465 395.712 374.843 395.401 373.349 394.749C372.064 394.113 371.003 393.103 370.304 391.852C369.48 390.348 369.074 388.65 369.13 386.936ZM374.416 386.936C374.301 388.239 374.637 389.541 375.368 390.626C375.705 390.976 376.11 391.255 376.558 391.446C377.005 391.637 377.487 391.735 377.974 391.735C378.46 391.735 378.942 391.637 379.39 391.446C379.838 391.255 380.242 390.976 380.58 390.626C381.318 389.45 381.645 388.064 381.51 386.682C381.609 385.438 381.265 384.198 380.537 383.183C380.205 382.825 379.798 382.544 379.345 382.362C378.891 382.179 378.403 382.098 377.916 382.126C377.435 382.108 376.957 382.2 376.518 382.394C376.078 382.588 375.689 382.88 375.378 383.247C374.622 384.329 374.267 385.641 374.374 386.957L374.416 386.936Z" fill="#00B7AB"/>
<path d="M378.097 397.73C376.158 397.785 374.232 397.402 372.462 396.609C370.815 395.804 369.451 394.517 368.551 392.92C367.53 391.095 367.026 389.026 367.092 386.936C367.168 384.796 367.854 382.723 369.068 380.959C370.283 379.196 371.975 377.815 373.947 376.981C375.919 376.146 378.088 375.891 380.199 376.246C382.311 376.602 384.277 377.552 385.867 378.986C386.854 380.025 387.62 381.252 388.117 382.595C388.615 383.938 388.835 385.368 388.764 386.799C388.829 388.812 388.405 390.811 387.527 392.624C386.695 394.224 385.407 395.541 383.827 396.409C382.063 397.336 380.089 397.792 378.097 397.73ZM379.524 380.297C380.501 380.565 381.377 381.117 382.04 381.883C383.112 383.26 383.636 384.985 383.51 386.725C383.51 389.146 383.055 390.858 382.114 392.011C381.51 392.726 380.72 393.261 379.831 393.554C380.531 393.452 381.207 393.226 381.829 392.888C382.728 392.409 383.464 391.673 383.943 390.774C384.51 389.547 384.775 388.202 384.715 386.852C384.781 385.959 384.665 385.062 384.374 384.215C384.083 383.368 383.624 382.589 383.023 381.925C382.07 381.009 380.839 380.436 379.524 380.297ZM376.257 380.297C374.991 380.45 373.81 381.015 372.896 381.904C372.285 382.582 371.819 383.376 371.525 384.24C371.23 385.103 371.114 386.016 371.183 386.926C371.123 388.286 371.43 389.636 372.071 390.837C372.563 391.749 373.323 392.487 374.249 392.952C374.79 393.206 375.362 393.388 375.951 393.491C375.109 393.184 374.362 392.663 373.784 391.979C372.841 390.474 372.341 388.734 372.341 386.958C372.341 385.181 372.841 383.441 373.784 381.936C374.427 381.163 375.284 380.597 376.247 380.308L376.257 380.297ZM377.885 384.156C377.7 384.137 377.512 384.164 377.339 384.234C377.166 384.304 377.012 384.415 376.892 384.558C376.487 385.285 376.324 386.121 376.427 386.947C376.324 387.766 376.487 388.596 376.892 389.315C377.022 389.463 377.186 389.577 377.37 389.648C377.554 389.718 377.753 389.741 377.949 389.717C378.689 389.717 378.9 389.474 379.006 389.347C379.112 389.22 379.45 388.755 379.45 386.714C379.534 385.977 379.37 385.234 378.985 384.6C378.852 384.438 378.681 384.311 378.487 384.23C378.294 384.149 378.084 384.116 377.875 384.135L377.885 384.156Z" fill="#00B7AB"/>
<path d="M389.598 395.404V378.49H398.33C399.58 378.445 400.83 378.584 402.041 378.902C402.901 379.159 403.648 379.704 404.155 380.445C404.531 380.983 404.792 381.593 404.921 382.237C405.051 382.88 405.047 383.543 404.909 384.185C404.771 384.827 404.503 385.433 404.12 385.967C403.738 386.5 403.249 386.949 402.685 387.285C402.112 387.607 401.491 387.835 400.846 387.962C401.328 388.104 401.787 388.314 402.21 388.586C402.523 388.847 402.803 389.145 403.045 389.474C403.322 389.804 403.569 390.158 403.785 390.531L406.322 395.447H400.402L397.6 390.266C397.376 389.769 397.052 389.323 396.649 388.956C396.274 388.694 395.827 388.557 395.37 388.564H394.905V395.447L389.598 395.404ZM394.884 385.319H397.093C397.56 385.279 398.023 385.201 398.478 385.086C398.821 385.021 399.127 384.828 399.334 384.547C399.576 384.213 399.69 383.803 399.655 383.391C399.62 382.98 399.439 382.595 399.144 382.306C398.556 381.954 397.87 381.802 397.188 381.873H394.884V385.319Z" fill="#00B7AB"/>
<path d="M406.281 397.445H400.361C399.994 397.445 399.634 397.348 399.318 397.162C399.002 396.976 398.741 396.708 398.563 396.388L396.904 393.301V395.415C396.901 395.955 396.685 396.473 396.303 396.855C395.921 397.237 395.404 397.453 394.863 397.455H389.577C389.036 397.455 388.517 397.24 388.135 396.858C387.752 396.475 387.537 395.956 387.537 395.415V378.5C387.536 378.232 387.588 377.966 387.69 377.718C387.792 377.47 387.942 377.244 388.132 377.054C388.321 376.865 388.547 376.714 388.795 376.612C389.043 376.51 389.309 376.459 389.577 376.46H398.31C399.776 376.41 401.241 376.585 402.655 376.978C403.92 377.381 405.014 378.196 405.763 379.293C406.551 380.443 406.958 381.811 406.926 383.205C406.946 384.419 406.64 385.617 406.038 386.672C405.675 387.295 405.21 387.852 404.663 388.321C404.998 388.728 405.292 389.167 405.541 389.632L408.067 394.516C408.229 394.827 408.308 395.174 408.296 395.524C408.285 395.875 408.183 396.216 408.002 396.515C407.82 396.815 407.564 397.062 407.259 397.234C406.954 397.407 406.61 397.497 406.26 397.498L406.281 397.445ZM401.576 393.364H402.93L401.936 391.429C401.784 391.176 401.61 390.935 401.418 390.711C401.27 390.521 401.111 390.341 400.942 390.171C400.693 390.038 400.431 389.932 400.16 389.854C399.899 389.764 399.658 389.624 399.451 389.442L401.576 393.364ZM391.639 393.364H392.823V388.522C392.823 388.213 392.893 387.907 393.029 387.629C393.164 387.35 393.362 387.106 393.605 386.915C393.362 386.727 393.165 386.485 393.029 386.208C392.893 385.931 392.823 385.627 392.823 385.319V381.873C392.819 381.359 393.012 380.864 393.362 380.488H391.639V393.364ZM397.834 387.285C398.217 387.582 398.55 387.939 398.817 388.343C398.791 388.164 398.791 387.982 398.817 387.803C398.828 387.544 398.889 387.289 398.997 387.053H398.902C398.458 387.18 398.119 387.243 397.834 387.307V387.285ZM400.202 380.572L400.435 380.752C400.842 381.096 401.166 381.528 401.382 382.015C401.598 382.502 401.701 383.032 401.682 383.564C401.688 384.362 401.427 385.14 400.942 385.774C401.609 385.586 402.18 385.151 402.538 384.558C402.768 384.091 402.88 383.575 402.863 383.055C402.847 382.536 402.702 382.028 402.443 381.577C402.194 381.2 401.819 380.923 401.386 380.794C400.999 380.686 400.602 380.612 400.202 380.572Z" fill="#00B7AB"/>
<path d="M316.221 378.447H330.26V382.021H321.475V384.716H329.626V388.173H321.475V391.535H330.514V395.373H316.221V378.447Z" fill="white"/>
<path d="M333.41 395.404V378.49H342.142C343.393 378.445 344.643 378.584 345.853 378.902C346.714 379.159 347.46 379.704 347.967 380.445C348.343 380.983 348.604 381.593 348.734 382.237C348.864 382.88 348.86 383.543 348.722 384.185C348.584 384.827 348.315 385.433 347.933 385.967C347.55 386.5 347.062 386.949 346.498 387.285C345.925 387.607 345.304 387.835 344.658 387.962C345.14 388.104 345.6 388.314 346.022 388.586C346.335 388.847 346.616 389.145 346.857 389.474C347.134 389.804 347.382 390.158 347.597 390.531L350.135 395.447H344.214L341.413 390.266C341.188 389.769 340.864 389.323 340.461 388.956C340.087 388.694 339.639 388.557 339.182 388.564H338.717V395.447L333.41 395.404ZM338.696 385.319H340.905C341.373 385.279 341.836 385.201 342.29 385.086C342.634 385.021 342.939 384.828 343.147 384.547C343.389 384.213 343.503 383.803 343.468 383.391C343.433 382.98 343.251 382.595 342.956 382.306C342.368 381.954 341.682 381.802 341.001 381.873H338.696V385.319Z" fill="white"/>
<path d="M351.836 395.404V378.49H360.568C361.822 378.445 363.076 378.583 364.289 378.902C365.151 379.158 365.898 379.703 366.404 380.446C366.78 380.984 367.041 381.593 367.17 382.237C367.3 382.88 367.296 383.544 367.158 384.185C367.02 384.827 366.752 385.434 366.369 385.967C365.986 386.5 365.498 386.949 364.934 387.285C364.361 387.607 363.74 387.836 363.095 387.962C363.577 388.104 364.036 388.314 364.459 388.586C364.776 388.846 365.06 389.144 365.304 389.474C365.575 389.806 365.819 390.16 366.034 390.531L368.571 395.447H362.608L359.807 390.267C359.586 389.767 359.262 389.321 358.856 388.956C358.483 388.69 358.034 388.553 357.576 388.565H357.111V395.447L351.836 395.404ZM357.122 385.319H359.331C359.798 385.28 360.262 385.202 360.716 385.087C361.059 385.021 361.365 384.829 361.572 384.547C361.793 384.268 361.908 383.92 361.9 383.564C361.914 383.329 361.875 383.094 361.785 382.876C361.695 382.658 361.558 382.463 361.382 382.306C360.794 381.954 360.108 381.802 359.426 381.873H357.122V385.319Z" fill="white"/>
<path d="M369.13 386.936C369.014 385.755 369.161 384.564 369.56 383.447C369.959 382.329 370.6 381.314 371.438 380.474C372.276 379.634 373.29 378.991 374.406 378.589C375.522 378.187 376.713 378.038 377.894 378.151C379.078 378.076 380.265 378.238 381.386 378.628C382.506 379.019 383.537 379.629 384.417 380.424C385.205 381.273 385.813 382.273 386.206 383.363C386.598 384.453 386.767 385.61 386.701 386.767C386.766 388.448 386.425 390.119 385.707 391.641C385.054 392.891 384.046 393.92 382.81 394.601C381.356 395.353 379.732 395.717 378.095 395.658C376.465 395.712 374.843 395.401 373.349 394.749C372.064 394.113 371.003 393.103 370.304 391.852C369.48 390.348 369.074 388.65 369.13 386.936ZM374.416 386.936C374.301 388.239 374.637 389.541 375.368 390.626C375.705 390.976 376.11 391.255 376.558 391.446C377.005 391.637 377.487 391.735 377.974 391.735C378.46 391.735 378.942 391.637 379.39 391.446C379.838 391.255 380.242 390.976 380.58 390.626C381.318 389.45 381.645 388.064 381.51 386.682C381.609 385.438 381.265 384.198 380.537 383.183C380.205 382.825 379.798 382.544 379.345 382.362C378.891 382.179 378.403 382.098 377.916 382.126C377.435 382.108 376.957 382.2 376.518 382.394C376.078 382.588 375.689 382.88 375.378 383.247C374.622 384.329 374.267 385.641 374.374 386.957L374.416 386.936Z" fill="white"/>
<path d="M389.598 395.404V378.49H398.33C399.58 378.445 400.83 378.584 402.041 378.902C402.901 379.159 403.648 379.704 404.155 380.445C404.531 380.983 404.792 381.593 404.921 382.237C405.051 382.88 405.047 383.543 404.909 384.185C404.771 384.827 404.503 385.433 404.12 385.967C403.738 386.5 403.249 386.949 402.685 387.285C402.112 387.607 401.491 387.835 400.846 387.962C401.328 388.104 401.787 388.314 402.21 388.586C402.523 388.847 402.803 389.145 403.045 389.474C403.322 389.804 403.569 390.158 403.785 390.531L406.322 395.447H400.402L397.6 390.266C397.376 389.769 397.052 389.323 396.649 388.956C396.274 388.694 395.827 388.557 395.37 388.564H394.905V395.447L389.598 395.404ZM394.884 385.319H397.093C397.56 385.279 398.023 385.201 398.478 385.086C398.821 385.021 399.127 384.828 399.334 384.547C399.576 384.213 399.69 383.803 399.655 383.391C399.62 382.98 399.439 382.595 399.144 382.306C398.556 381.954 397.87 381.802 397.188 381.873H394.884V385.319Z" fill="white"/>
<path d="M450.881 119.082C446.439 117.67 441.798 116.988 437.138 117.062C432.613 117.089 428.133 117.953 423.923 119.61C422.155 120.305 420.493 121.244 418.986 122.401C418.838 122.528 418.669 122.644 418.553 122.761C418.436 122.877 418.32 122.961 418.13 123.162C417.94 123.363 417.443 123.871 417.073 124.219C416.398 124.985 415.773 125.794 415.202 126.64C412.839 130.114 411.339 134.1 410.825 138.269C410.573 140.243 410.598 142.243 410.899 144.21C411.04 145.136 411.256 146.048 411.544 146.938C411.831 147.83 412.184 148.699 412.601 149.539C413.76 151.711 415.071 153.798 416.523 155.786C418.14 158.091 420.012 160.607 421.809 163.684C423.9 167.09 425.391 170.831 426.217 174.742C426.638 176.942 426.795 179.185 426.682 181.423C426.556 183.617 426.169 185.789 425.53 187.893C424.296 191.922 422.245 195.654 419.504 198.856C418.152 200.428 416.647 201.863 415.011 203.137C413.432 204.38 411.74 205.474 409.958 206.404C406.519 208.178 402.824 209.401 399.006 210.03C395.433 210.621 391.803 210.792 388.191 210.537C384.746 210.293 381.332 209.734 377.989 208.867C374.85 208.053 371.761 207.054 368.739 205.875C362.861 203.623 357.533 201.044 352.448 198.856C347.738 196.693 342.812 195.035 337.753 193.908C335.46 193.442 333.126 193.209 330.787 193.21C328.413 193.218 326.046 193.444 323.714 193.887C318.798 194.89 314.045 196.57 309.59 198.877C300.351 203.539 291.809 210.643 282.971 218.085C281.372 219.437 279.303 220.101 277.217 219.933C275.13 219.765 273.194 218.779 271.832 217.189C270.47 215.599 269.791 213.535 269.945 211.447C270.099 209.36 271.072 207.417 272.653 206.044C281.375 198.443 290.561 190.292 301.958 184.203C307.752 181.061 313.958 178.748 320.395 177.332C323.744 176.624 327.152 176.231 330.575 176.158C334.037 176.081 337.497 176.354 340.904 176.972C347.203 178.205 353.352 180.108 359.246 182.649C364.849 184.943 370.018 187.301 375.008 189.098C377.401 189.979 379.844 190.72 382.324 191.318C384.606 191.867 386.935 192.2 389.28 192.312C393.402 192.648 397.538 191.848 401.236 189.996C402.013 189.564 402.749 189.061 403.435 188.495C404.074 187.971 404.662 187.387 405.19 186.751C406.204 185.506 406.952 184.067 407.389 182.522C407.585 181.834 407.692 181.123 407.706 180.408C407.723 179.747 407.659 179.087 407.516 178.442C407.057 176.694 406.314 175.033 405.317 173.526C404.144 171.623 402.537 169.487 400.771 167.088C398.733 164.405 396.893 161.579 395.263 158.63C394.341 156.902 393.55 155.107 392.895 153.26C392.255 151.405 391.76 149.504 391.415 147.572C390.746 143.815 390.6 139.984 390.982 136.187C391.719 128.785 394.221 121.669 398.276 115.434C399.296 113.857 400.415 112.345 401.627 110.91C402.251 110.191 402.886 109.482 403.552 108.795C403.858 108.468 404.302 108.055 404.693 107.685C405.084 107.315 405.497 106.977 405.898 106.628C408.918 104.156 412.279 102.133 415.878 100.623C422.43 97.881 429.435 96.3825 436.535 96.2045C443.471 95.9836 450.397 96.8868 457.044 98.8791C459.564 99.8093 461.635 101.664 462.836 104.065C464.038 106.467 464.281 109.236 463.515 111.81C462.75 114.384 461.033 116.571 458.714 117.925C456.395 119.28 453.647 119.701 451.029 119.103L450.881 119.082Z" fill="#263238"/>
<path d="M450.627 119.938C444.946 118.012 438.926 117.292 432.952 117.823C430.069 118.086 427.23 118.696 424.494 119.642C422.231 120.414 420.114 121.565 418.236 123.046L417.633 123.564C415.641 125.393 413.004 126.356 410.302 126.242C407.599 126.127 405.053 124.943 403.224 122.951C401.395 120.959 400.431 118.321 400.546 115.619C400.661 112.917 401.845 110.371 403.837 108.541C407.54 104.919 411.909 102.047 416.703 100.084C421.018 98.2854 425.538 97.0249 430.161 96.3312C439.231 94.9988 448.481 95.5895 457.309 98.0649C460.239 98.8668 462.73 100.8 464.235 103.439C465.74 106.077 466.135 109.206 465.333 112.136C464.531 115.066 462.598 117.557 459.959 119.062C457.32 120.567 454.192 120.962 451.262 120.16L450.701 119.991L450.627 119.938Z" fill="#00B7AB"/>
<path d="M253.508 250.773L257.43 256.884C253.487 258.945 249.364 258.639 245.156 258.639C243.37 250.371 253.508 250.773 253.508 250.773Z" fill="#263238"/>
<path d="M229.605 218.159C234.606 232.547 253.149 251.629 253.149 251.629C253.149 251.629 245.326 253.194 247.45 258.596H258.371L281.882 254.166C282.667 253.984 283.352 253.51 283.8 252.84C284.248 252.171 284.424 251.356 284.293 250.561L275.613 221.447L229.605 218.159Z" fill="#00B7AB"/>
<path d="M320.809 226.395L322.923 234.969C327.067 233.33 330.566 232.209 332.363 228.361C330.281 223.012 320.809 226.395 320.809 226.395Z" fill="#263238"/>
<path d="M302.243 182.406C309.644 195.663 325.247 227.991 325.247 227.991C325.247 227.991 333.261 228.329 332.193 233.964L301.123 241.639C300.43 241.879 299.677 241.884 298.982 241.653C298.286 241.421 297.686 240.967 297.275 240.36L275.074 221.563C287.189 214.163 301.292 194.743 302.243 182.406Z" fill="#00B7AB"/>
<path opacity="0.1" d="M287.846 210.22C284.207 214.625 279.932 218.463 275.16 221.606L281.503 226.775C288.343 220.654 290.288 214.1 287.846 210.22Z" fill="black"/>
<path d="M279.938 143.915C288.565 145.384 324.392 140.521 327.056 140.394C327.342 138.417 328.251 133.523 330.397 134.389C332.543 135.256 333.643 138.956 333.209 140.732C338.294 139.823 344.975 150.247 337.374 158.704C326.242 171.2 285.573 173.114 285.573 173.114C285.573 173.114 263.51 145.987 279.938 143.915Z" fill="#00B7AB"/>
<path opacity="0.1" d="M282.623 160.544C280.904 160.353 279.164 160.545 277.527 161.104C279.888 165.316 282.581 169.332 285.583 173.113C285.583 173.113 293.787 172.722 303.83 171.179C298.301 167.225 289.537 161.654 282.623 160.544Z" fill="black"/>
<path d="M333.209 140.701C338.347 138.586 341.941 137.529 343.125 139.294C344.309 141.06 342.723 144.771 337.755 145.733C333.198 142.878 333.209 140.701 333.209 140.701Z" fill="#00B7AB"/>
<path d="M336.548 145.099C341.961 144.919 345.587 145.236 346.063 147.213C346.539 149.19 343.811 152.065 338.969 151.23C335.787 147.086 336.548 145.099 336.548 145.099Z" fill="#00B7AB"/>
<path d="M339.964 150.627C343.442 152.245 345.577 153.662 344.943 155.364C344.309 157.066 341.296 158.376 338.6 156.156C338.568 151.907 339.964 150.627 339.964 150.627Z" fill="#00B7AB"/>
<path d="M213.705 170.946C209.73 178.737 184.4 204.532 182.698 206.604C180.944 205.642 176.482 203.433 175.901 205.685C175.319 207.936 177.613 211.023 179.263 211.71C175.499 215.241 179.823 226.817 191.209 225.824C207.88 224.365 233.728 192.935 233.728 192.935C233.728 192.935 225.175 159.011 213.705 170.946Z" fill="#00B7AB"/>
<path opacity="0.1" d="M225.42 183.04C226.304 181.552 227.497 180.272 228.92 179.287C230.889 183.699 232.497 188.263 233.73 192.935C233.73 192.935 228.518 199.278 221.266 206.393C221.403 199.606 222.175 189.246 225.42 183.04Z" fill="black"/>
<path d="M179.263 211.71C174.474 214.544 171.503 216.817 172.211 218.815C172.92 220.813 176.842 221.775 180.584 218.371C181.018 213.011 179.263 211.71 179.263 211.71Z" fill="#00B7AB"/>
<path d="M180.775 217.028C177.392 221.257 175.489 224.344 176.821 225.919C178.153 227.494 182.043 226.976 184.274 222.621C182.889 217.599 180.775 217.028 180.775 217.028Z" fill="#00B7AB"/>
<path d="M183.186 223.065C182.393 226.817 182.256 229.408 184.01 229.894C185.765 230.38 188.599 228.773 188.408 225.306C185.004 222.716 183.186 223.065 183.186 223.065Z" fill="#00B7AB"/>
<path opacity="0.1" d="M275.635 221.553V221.489L261.575 220.432C261.289 226.49 268.341 230.327 277.813 228.699L275.635 221.553Z" fill="black"/>
<path d="M278.235 148.777L249.227 161.199L220.229 173.621C220.229 173.621 223.315 211.108 232.83 223.953C242.344 236.797 260.718 232.843 276.946 225.887C293.173 218.931 308.661 208.37 305.975 192.618C303.29 176.866 278.235 148.777 278.235 148.777Z" fill="#00B7AB"/>
<path opacity="0.2" d="M265.612 155.787L249.818 162.552L234.035 169.318C234.267 166.242 227.819 194.86 238.813 210.114C245.981 220.052 259.365 217.324 271.131 212.282C282.897 207.239 294.093 199.437 291.841 187.396C288.394 168.927 263.234 153.863 265.612 155.787Z" fill="white"/>
<path opacity="0.2" d="M260.591 160.248L250.02 164.751L239.501 169.265C239.575 167.045 235.927 187.628 243.729 198.961C248.836 206.361 257.832 204.712 265.676 201.35C273.52 197.988 280.921 192.607 279.092 183.812C276.354 170.333 258.921 158.778 260.591 160.248Z" fill="white"/>
<path opacity="0.2" d="M186.62 221.696C188.619 220.894 189.4 218.148 188.363 215.563C187.326 212.978 184.864 211.533 182.865 212.336C180.865 213.138 180.085 215.883 181.122 218.468C182.159 221.053 184.62 222.498 186.62 221.696Z" fill="white"/>
<path opacity="0.2" d="M337.744 150.331C337.945 153.112 336.37 155.49 334.224 155.617C332.078 155.744 330.164 153.651 329.995 150.881C329.826 148.111 331.369 145.722 333.515 145.595C335.662 145.468 337.543 147.562 337.744 150.331Z" fill="white"/>
<path d="M185.733 80.7273C143.584 50.894 78.822 69.1936 73.737 80.463C68.3349 92.4619 126.987 124.78 141.396 156.008C162.433 116.925 185.733 80.7273 185.733 80.7273Z" fill="#263238"/>
<path opacity="0.5" d="M170.203 92.959C136.839 69.7012 89.7947 80.1672 86.75 88.096C83.5045 96.5533 129.333 122.295 142.135 145.447C155.191 118.12 170.203 92.959 170.203 92.959Z" fill="#00B7AB"/>
<path d="M174.359 87.3135C164.908 87.9478 156.905 91.1193 149.854 98.5617C153.031 97.5431 156.418 97.3631 159.685 98.0392C162.953 98.7153 165.99 100.224 168.502 102.42L174.359 87.3135Z" fill="#263238"/>
<path d="M236.172 59.1083C256.427 -4.80808 328.568 -5.0618 342.946 4.61129C353.866 12.0115 307.362 41.5382 319.826 84.1632C277.877 69.8069 236.172 59.1083 236.172 59.1083Z" fill="#263238"/>
<path opacity="0.5" d="M255.232 57.7235C272.147 20.7226 311.601 5.92221 330.027 9.23115C347.449 12.3392 295.394 52.9662 306.029 88.7302C280.89 71.8155 255.232 57.7235 255.232 57.7235Z" fill="#00B7AB"/>
<path d="M254.08 52.0148C257.341 50.249 260.918 49.1465 264.607 48.7709C268.296 48.3953 272.023 48.754 275.572 49.8264C272.964 50.411 270.551 51.6607 268.569 53.454C266.587 55.2472 265.103 57.523 264.261 60.0598L254.08 52.0148Z" fill="#263238"/>
<path d="M254.957 49.0123C257.116 46.9938 259.653 45.4222 262.421 44.388C265.19 43.3539 268.136 42.8775 271.089 42.9864C269.196 43.9648 267.587 45.4165 266.42 47.2004C265.253 48.9843 264.567 51.0397 264.429 53.1669L254.957 49.0123Z" fill="#263238"/>
<path d="M332.3 87.4301C342.956 112.295 304.518 142.403 251.004 165.333C197.49 188.263 149.177 195.325 138.489 170.45C127.801 145.574 153.543 85.7598 207.057 62.8298C260.571 39.8998 321.644 62.5549 332.3 87.4301Z" fill="#00B7AB"/>
<path opacity="0.1" d="M311.178 89.798C321.051 112.855 290.943 139.284 247.747 157.785C204.551 176.285 164.665 179.848 154.791 156.78C144.917 133.713 168.787 92.7475 211.962 74.2576C255.137 55.7678 301.293 66.7306 311.178 89.798Z" fill="black"/>
<path d="M224.298 123.405C223.368 121.228 226.212 118.733 230.282 116.978C234.352 115.223 238.137 114.863 239.067 117.073C239.997 119.282 238.57 125.044 234.489 126.799C230.409 128.554 225.228 125.583 224.298 123.405Z" fill="#263238"/>
<path opacity="0.3" d="M232.936 142.826C232.312 141.346 235.304 139.2 239.385 137.455C243.465 135.711 247.081 135.024 247.705 136.493C248.328 137.963 246.299 142.339 242.228 144.084C238.158 145.828 233.57 144.295 232.936 142.826Z" fill="black"/>
<path opacity="0.4" d="M157.422 124.886C163.247 108.203 176.557 95.824 190.131 92.7264C213.018 87.504 219.731 116.164 208.673 135.922C196.326 158.038 169.051 154.666 166.387 144.549C162.549 151.283 146.945 154.803 157.422 124.886Z" fill="white"/>
<path d="M208.685 106.1C208.685 106.1 207.131 126.408 196.412 133.586C185.692 140.764 169.855 131.969 169.855 131.969C169.855 131.969 171.41 111.671 182.129 104.482C192.849 97.2935 208.685 106.1 208.685 106.1Z" fill="white"/>
<path d="M169.854 131.863C169.757 126.889 170.472 121.933 171.969 117.189C172.705 114.762 173.719 112.427 174.992 110.233C176.278 107.958 177.965 105.934 179.972 104.26C182.04 102.573 184.484 101.409 187.097 100.867C189.635 100.327 192.25 100.256 194.814 100.655C199.778 101.384 204.513 103.228 208.663 106.047C204.154 104.316 199.418 103.248 194.603 102.875C192.293 102.721 189.973 102.935 187.731 103.51C185.541 104.016 183.504 105.038 181.79 106.491C180.013 107.936 178.5 109.678 177.318 111.639L176.832 112.369L176.398 113.14C176.123 113.658 175.817 114.197 175.553 114.694C175.056 115.752 174.495 116.809 174.083 117.94C172.28 122.452 170.865 127.11 169.854 131.863Z" fill="#263238"/>
<path d="M237.281 93.7942C237.281 93.7942 253.054 106.681 265.603 103.837C278.151 100.994 282.75 83.4974 282.75 83.4974C282.75 83.4974 266.988 70.6105 254.429 73.4543C241.869 76.2981 237.281 93.7942 237.281 93.7942Z" fill="white"/>
<path d="M282.75 83.4973C278.611 80.9615 274.264 78.7795 269.758 76.9745C268.701 76.5305 267.506 76.1922 266.385 75.8116C265.825 75.6319 265.244 75.5051 264.673 75.3465L263.827 75.1245L262.96 74.9765C260.725 74.4837 258.423 74.3764 256.152 74.6593C253.918 74.9073 251.774 75.6788 249.894 76.9111C247.931 78.134 246.178 79.6654 244.703 81.4464C241.649 85.1806 239.156 89.3403 237.303 93.7941C238.12 88.8448 240.05 84.1457 242.948 80.0509C244.429 77.9198 246.284 76.0751 248.424 74.6065C250.628 73.0863 253.167 72.1216 255.824 71.7944C258.417 71.4977 261.043 71.6732 263.573 72.3124C266.019 72.9052 268.389 73.7779 270.635 74.913C275.113 77.0983 279.204 79.9976 282.75 83.4973Z" fill="#263238"/>
<path d="M198.607 129.917C204.751 128.423 208.52 122.231 207.026 116.087C205.531 109.943 199.339 106.173 193.195 107.668C187.051 109.162 183.282 115.354 184.776 121.498C186.27 127.642 192.463 131.412 198.607 129.917Z" fill="#263238"/>
<path d="M186.706 119.473C187.084 120.348 187.712 121.091 188.512 121.608C189.312 122.126 190.248 122.395 191.201 122.381C192.153 122.367 193.081 122.072 193.865 121.531C194.65 120.991 195.257 120.23 195.61 119.345C195.962 118.46 196.045 117.49 195.846 116.558C195.648 115.626 195.178 114.774 194.496 114.109C193.813 113.444 192.949 112.996 192.013 112.821C191.076 112.647 190.108 112.755 189.233 113.13C188.65 113.38 188.122 113.742 187.679 114.196C187.236 114.651 186.887 115.188 186.653 115.777C186.418 116.366 186.302 116.996 186.311 117.63C186.32 118.264 186.454 118.891 186.706 119.473Z" fill="white"/>
<path d="M265.513 97.7762C267.862 91.9056 265.008 85.2422 259.137 82.8929C253.266 80.5437 246.603 83.3982 244.254 89.2688C241.904 95.1394 244.759 101.803 250.63 104.152C256.5 106.501 263.164 103.647 265.513 97.7762Z" fill="#263238"/>
<path d="M245.686 94.1956C246.064 95.0702 246.692 95.8133 247.492 96.3309C248.292 96.8485 249.228 97.1175 250.18 97.1038C251.133 97.0901 252.061 96.7943 252.845 96.2539C253.63 95.7135 254.237 94.9527 254.59 94.0675C254.942 93.1823 255.025 92.2125 254.826 91.2805C254.628 90.3486 254.158 89.4962 253.476 88.8312C252.793 88.1662 251.929 87.7183 250.992 87.5441C250.056 87.3699 249.088 87.4773 248.212 87.8525C247.629 88.1012 247.1 88.463 246.656 88.9171C246.213 89.3711 245.863 89.9084 245.629 90.498C245.394 91.0876 245.278 91.7179 245.288 92.3525C245.298 92.9871 245.433 93.6135 245.686 94.1956Z" fill="white"/>
<path d="M197.585 119.494C197.737 119.842 197.989 120.138 198.308 120.343C198.628 120.548 199.002 120.655 199.382 120.648C199.762 120.642 200.131 120.523 200.444 120.306C200.756 120.09 200.998 119.786 201.137 119.432C201.277 119.079 201.309 118.692 201.23 118.321C201.15 117.949 200.962 117.609 200.689 117.344C200.417 117.08 200.072 116.901 199.698 116.832C199.324 116.763 198.938 116.806 198.589 116.956C198.12 117.161 197.752 117.542 197.564 118.018C197.375 118.493 197.383 119.024 197.585 119.494Z" fill="white"/>
<path d="M256.564 94.217C256.71 94.5671 256.957 94.8662 257.273 95.0766C257.589 95.2869 257.96 95.3992 258.339 95.3994C258.718 95.3995 259.089 95.2874 259.405 95.0772C259.721 94.8669 259.968 94.568 260.114 94.218C260.261 93.8679 260.301 93.4824 260.229 93.1098C260.156 92.7373 259.976 92.3943 259.709 92.1242C259.443 91.854 259.102 91.6687 258.731 91.5915C258.359 91.5143 257.973 91.5487 257.621 91.6903C257.384 91.7843 257.168 91.9247 256.986 92.1034C256.804 92.2821 256.659 92.4955 256.56 92.7309C256.462 92.9663 256.411 93.2191 256.412 93.4743C256.413 93.7295 256.464 93.982 256.564 94.217Z" fill="white"/>
<path d="M250.421 130.277C249.839 130.647 249.258 131.028 248.655 131.334C248.053 131.641 247.387 131.937 246.721 132.18C245.361 132.656 243.933 132.909 242.492 132.93C241.01 132.91 239.547 132.594 238.189 132C236.792 131.387 235.553 130.466 234.563 129.304L236.287 128.564C236.44 130.084 236.252 131.619 235.737 133.057C235.23 134.449 234.45 135.725 233.443 136.81C232.437 137.84 231.269 138.697 229.986 139.347C229.352 139.652 228.703 139.924 228.041 140.162C227.364 140.362 226.688 140.532 226.021 140.69C226.624 140.331 227.227 140.003 227.819 139.633C228.411 139.263 228.96 138.925 229.489 138.502C230.535 137.724 231.477 136.814 232.29 135.795C233.053 134.787 233.632 133.653 234.003 132.444C234.186 131.848 234.314 131.235 234.384 130.615C234.453 130.025 234.453 129.429 234.384 128.839C234.359 128.591 234.431 128.343 234.585 128.146C234.738 127.949 234.961 127.819 235.208 127.782C235.376 127.76 235.547 127.782 235.704 127.845C235.862 127.908 236 128.01 236.107 128.142C236.491 128.595 236.92 129.01 237.386 129.378C237.888 129.744 238.418 130.07 238.972 130.351C240.104 130.907 241.324 131.264 242.577 131.408C243.879 131.525 245.191 131.469 246.478 131.239C247.144 131.154 247.789 130.943 248.455 130.816C249.121 130.689 249.755 130.467 250.421 130.277Z" fill="#263238"/>
<path d="M235.335 129.727C235.147 129.726 234.964 129.67 234.806 129.567C234.649 129.464 234.524 129.318 234.447 129.146L231.519 122.264C231.42 122.03 231.418 121.766 231.513 121.53C231.608 121.294 231.793 121.106 232.026 121.006C232.143 120.954 232.268 120.926 232.396 120.923C232.523 120.92 232.65 120.944 232.768 120.991C232.886 121.038 232.994 121.109 233.085 121.199C233.175 121.288 233.247 121.395 233.295 121.513L236.244 128.385C236.308 128.531 236.333 128.692 236.319 128.851C236.305 129.01 236.251 129.163 236.163 129.296C236.075 129.429 235.955 129.538 235.814 129.614C235.674 129.689 235.516 129.728 235.356 129.727H235.335Z" fill="#263238"/>
<path d="M139.249 144.401C130.675 148.429 124.449 156.992 122.895 167.13C130.464 157.89 139.291 160.607 139.291 160.607L139.249 144.401Z" fill="#00B7AB"/>
<path d="M140.128 169.382C138.632 172.788 137.989 176.507 138.256 180.217C138.523 183.928 139.692 187.517 141.661 190.673C141.576 181.582 148.067 178.875 148.067 178.875L140.128 169.382Z" fill="#00B7AB"/>
<path d="M139.631 155.427C130.994 161.875 126.046 172.838 126.564 184.509C132.907 172.468 143.373 173.494 143.373 173.494L139.631 155.427Z" fill="#00B7AB"/>
<path d="M312.922 69.9865C321.749 66.5613 332.215 67.999 340.662 73.824C328.748 72.936 324.625 81.2242 324.625 81.2242L312.922 69.9865Z" fill="#00B7AB"/>
<path d="M327.574 87.4301C334.689 86.2778 342.449 87.1764 347.206 91.8068C341.366 91.8033 335.712 93.8626 331.243 97.6212L327.574 87.4301Z" fill="#00B7AB"/>
<path d="M325.195 86.394C331.655 89.5655 337.427 94.8514 338.59 101.395C333.847 97.982 328.05 96.3567 322.225 96.8072L325.195 86.394Z" fill="#00B7AB"/>
<path d="M320.66 77.8733C331.285 76.0656 342.628 80.0511 350.726 88.445C337.638 84.7343 331.158 93.012 331.158 93.012L320.66 77.8733Z" fill="#00B7AB"/>
<path d="M200.861 67.5448C200.459 61.5612 203.345 56.4128 210.492 51.0952C208.99 59.6371 215.175 61.7726 215.175 61.7726L200.861 67.5448Z" fill="#00B7AB"/>
<path d="M208.664 64.2143C210.081 57.2581 217.206 50.4711 227.577 46.105C220.177 54.076 226.139 59.0236 226.139 59.0236L208.664 64.2143Z" fill="#00B7AB"/>
<path d="M149.685 189.14C149.59 189.137 149.499 189.107 149.42 189.056C149.368 189.021 149.323 188.976 149.288 188.923C149.253 188.87 149.229 188.811 149.217 188.749C149.206 188.687 149.206 188.624 149.219 188.562C149.232 188.5 149.258 188.442 149.293 188.39C177.319 146.505 228.317 129.981 228.824 129.823C228.948 129.786 229.08 129.798 229.195 129.857C229.309 129.916 229.396 130.018 229.437 130.14C229.474 130.262 229.461 130.393 229.402 130.506C229.343 130.618 229.241 130.703 229.12 130.742C228.613 130.901 177.932 147.329 150.086 188.887C150.049 188.962 149.992 189.025 149.921 189.07C149.85 189.115 149.768 189.139 149.685 189.14Z" fill="#263238"/>
<path d="M157.402 215.527C157.349 215.537 157.296 215.537 157.243 215.527C157.121 215.486 157.021 215.398 156.963 215.283C156.906 215.169 156.896 215.036 156.937 214.914C176.283 158.408 226.921 133.924 227.429 133.691C227.542 133.637 227.673 133.63 227.792 133.671C227.911 133.713 228.008 133.8 228.063 133.913C228.092 133.97 228.109 134.032 228.113 134.096C228.117 134.159 228.109 134.223 228.088 134.283C228.067 134.343 228.035 134.398 227.992 134.446C227.95 134.493 227.898 134.531 227.841 134.558C227.333 134.801 177.097 159.116 157.856 215.231C157.817 215.319 157.754 215.394 157.673 215.446C157.592 215.499 157.498 215.527 157.402 215.527Z" fill="#263238"/>
<path d="M240.822 125.689C240.737 125.69 240.654 125.669 240.581 125.626C240.508 125.583 240.449 125.52 240.41 125.446C240.376 125.392 240.353 125.332 240.343 125.269C240.334 125.207 240.337 125.143 240.353 125.081C240.368 125.02 240.397 124.962 240.436 124.912C240.474 124.862 240.523 124.821 240.579 124.79C241.044 124.515 287.633 98.012 337.468 105.56C337.531 105.568 337.591 105.588 337.645 105.62C337.699 105.651 337.747 105.694 337.784 105.744C337.822 105.794 337.849 105.852 337.863 105.913C337.878 105.974 337.88 106.037 337.87 106.099C337.847 106.224 337.777 106.336 337.675 106.413C337.574 106.489 337.447 106.524 337.32 106.512C287.834 99.0057 241.53 125.35 241.118 125.625C241.028 125.677 240.925 125.7 240.822 125.689Z" fill="#263238"/>
<path d="M340.81 129.241C340.761 129.252 340.711 129.252 340.662 129.241C281.672 110.212 245.083 127.126 244.713 127.317C244.599 127.371 244.467 127.378 244.347 127.336C244.227 127.293 244.129 127.204 244.074 127.089C244.019 126.974 244.012 126.843 244.055 126.723C244.098 126.603 244.186 126.505 244.301 126.45C244.661 126.27 281.566 109.155 340.958 128.321C341.078 128.364 341.177 128.452 341.234 128.566C341.291 128.68 341.302 128.812 341.265 128.934C341.23 129.026 341.167 129.105 341.086 129.16C341.005 129.214 340.908 129.243 340.81 129.241Z" fill="#263238"/>
<path d="M231.682 387.581C240.795 377.74 240.204 362.376 230.364 353.264C220.524 344.152 205.16 344.742 196.048 354.583C186.936 364.423 187.526 379.787 197.366 388.899C207.206 398.011 222.57 397.421 231.682 387.581Z" fill="#00B7AB"/>
<path d="M282 396.419C269.969 396.419 265.719 391.863 261.617 387.465C260.259 385.929 258.77 384.514 257.167 383.236C251.014 378.542 241.309 376.396 236.414 378.648C236.186 378.686 235.952 378.648 235.747 378.54C235.542 378.432 235.379 378.259 235.281 378.049C235.184 377.839 235.159 377.603 235.209 377.377C235.259 377.151 235.381 376.948 235.558 376.798C241.161 374.229 251.617 376.439 258.404 381.608C260.1 382.969 261.677 384.472 263.119 386.101C267.093 390.383 270.857 394.421 282 394.421C284.719 394.493 287.407 393.827 289.778 392.494C292.149 391.162 294.115 389.212 295.468 386.852C296.585 384.999 297.188 382.883 297.216 380.721C297.244 378.558 296.695 376.427 295.626 374.546C293.1 370.476 287.899 368.404 280.964 368.732C280.809 368.781 280.645 368.794 280.485 368.77C280.325 368.745 280.172 368.685 280.039 368.592C279.906 368.499 279.796 368.377 279.718 368.236C279.639 368.094 279.595 367.936 279.587 367.774C279.58 367.612 279.609 367.45 279.674 367.302C279.739 367.153 279.837 367.021 279.961 366.917C280.085 366.812 280.231 366.737 280.388 366.698C280.546 366.659 280.71 366.657 280.868 366.692C288.575 366.343 294.432 368.742 297.36 373.468C298.619 375.659 299.272 378.145 299.254 380.671C299.235 383.197 298.545 385.673 297.255 387.845C295.722 390.518 293.495 392.726 290.809 394.235C288.123 395.745 285.079 396.499 282 396.419Z" fill="#00B7AB"/>
<path d="M224.12 389.632C211.325 389.503 198.993 384.826 189.329 376.439C189.204 376.245 189.146 376.015 189.163 375.785C189.181 375.555 189.274 375.337 189.427 375.164C189.581 374.991 189.786 374.874 190.013 374.829C190.239 374.784 190.474 374.815 190.682 374.917C199.139 382.465 214.236 389.611 231.076 387.074C231.225 387.009 231.386 386.979 231.548 386.987C231.71 386.994 231.868 387.039 232.01 387.117C232.152 387.195 232.275 387.305 232.367 387.438C232.46 387.571 232.521 387.724 232.545 387.884C232.57 388.044 232.557 388.208 232.508 388.363C232.459 388.517 232.375 388.658 232.262 388.775C232.15 388.892 232.012 388.982 231.86 389.037C231.707 389.092 231.544 389.111 231.383 389.093C228.979 389.453 226.551 389.633 224.12 389.632Z" fill="#00B7AB"/>
<path d="M221.456 392.656C208.992 392.656 198.346 387.75 189.054 377.75C188.872 377.554 188.771 377.297 188.771 377.031C188.771 376.764 188.872 376.507 189.054 376.312C189.25 376.128 189.509 376.025 189.778 376.025C190.047 376.025 190.306 376.128 190.502 376.312C200.788 387.391 212.808 391.926 227.238 390.214C227.389 390.15 227.553 390.123 227.716 390.134C227.879 390.144 228.037 390.193 228.179 390.275C228.32 390.357 228.44 390.471 228.53 390.608C228.62 390.744 228.677 390.9 228.697 391.062C228.716 391.225 228.698 391.389 228.643 391.543C228.588 391.697 228.498 391.837 228.38 391.95C228.263 392.063 228.12 392.148 227.964 392.197C227.808 392.246 227.643 392.258 227.482 392.233C225.483 392.495 223.471 392.636 221.456 392.656Z" fill="#00B7AB"/>
<path d="M203.039 393.882C202.776 393.883 202.522 393.787 202.327 393.611C202.131 393.435 202.008 393.192 201.982 392.931C201.094 381.006 205.206 362.019 216.37 346.489C216.55 346.343 216.772 346.26 217.004 346.252C217.235 346.245 217.463 346.314 217.651 346.448C217.84 346.583 217.979 346.776 218.047 346.997C218.116 347.218 218.11 347.456 218.03 347.673C207.205 362.801 203.198 381.228 204.033 392.783C204.035 393.044 203.939 393.297 203.766 393.492C203.592 393.687 203.352 393.811 203.092 393.84L203.039 393.882Z" fill="#00B7AB"/>
<path d="M192.902 384.42C192.707 384.419 192.517 384.364 192.352 384.262C192.131 384.111 191.975 383.882 191.917 383.621C191.858 383.36 191.9 383.087 192.035 382.856C195.587 377.242 208.78 358.414 229.458 351.807C229.715 351.734 229.989 351.762 230.227 351.883C230.464 352.005 230.646 352.212 230.738 352.462C230.81 352.719 230.782 352.993 230.661 353.23C230.539 353.467 230.333 353.65 230.082 353.741C210.059 360.148 197.215 378.479 193.758 383.944C193.664 384.087 193.537 384.205 193.388 384.287C193.239 384.37 193.072 384.416 192.902 384.42Z" fill="#00B7AB"/>
<path d="M192.901 384.42C192.77 384.421 192.641 384.396 192.52 384.346C192.276 384.239 192.081 384.043 191.975 383.798C191.869 383.552 191.86 383.276 191.95 383.025C195.076 375.338 199.805 368.405 205.82 362.689C211.836 356.972 219 352.603 226.836 349.872C227.067 349.855 227.298 349.915 227.491 350.042C227.685 350.17 227.832 350.357 227.909 350.576C227.986 350.794 227.989 351.032 227.917 351.253C227.845 351.473 227.703 351.664 227.513 351.796C219.944 354.427 213.024 358.641 207.212 364.157C201.401 369.673 196.832 376.365 193.81 383.786C193.732 383.965 193.606 384.12 193.445 384.232C193.285 384.344 193.096 384.409 192.901 384.42Z" fill="#00B7AB"/>
<path d="M200.028 392.106C199.771 392.109 199.522 392.018 199.328 391.85C199.133 391.683 199.006 391.451 198.97 391.197C196.412 369.165 203.643 356.564 211.847 346.235C212.019 346.033 212.262 345.902 212.527 345.871C212.792 345.84 213.058 345.909 213.274 346.066C213.48 346.24 213.612 346.485 213.643 346.752C213.675 347.019 213.603 347.288 213.443 347.504C205.514 357.494 198.526 369.705 201 390.964C201.022 391.232 200.941 391.497 200.774 391.707C200.607 391.917 200.367 392.056 200.102 392.095L200.028 392.106Z" fill="#00B7AB"/>
<path d="M197.194 389.801C196.974 389.796 196.76 389.722 196.584 389.589C196.408 389.456 196.277 389.272 196.211 389.061C193.04 377.38 195.397 359.112 208.337 346.584C208.532 346.403 208.789 346.302 209.056 346.302C209.322 346.302 209.579 346.403 209.775 346.584C209.959 346.78 210.062 347.039 210.062 347.308C210.062 347.578 209.959 347.837 209.775 348.033C197.987 359.439 195.027 377.02 198.199 388.49C198.262 388.751 198.224 389.026 198.093 389.259C197.961 389.493 197.746 389.668 197.49 389.748L197.194 389.801Z" fill="#00B7AB"/>
<path d="M237.863 375.53C237.651 375.527 237.445 375.461 237.271 375.339C222.153 364.461 203.716 360.455 192.162 361.321C191.932 361.279 191.722 361.161 191.566 360.987C191.41 360.813 191.317 360.592 191.3 360.358C191.283 360.125 191.344 359.893 191.473 359.698C191.602 359.503 191.792 359.356 192.014 359.281C203.938 358.404 222.925 362.505 238.466 373.68C238.622 373.816 238.735 373.995 238.79 374.195C238.845 374.395 238.84 374.607 238.776 374.804C238.712 375.001 238.591 375.175 238.429 375.304C238.266 375.433 238.07 375.512 237.863 375.53Z" fill="#00B7AB"/>
<path d="M238.073 372.707C237.931 372.71 237.79 372.682 237.661 372.622C224.108 366.607 203.599 365.814 189.962 370.762C189.829 370.857 189.676 370.92 189.516 370.946C189.355 370.972 189.19 370.96 189.034 370.912C188.878 370.864 188.736 370.78 188.618 370.668C188.499 370.556 188.409 370.417 188.353 370.264C188.297 370.111 188.278 369.947 188.296 369.785C188.314 369.623 188.369 369.467 188.457 369.33C188.545 369.193 188.664 369.078 188.804 368.995C188.944 368.911 189.101 368.861 189.264 368.848C203.345 363.731 224.499 364.556 238.486 370.762C238.726 370.879 238.912 371.082 239.008 371.331C239.105 371.58 239.103 371.856 239.004 372.104C238.92 372.281 238.788 372.431 238.624 372.537C238.46 372.644 238.269 372.702 238.073 372.707Z" fill="#00B7AB"/>
<path d="M238.032 369.852C237.892 369.85 237.753 369.82 237.624 369.764C237.495 369.708 237.379 369.626 237.282 369.525C227.228 358.594 214.204 354.724 194.995 356.934C194.844 356.997 194.681 357.024 194.518 357.014C194.354 357.003 194.196 356.955 194.055 356.872C193.913 356.79 193.793 356.676 193.703 356.54C193.613 356.403 193.556 356.248 193.537 356.085C193.517 355.923 193.536 355.758 193.591 355.604C193.645 355.45 193.735 355.311 193.853 355.197C193.971 355.084 194.113 354.999 194.269 354.95C194.425 354.901 194.59 354.889 194.752 354.915C214.373 352.631 228.349 356.839 238.741 368.15C238.858 368.301 238.932 368.48 238.955 368.67C238.978 368.859 238.95 369.051 238.873 369.225C238.796 369.4 238.673 369.55 238.518 369.66C238.362 369.771 238.18 369.837 237.99 369.852H238.032Z" fill="#00B7AB"/>
<path d="M237.271 365.708C237.001 365.702 236.744 365.592 236.552 365.402C223.982 352.864 206.254 351.056 198.23 353.773C197.998 353.788 197.767 353.726 197.573 353.597C197.38 353.467 197.234 353.278 197.159 353.057C197.085 352.837 197.085 352.598 197.16 352.377C197.235 352.157 197.381 351.967 197.574 351.838C206.085 348.952 224.818 350.781 237.99 363.953C238.171 364.149 238.272 364.406 238.272 364.672C238.272 364.939 238.171 365.196 237.99 365.391C237.8 365.585 237.543 365.699 237.271 365.708Z" fill="#00B7AB"/>
<path d="M232.576 387.634C232.482 387.65 232.386 387.65 232.291 387.634C207.976 380.435 190.099 364.091 189.93 363.922C189.809 363.726 189.755 363.496 189.776 363.267C189.797 363.037 189.893 362.821 190.049 362.651C190.205 362.481 190.411 362.366 190.638 362.325C190.865 362.283 191.099 362.317 191.305 362.421C191.484 362.59 209.033 378.617 232.872 385.679C233.076 385.776 233.243 385.936 233.349 386.136C233.455 386.335 233.494 386.563 233.461 386.787C233.428 387.01 233.324 387.217 233.165 387.377C233.006 387.537 232.8 387.642 232.576 387.677V387.634Z" fill="#00B7AB"/>
<path d="M233.063 387.01C232.925 387.009 232.789 386.98 232.662 386.926C217.949 380.356 203.854 372.484 190.544 363.404C190.389 363.35 190.25 363.26 190.135 363.143C190.021 363.026 189.936 362.884 189.886 362.728C189.836 362.572 189.823 362.406 189.848 362.245C189.873 362.083 189.935 361.929 190.03 361.795C190.124 361.662 190.249 361.552 190.393 361.474C190.537 361.397 190.697 361.354 190.861 361.349C191.024 361.344 191.187 361.377 191.336 361.446C191.484 361.514 191.615 361.616 191.717 361.744C204.91 370.744 218.882 378.545 233.465 385.054C233.653 385.167 233.802 385.335 233.891 385.536C233.979 385.737 234.003 385.96 233.959 386.175C233.915 386.39 233.805 386.586 233.644 386.736C233.484 386.885 233.281 386.981 233.063 387.01Z" fill="#00B7AB"/>
<path d="M233.961 385.752C233.795 385.755 233.632 385.715 233.486 385.636C212.691 374.451 190.892 363.594 190.681 363.488C190.508 363.335 190.39 363.129 190.346 362.902C190.301 362.675 190.333 362.44 190.435 362.232C190.536 362.025 190.704 361.856 190.91 361.753C191.117 361.649 191.352 361.617 191.58 361.659C191.802 361.765 213.632 372.643 234.448 383.86C234.622 383.983 234.756 384.157 234.83 384.358C234.904 384.558 234.915 384.777 234.863 384.984C234.81 385.191 234.695 385.378 234.535 385.519C234.374 385.66 234.174 385.749 233.961 385.773V385.752Z" fill="#00B7AB"/>
<path d="M234.691 384.632C234.465 384.636 234.244 384.561 234.067 384.42C215.186 369.62 191.453 362.748 191.209 362.685C191.009 362.566 190.853 362.384 190.766 362.167C190.68 361.95 190.668 361.71 190.732 361.486C190.796 361.261 190.932 361.064 191.12 360.925C191.308 360.787 191.536 360.714 191.77 360.718C192.013 360.792 216.085 367.749 235.325 382.813C235.528 382.986 235.658 383.229 235.69 383.494C235.721 383.758 235.651 384.025 235.494 384.24C235.4 384.364 235.279 384.464 235.139 384.531C234.999 384.599 234.846 384.634 234.691 384.632Z" fill="#00B7AB"/>
<path d="M236.636 380.53C236.402 380.529 236.175 380.451 235.991 380.308C218.695 366.1 191.59 362.748 191.357 362.717C191.14 362.631 190.958 362.475 190.838 362.275C190.719 362.074 190.669 361.84 190.697 361.608C190.725 361.377 190.828 361.16 190.992 360.994C191.155 360.827 191.369 360.719 191.6 360.687C191.875 360.687 219.52 364.144 237.291 378.733C237.489 378.91 237.613 379.155 237.639 379.42C237.664 379.684 237.589 379.948 237.428 380.16C237.33 380.275 237.209 380.367 237.072 380.431C236.935 380.495 236.787 380.529 236.636 380.53Z" fill="#00B7AB"/>
<path d="M204.763 394.707C204.56 394.685 204.367 394.605 204.208 394.476C204.05 394.346 203.932 394.174 203.869 393.979C203.807 393.785 203.802 393.576 203.855 393.379C203.909 393.181 204.019 393.004 204.171 392.867C223.443 378.923 234.448 359.577 234.554 359.387C234.594 359.229 234.67 359.083 234.776 358.96C234.881 358.836 235.014 358.739 235.164 358.675C235.313 358.611 235.475 358.583 235.637 358.592C235.8 358.601 235.958 358.647 236.099 358.727C236.24 358.807 236.362 358.919 236.453 359.053C236.544 359.187 236.603 359.341 236.626 359.502C236.648 359.663 236.633 359.827 236.582 359.981C236.531 360.135 236.444 360.276 236.33 360.391C236.224 360.581 224.997 380.319 205.366 394.516C205.189 394.64 204.979 394.706 204.763 394.707Z" fill="#00B7AB"/>
<g opacity="0.3">
<path opacity="0.3" d="M224.118 389.632C211.323 389.503 198.991 384.826 189.327 376.439C189.202 376.245 189.144 376.015 189.161 375.785C189.179 375.555 189.272 375.337 189.425 375.164C189.579 374.991 189.784 374.874 190.011 374.829C190.238 374.784 190.473 374.815 190.68 374.917C199.137 382.465 214.234 389.611 231.074 387.074C231.223 387.009 231.384 386.979 231.546 386.987C231.708 386.994 231.867 387.039 232.008 387.117C232.151 387.195 232.273 387.305 232.365 387.438C232.458 387.571 232.519 387.724 232.543 387.884C232.568 388.044 232.555 388.208 232.506 388.363C232.457 388.517 232.373 388.658 232.26 388.775C232.148 388.892 232.01 388.982 231.858 389.037C231.705 389.092 231.542 389.111 231.381 389.093C228.977 389.453 226.549 389.633 224.118 389.632Z" fill="black"/>
<path opacity="0.3" d="M221.456 392.656C208.992 392.656 198.346 387.75 189.054 377.75C188.872 377.554 188.771 377.297 188.771 377.031C188.771 376.764 188.872 376.507 189.054 376.312C189.25 376.128 189.509 376.025 189.778 376.025C190.047 376.025 190.306 376.128 190.502 376.312C200.788 387.391 212.808 391.926 227.238 390.214C227.389 390.15 227.553 390.123 227.716 390.134C227.879 390.144 228.037 390.193 228.179 390.275C228.32 390.357 228.44 390.471 228.53 390.608C228.62 390.744 228.677 390.9 228.697 391.062C228.716 391.225 228.698 391.389 228.643 391.543C228.588 391.697 228.498 391.837 228.38 391.95C228.263 392.063 228.12 392.148 227.964 392.197C227.808 392.246 227.643 392.258 227.482 392.233C225.483 392.495 223.471 392.636 221.456 392.656Z" fill="black"/>
<path opacity="0.3" d="M203.039 393.882C202.776 393.883 202.522 393.787 202.327 393.611C202.131 393.435 202.008 393.192 201.982 392.931C201.094 381.006 205.206 362.019 216.37 346.489C216.55 346.343 216.772 346.26 217.004 346.252C217.235 346.245 217.463 346.314 217.651 346.448C217.84 346.583 217.979 346.776 218.047 346.997C218.116 347.218 218.11 347.456 218.03 347.673C207.205 362.801 203.198 381.228 204.033 392.783C204.035 393.044 203.939 393.297 203.766 393.492C203.592 393.687 203.352 393.811 203.092 393.84L203.039 393.882Z" fill="black"/>
<path opacity="0.3" d="M192.902 384.421C192.707 384.419 192.517 384.364 192.352 384.262C192.131 384.111 191.975 383.882 191.917 383.621C191.858 383.361 191.9 383.087 192.035 382.856C195.587 377.242 208.78 358.414 229.458 351.807C229.715 351.735 229.989 351.762 230.227 351.884C230.464 352.005 230.646 352.212 230.738 352.462C230.81 352.719 230.782 352.993 230.661 353.231C230.539 353.468 230.333 353.65 230.082 353.742C210.059 360.148 197.215 378.479 193.758 383.945C193.664 384.087 193.537 384.205 193.388 384.288C193.239 384.371 193.072 384.416 192.902 384.421Z" fill="black"/>
<path opacity="0.3" d="M192.901 384.421C192.77 384.422 192.641 384.397 192.52 384.347C192.276 384.239 192.081 384.043 191.975 383.798C191.869 383.553 191.86 383.277 191.95 383.025C195.076 375.338 199.805 368.406 205.82 362.689C211.836 356.973 219 352.604 226.836 349.872C227.067 349.856 227.298 349.916 227.491 350.043C227.685 350.17 227.832 350.357 227.909 350.576C227.986 350.795 227.989 351.033 227.917 351.253C227.845 351.474 227.703 351.665 227.513 351.796C219.944 354.427 213.024 358.642 207.212 364.158C201.401 369.674 196.832 376.365 193.81 383.786C193.732 383.966 193.606 384.12 193.445 384.232C193.285 384.344 193.096 384.409 192.901 384.421Z" fill="black"/>
<path opacity="0.3" d="M200.026 392.106C199.769 392.109 199.52 392.018 199.326 391.85C199.131 391.683 199.004 391.451 198.968 391.197C196.41 369.165 203.641 356.564 211.845 346.235C212.017 346.033 212.261 345.902 212.525 345.871C212.79 345.84 213.056 345.909 213.272 346.066C213.478 346.24 213.61 346.485 213.641 346.752C213.673 347.019 213.601 347.288 213.441 347.504C205.512 357.494 198.524 369.705 200.998 390.964C201.02 391.232 200.939 391.497 200.772 391.707C200.605 391.917 200.365 392.056 200.1 392.095L200.026 392.106Z" fill="black"/>
<path opacity="0.3" d="M197.192 389.801C196.972 389.796 196.758 389.722 196.582 389.589C196.406 389.456 196.275 389.272 196.209 389.061C193.038 377.38 195.395 359.112 208.335 346.584C208.53 346.403 208.787 346.302 209.054 346.302C209.32 346.302 209.577 346.403 209.773 346.584C209.957 346.78 210.06 347.039 210.06 347.308C210.06 347.578 209.957 347.837 209.773 348.033C197.985 359.439 195.025 377.02 198.197 388.49C198.26 388.751 198.222 389.026 198.091 389.259C197.959 389.493 197.744 389.668 197.488 389.748L197.192 389.801Z" fill="black"/>
<path opacity="0.3" d="M237.863 375.53C237.651 375.527 237.445 375.461 237.271 375.339C222.153 364.461 203.716 360.455 192.162 361.321C191.932 361.279 191.722 361.161 191.566 360.987C191.41 360.813 191.317 360.592 191.3 360.358C191.283 360.125 191.344 359.893 191.473 359.698C191.602 359.503 191.792 359.356 192.014 359.281C203.938 358.404 222.925 362.505 238.466 373.68C238.622 373.816 238.735 373.995 238.79 374.195C238.845 374.395 238.84 374.607 238.776 374.804C238.712 375.001 238.591 375.175 238.429 375.304C238.266 375.433 238.07 375.512 237.863 375.53Z" fill="black"/>
<path opacity="0.3" d="M238.073 372.707C237.931 372.71 237.79 372.682 237.661 372.622C224.108 366.607 203.599 365.814 189.962 370.762C189.829 370.857 189.676 370.92 189.516 370.946C189.355 370.972 189.19 370.96 189.034 370.912C188.878 370.864 188.736 370.78 188.618 370.668C188.499 370.556 188.409 370.417 188.353 370.264C188.297 370.111 188.278 369.947 188.296 369.785C188.314 369.623 188.369 369.467 188.457 369.33C188.545 369.193 188.664 369.078 188.804 368.995C188.944 368.911 189.101 368.861 189.264 368.848C203.345 363.731 224.499 364.556 238.486 370.762C238.726 370.879 238.912 371.082 239.008 371.331C239.105 371.58 239.103 371.856 239.004 372.104C238.92 372.281 238.788 372.431 238.624 372.537C238.46 372.644 238.269 372.702 238.073 372.707Z" fill="black"/>
<path opacity="0.3" d="M238.03 369.853C237.89 369.851 237.751 369.821 237.622 369.765C237.493 369.708 237.377 369.627 237.28 369.525C227.226 358.594 214.202 354.725 194.993 356.934C194.842 356.997 194.679 357.025 194.516 357.014C194.353 357.004 194.194 356.955 194.053 356.873C193.911 356.791 193.791 356.677 193.701 356.54C193.611 356.404 193.554 356.248 193.535 356.086C193.515 355.923 193.534 355.759 193.589 355.605C193.643 355.451 193.733 355.311 193.851 355.198C193.969 355.085 194.111 355 194.267 354.951C194.423 354.902 194.588 354.89 194.75 354.915C214.371 352.632 228.347 356.839 238.739 368.151C238.856 368.301 238.93 368.481 238.953 368.67C238.976 368.859 238.948 369.051 238.871 369.226C238.794 369.4 238.671 369.55 238.516 369.661C238.361 369.771 238.178 369.838 237.988 369.853H238.03Z" fill="black"/>
<path opacity="0.3" d="M237.269 365.709C236.999 365.702 236.742 365.592 236.55 365.402C223.981 352.864 206.252 351.056 198.228 353.773C197.996 353.788 197.765 353.727 197.571 353.597C197.378 353.468 197.232 353.278 197.157 353.058C197.083 352.837 197.083 352.598 197.158 352.378C197.233 352.157 197.379 351.968 197.572 351.839C206.083 348.953 224.816 350.781 237.988 363.954C238.169 364.149 238.27 364.406 238.27 364.673C238.27 364.939 238.169 365.196 237.988 365.391C237.798 365.586 237.541 365.699 237.269 365.709Z" fill="black"/>
<path opacity="0.3" d="M232.576 387.634C232.482 387.65 232.386 387.65 232.291 387.634C207.976 380.435 190.099 364.091 189.93 363.922C189.809 363.726 189.755 363.496 189.776 363.267C189.797 363.037 189.893 362.821 190.049 362.651C190.205 362.481 190.411 362.366 190.638 362.325C190.865 362.283 191.099 362.317 191.305 362.421C191.484 362.59 209.033 378.617 232.872 385.679C233.076 385.776 233.243 385.936 233.349 386.136C233.455 386.335 233.494 386.563 233.461 386.787C233.428 387.01 233.324 387.217 233.165 387.377C233.006 387.537 232.8 387.642 232.576 387.677V387.634Z" fill="black"/>
<path opacity="0.3" d="M233.063 387.011C232.925 387.009 232.789 386.98 232.662 386.926C217.949 380.357 203.854 372.485 190.544 363.404C190.389 363.35 190.25 363.261 190.135 363.144C190.021 363.026 189.936 362.884 189.886 362.728C189.836 362.572 189.823 362.407 189.848 362.245C189.873 362.083 189.935 361.93 190.03 361.796C190.124 361.662 190.249 361.552 190.393 361.475C190.537 361.398 190.697 361.355 190.861 361.35C191.024 361.345 191.187 361.378 191.336 361.446C191.484 361.515 191.615 361.617 191.717 361.744C204.91 370.744 218.882 378.546 233.465 385.055C233.653 385.167 233.802 385.336 233.891 385.536C233.979 385.737 234.003 385.961 233.959 386.176C233.915 386.39 233.805 386.586 233.644 386.736C233.484 386.886 233.281 386.982 233.063 387.011Z" fill="black"/>
<path opacity="0.3" d="M233.961 385.752C233.795 385.755 233.632 385.715 233.486 385.636C212.691 374.451 190.892 363.594 190.681 363.488C190.508 363.335 190.39 363.129 190.346 362.902C190.301 362.675 190.333 362.44 190.435 362.232C190.536 362.025 190.704 361.856 190.91 361.753C191.117 361.649 191.352 361.617 191.58 361.659C191.802 361.765 213.632 372.643 234.448 383.86C234.622 383.983 234.756 384.157 234.83 384.358C234.904 384.558 234.915 384.777 234.863 384.984C234.81 385.191 234.695 385.378 234.535 385.519C234.374 385.66 234.174 385.749 233.961 385.773V385.752Z" fill="black"/>
<path opacity="0.3" d="M234.691 384.632C234.465 384.636 234.244 384.561 234.067 384.42C215.186 369.62 191.453 362.748 191.209 362.685C191.009 362.566 190.853 362.384 190.766 362.167C190.68 361.95 190.668 361.71 190.732 361.486C190.796 361.261 190.932 361.064 191.12 360.925C191.308 360.787 191.536 360.714 191.77 360.718C192.013 360.792 216.085 367.749 235.325 382.813C235.528 382.986 235.658 383.229 235.69 383.494C235.721 383.758 235.651 384.025 235.494 384.24C235.4 384.364 235.279 384.464 235.139 384.531C234.999 384.599 234.846 384.634 234.691 384.632Z" fill="black"/>
<path opacity="0.3" d="M236.636 380.53C236.402 380.529 236.175 380.451 235.991 380.308C218.695 366.1 191.59 362.748 191.357 362.717C191.14 362.631 190.958 362.475 190.838 362.275C190.719 362.074 190.669 361.84 190.697 361.608C190.725 361.377 190.828 361.16 190.992 360.994C191.155 360.827 191.369 360.719 191.6 360.687C191.875 360.687 219.52 364.144 237.291 378.733C237.489 378.91 237.613 379.155 237.639 379.42C237.664 379.684 237.589 379.948 237.428 380.16C237.33 380.275 237.209 380.367 237.072 380.431C236.935 380.495 236.787 380.529 236.636 380.53Z" fill="black"/>
<path opacity="0.3" d="M204.761 394.707C204.558 394.685 204.365 394.605 204.206 394.476C204.048 394.346 203.93 394.174 203.867 393.979C203.805 393.785 203.8 393.576 203.853 393.379C203.907 393.181 204.017 393.004 204.169 392.867C223.441 378.923 234.446 359.577 234.552 359.387C234.592 359.229 234.668 359.083 234.774 358.96C234.88 358.836 235.012 358.739 235.162 358.675C235.311 358.611 235.473 358.583 235.635 358.592C235.798 358.601 235.956 358.647 236.097 358.727C236.238 358.807 236.36 358.919 236.451 359.053C236.542 359.187 236.601 359.341 236.624 359.502C236.646 359.663 236.631 359.827 236.58 359.981C236.529 360.135 236.442 360.276 236.328 360.391C236.223 360.581 224.995 380.319 205.364 394.516C205.187 394.64 204.977 394.706 204.761 394.707Z" fill="black"/>
</g>
</svg>
