<svg width="1440" height="876" viewBox="0 0 1440 876" fill="none" xmlns="http://www.w3.org/2000/svg">
<path d="M-6.82555e-07 111.189L16.5972 94.7348L-2.19837e-06 78.2983L-2.64639e-06 68.5768L26.4122 94.7334L-2.34172e-07 120.919L-6.82555e-07 111.189Z" fill="#00B7AB" fill-opacity="0.21"/>
<path d="M-5.07951e-06 15.7811L-5.52789e-06 6.0519L26.4115 32.2363L-3.11444e-06 58.4206L-3.56282e-06 48.6914L16.5979 32.2363L-5.07951e-06 15.7811Z" fill="#00B7AB" fill-opacity="0.21"/>
<path d="M24.9382 126L15.1246 126L46.6607 94.7348L15.1235 63.5029L46.6613 32.2362L15.1242 0.970298L24.9378 0.970321L56.475 32.2362L24.9385 63.5015L56.4757 94.7334L24.9382 126Z" fill="#00B7AB" fill-opacity="0.21"/>
<path d="M55.0017 126L45.1881 126L76.7242 94.7348L45.187 63.5029L76.7248 32.2362L45.1877 0.970297L55.0013 0.970319L86.5385 32.2362L55.002 63.5015L86.5392 94.7334L55.0017 126Z" fill="#00B7AB" fill-opacity="0.21"/>
<path d="M85.0652 126L75.2516 126L106.788 94.7348L75.2504 63.5029L106.788 32.2362L75.2511 0.970296L85.0648 0.970318L116.602 32.2362L85.0655 63.5015L116.603 94.7334L85.0652 126Z" fill="#00B7AB" fill-opacity="0.21"/>
<path d="M115.129 126L105.315 126L136.851 94.7348L105.314 63.5028L136.852 32.2362L105.315 0.970294L115.128 0.970317L146.665 32.2362L115.129 63.5015L146.666 94.7334L115.129 126Z" fill="#00B7AB" fill-opacity="0.21"/>
<path d="M145.192 126L135.379 126L166.915 94.7348L135.377 63.5028L166.915 32.2362L135.378 0.970293L145.192 0.970316L176.729 32.2362L145.192 63.5015L176.73 94.7334L145.192 126Z" fill="#00B7AB" fill-opacity="0.21"/>
<path d="M175.256 126L165.442 126L196.978 94.7348L165.441 63.5028L196.979 32.2362L165.442 0.970292L175.255 0.970314L206.792 32.2362L175.256 63.5015L206.793 94.7334L175.256 126Z" fill="#00B7AB" fill-opacity="0.21"/>
<path d="M205.319 126L195.506 126L210.446 111.188L210.446 120.917L205.319 126Z" fill="#00B7AB" fill-opacity="0.21"/>
<path d="M210.446 58.4191L205.319 63.5015L210.446 68.5783L210.446 78.2997L195.504 63.5028L210.446 48.6898L210.446 58.4191Z" fill="#00B7AB" fill-opacity="0.21"/>
<path d="M195.505 0.970291L210.446 15.7826L210.446 6.05335L205.319 0.970313L195.505 0.970291Z" fill="#00B7AB" fill-opacity="0.21"/>
<path d="M210 111.189L226.597 94.7348L210 78.2983L210 68.5768L236.412 94.7334L210 120.919L210 111.189Z" fill="#00B7AB" fill-opacity="0.21"/>
<path d="M210 15.7811L210 6.0519L236.412 32.2363L210 58.4206L210 48.6914L226.598 32.2363L210 15.7811Z" fill="#00B7AB" fill-opacity="0.21"/>
<path d="M234.938 126L225.125 126L256.661 94.7348L225.123 63.5029L256.661 32.2362L225.124 0.970298L234.938 0.970321L266.475 32.2362L234.939 63.5015L266.476 94.7334L234.938 126Z" fill="#00B7AB" fill-opacity="0.21"/>
<path d="M265.002 126L255.188 126L286.724 94.7348L255.187 63.5029L286.725 32.2362L255.188 0.970297L265.001 0.970319L296.539 32.2362L265.002 63.5015L296.539 94.7334L265.002 126Z" fill="#00B7AB" fill-opacity="0.21"/>
<path d="M295.065 126L285.252 126L316.788 94.7348L285.25 63.5029L316.788 32.2362L285.251 0.970296L295.065 0.970318L326.602 32.2362L295.065 63.5015L326.603 94.7334L295.065 126Z" fill="#00B7AB" fill-opacity="0.21"/>
<path d="M325.129 126L315.315 126L346.851 94.7348L315.314 63.5028L346.852 32.2362L315.315 0.970294L325.128 0.970317L356.665 32.2362L325.129 63.5015L356.666 94.7334L325.129 126Z" fill="#00B7AB" fill-opacity="0.21"/>
<path d="M355.192 126L345.379 126L376.915 94.7348L345.377 63.5028L376.915 32.2362L345.378 0.970293L355.192 0.970316L386.729 32.2362L355.192 63.5015L386.73 94.7334L355.192 126Z" fill="#00B7AB" fill-opacity="0.21"/>
<path d="M385.256 126L375.442 126L406.978 94.7348L375.441 63.5028L406.979 32.2362L375.442 0.970292L385.255 0.970314L416.792 32.2362L385.256 63.5015L416.793 94.7334L385.256 126Z" fill="#00B7AB" fill-opacity="0.21"/>
<path d="M415.319 126L405.506 126L420.446 111.188L420.446 120.917L415.319 126Z" fill="#00B7AB" fill-opacity="0.21"/>
<path d="M420.446 58.4191L415.319 63.5015L420.446 68.5783L420.446 78.2997L405.504 63.5028L420.446 48.6898L420.446 58.4191Z" fill="#00B7AB" fill-opacity="0.21"/>
<path d="M405.505 0.970291L420.446 15.7826L420.446 6.05335L415.319 0.970313L405.505 0.970291Z" fill="#00B7AB" fill-opacity="0.21"/>
<path d="M420 111.189L436.597 94.7348L420 78.2983L420 68.5768L446.412 94.7334L420 120.919L420 111.189Z" fill="#00B7AB" fill-opacity="0.21"/>
<path d="M420 15.7811L420 6.0519L446.412 32.2363L420 58.4206L420 48.6914L436.598 32.2363L420 15.7811Z" fill="#00B7AB" fill-opacity="0.21"/>
<path d="M444.938 126L435.125 126L466.661 94.7348L435.123 63.5029L466.661 32.2362L435.124 0.970298L444.938 0.970321L476.475 32.2362L444.939 63.5015L476.476 94.7334L444.938 126Z" fill="#00B7AB" fill-opacity="0.21"/>
<path d="M475.002 126L465.188 126L496.724 94.7348L465.187 63.5029L496.725 32.2362L465.188 0.970297L475.001 0.970319L506.539 32.2362L475.002 63.5015L506.539 94.7334L475.002 126Z" fill="#00B7AB" fill-opacity="0.21"/>
<path d="M505.065 126L495.252 126L526.788 94.7348L495.25 63.5029L526.788 32.2362L495.251 0.970296L505.065 0.970318L536.602 32.2362L505.065 63.5015L536.603 94.7334L505.065 126Z" fill="#00B7AB" fill-opacity="0.21"/>
<path d="M535.129 126L525.315 126L556.851 94.7348L525.314 63.5028L556.852 32.2362L525.315 0.970294L535.128 0.970317L566.665 32.2362L535.129 63.5015L566.666 94.7334L535.129 126Z" fill="#00B7AB" fill-opacity="0.21"/>
<path d="M565.192 126L555.379 126L586.915 94.7348L555.377 63.5028L586.915 32.2362L555.378 0.970293L565.192 0.970316L596.729 32.2362L565.192 63.5015L596.73 94.7334L565.192 126Z" fill="#00B7AB" fill-opacity="0.21"/>
<path d="M595.256 126L585.442 126L616.978 94.7348L585.441 63.5028L616.979 32.2362L585.442 0.970292L595.255 0.970314L626.792 32.2362L595.256 63.5015L626.793 94.7334L595.256 126Z" fill="#00B7AB" fill-opacity="0.21"/>
<path d="M625.319 126L615.506 126L630.446 111.188L630.446 120.917L625.319 126Z" fill="#00B7AB" fill-opacity="0.21"/>
<path d="M630.446 58.4191L625.319 63.5015L630.446 68.5783L630.446 78.2997L615.504 63.5028L630.446 48.6898L630.446 58.4191Z" fill="#00B7AB" fill-opacity="0.21"/>
<path d="M615.505 0.970291L630.446 15.7826L630.446 6.05335L625.319 0.970313L615.505 0.970291Z" fill="#00B7AB" fill-opacity="0.21"/>
<path d="M630 111.189L646.597 94.7348L630 78.2983L630 68.5768L656.412 94.7334L630 120.919L630 111.189Z" fill="#00B7AB" fill-opacity="0.21"/>
<path d="M630 15.7811L630 6.0519L656.412 32.2363L630 58.4206L630 48.6914L646.598 32.2363L630 15.7811Z" fill="#00B7AB" fill-opacity="0.21"/>
<path d="M654.938 126L645.125 126L676.661 94.7348L645.123 63.5029L676.661 32.2362L645.124 0.970298L654.938 0.970321L686.475 32.2362L654.939 63.5015L686.476 94.7334L654.938 126Z" fill="#00B7AB" fill-opacity="0.21"/>
<path d="M685.002 126L675.188 126L706.724 94.7348L675.187 63.5029L706.725 32.2362L675.188 0.970297L685.001 0.970319L716.539 32.2362L685.002 63.5015L716.539 94.7334L685.002 126Z" fill="#00B7AB" fill-opacity="0.21"/>
<path d="M715.065 126L705.252 126L736.788 94.7348L705.25 63.5029L736.788 32.2362L705.251 0.970296L715.065 0.970318L746.602 32.2362L715.065 63.5015L746.603 94.7334L715.065 126Z" fill="#00B7AB" fill-opacity="0.21"/>
<path d="M745.129 126L735.315 126L766.851 94.7348L735.314 63.5028L766.852 32.2362L735.315 0.970294L745.128 0.970317L776.665 32.2362L745.129 63.5015L776.666 94.7334L745.129 126Z" fill="#00B7AB" fill-opacity="0.21"/>
<path d="M775.192 126L765.379 126L796.915 94.7348L765.377 63.5028L796.915 32.2362L765.378 0.970293L775.192 0.970316L806.729 32.2362L775.192 63.5015L806.73 94.7334L775.192 126Z" fill="#00B7AB" fill-opacity="0.21"/>
<path d="M805.256 126L795.442 126L826.978 94.7348L795.441 63.5028L826.979 32.2362L795.442 0.970292L805.255 0.970314L836.792 32.2362L805.256 63.5015L836.793 94.7334L805.256 126Z" fill="#00B7AB" fill-opacity="0.21"/>
<path d="M835.319 126L825.506 126L840.446 111.188L840.446 120.917L835.319 126Z" fill="#00B7AB" fill-opacity="0.21"/>
<path d="M840.446 58.4191L835.319 63.5015L840.446 68.5783L840.446 78.2997L825.504 63.5028L840.446 48.6898L840.446 58.4191Z" fill="#00B7AB" fill-opacity="0.21"/>
<path d="M825.505 0.970291L840.446 15.7826L840.446 6.05335L835.319 0.970313L825.505 0.970291Z" fill="#00B7AB" fill-opacity="0.21"/>
<path d="M840 111.189L856.597 94.7348L840 78.2983L840 68.5768L866.412 94.7334L840 120.919L840 111.189Z" fill="#00B7AB" fill-opacity="0.21"/>
<path d="M840 15.7811L840 6.0519L866.412 32.2363L840 58.4206L840 48.6914L856.598 32.2363L840 15.7811Z" fill="#00B7AB" fill-opacity="0.21"/>
<path d="M864.938 126L855.125 126L886.661 94.7348L855.123 63.5029L886.661 32.2362L855.124 0.970298L864.938 0.970321L896.475 32.2362L864.939 63.5015L896.476 94.7334L864.938 126Z" fill="#00B7AB" fill-opacity="0.21"/>
<path d="M895.002 126L885.188 126L916.724 94.7348L885.187 63.5029L916.725 32.2362L885.188 0.970297L895.001 0.970319L926.539 32.2362L895.002 63.5015L926.539 94.7334L895.002 126Z" fill="#00B7AB" fill-opacity="0.21"/>
<path d="M925.065 126L915.252 126L946.788 94.7348L915.25 63.5029L946.788 32.2362L915.251 0.970296L925.065 0.970318L956.602 32.2362L925.065 63.5015L956.603 94.7334L925.065 126Z" fill="#00B7AB" fill-opacity="0.21"/>
<path d="M955.129 126L945.315 126L976.851 94.7348L945.314 63.5028L976.852 32.2362L945.315 0.970294L955.128 0.970317L986.665 32.2362L955.129 63.5015L986.666 94.7334L955.129 126Z" fill="#00B7AB" fill-opacity="0.21"/>
<path d="M985.192 126L975.379 126L1006.91 94.7348L975.377 63.5028L1006.92 32.2362L975.378 0.970293L985.192 0.970316L1016.73 32.2362L985.192 63.5015L1016.73 94.7334L985.192 126Z" fill="#00B7AB" fill-opacity="0.21"/>
<path d="M1015.26 126L1005.44 126L1036.98 94.7348L1005.44 63.5028L1036.98 32.2362L1005.44 0.970292L1015.26 0.970314L1046.79 32.2362L1015.26 63.5015L1046.79 94.7334L1015.26 126Z" fill="#00B7AB" fill-opacity="0.21"/>
<path d="M1045.32 126L1035.51 126L1050.45 111.188L1050.45 120.917L1045.32 126Z" fill="#00B7AB" fill-opacity="0.21"/>
<path d="M1050.45 58.4191L1045.32 63.5015L1050.45 68.5783L1050.45 78.2997L1035.5 63.5028L1050.45 48.6898L1050.45 58.4191Z" fill="#00B7AB" fill-opacity="0.21"/>
<path d="M1035.51 0.970291L1050.45 15.7826L1050.45 6.05335L1045.32 0.970313L1035.51 0.970291Z" fill="#00B7AB" fill-opacity="0.21"/>
<path d="M1050 111.189L1066.6 94.7348L1050 78.2983L1050 68.5768L1076.41 94.7334L1050 120.919L1050 111.189Z" fill="#00B7AB" fill-opacity="0.21"/>
<path d="M1050 15.7811L1050 6.0519L1076.41 32.2363L1050 58.4206L1050 48.6914L1066.6 32.2363L1050 15.7811Z" fill="#00B7AB" fill-opacity="0.21"/>
<path d="M1074.94 126L1065.12 126L1096.66 94.7348L1065.12 63.5029L1096.66 32.2362L1065.12 0.970298L1074.94 0.970321L1106.47 32.2362L1074.94 63.5015L1106.48 94.7334L1074.94 126Z" fill="#00B7AB" fill-opacity="0.21"/>
<path d="M1105 126L1095.19 126L1126.72 94.7348L1095.19 63.5029L1126.72 32.2362L1095.19 0.970297L1105 0.970319L1136.54 32.2362L1105 63.5015L1136.54 94.7334L1105 126Z" fill="#00B7AB" fill-opacity="0.21"/>
<path d="M1135.07 126L1125.25 126L1156.79 94.7348L1125.25 63.5029L1156.79 32.2362L1125.25 0.970296L1135.06 0.970318L1166.6 32.2362L1135.07 63.5015L1166.6 94.7334L1135.07 126Z" fill="#00B7AB" fill-opacity="0.21"/>
<path d="M1165.13 126L1155.32 126L1186.85 94.7348L1155.31 63.5028L1186.85 32.2362L1155.31 0.970294L1165.13 0.970317L1196.67 32.2362L1165.13 63.5015L1196.67 94.7334L1165.13 126Z" fill="#00B7AB" fill-opacity="0.21"/>
<path d="M1195.19 126L1185.38 126L1216.91 94.7348L1185.38 63.5028L1216.92 32.2362L1185.38 0.970293L1195.19 0.970316L1226.73 32.2362L1195.19 63.5015L1226.73 94.7334L1195.19 126Z" fill="#00B7AB" fill-opacity="0.21"/>
<path d="M1225.26 126L1215.44 126L1246.98 94.7348L1215.44 63.5028L1246.98 32.2362L1215.44 0.970292L1225.26 0.970314L1256.79 32.2362L1225.26 63.5015L1256.79 94.7334L1225.26 126Z" fill="#00B7AB" fill-opacity="0.21"/>
<path d="M1255.32 126L1245.51 126L1260.45 111.188L1260.45 120.917L1255.32 126Z" fill="#00B7AB" fill-opacity="0.21"/>
<path d="M1260.45 58.4191L1255.32 63.5015L1260.45 68.5783L1260.45 78.2997L1245.5 63.5028L1260.45 48.6898L1260.45 58.4191Z" fill="#00B7AB" fill-opacity="0.21"/>
<path d="M1245.51 0.970291L1260.45 15.7826L1260.45 6.05335L1255.32 0.970313L1245.51 0.970291Z" fill="#00B7AB" fill-opacity="0.21"/>
<path d="M1260 111.189L1276.6 94.7348L1260 78.2983L1260 68.5768L1286.41 94.7334L1260 120.919L1260 111.189Z" fill="#00B7AB" fill-opacity="0.21"/>
<path d="M1260 15.7811L1260 6.0519L1286.41 32.2363L1260 58.4206L1260 48.6914L1276.6 32.2363L1260 15.7811Z" fill="#00B7AB" fill-opacity="0.21"/>
<path d="M1284.94 126L1275.12 126L1306.66 94.7348L1275.12 63.5029L1306.66 32.2362L1275.12 0.970298L1284.94 0.970321L1316.47 32.2362L1284.94 63.5015L1316.48 94.7334L1284.94 126Z" fill="#00B7AB" fill-opacity="0.21"/>
<path d="M1315 126L1305.19 126L1336.72 94.7348L1305.19 63.5029L1336.72 32.2362L1305.19 0.970297L1315 0.970319L1346.54 32.2362L1315 63.5015L1346.54 94.7334L1315 126Z" fill="#00B7AB" fill-opacity="0.21"/>
<path d="M1345.07 126L1335.25 126L1366.79 94.7348L1335.25 63.5029L1366.79 32.2362L1335.25 0.970296L1345.06 0.970318L1376.6 32.2362L1345.07 63.5015L1376.6 94.7334L1345.07 126Z" fill="#00B7AB" fill-opacity="0.21"/>
<path d="M1375.13 126L1365.32 126L1396.85 94.7348L1365.31 63.5028L1396.85 32.2362L1365.31 0.970294L1375.13 0.970317L1406.67 32.2362L1375.13 63.5015L1406.67 94.7334L1375.13 126Z" fill="#00B7AB" fill-opacity="0.21"/>
<path d="M1405.19 126L1395.38 126L1426.91 94.7348L1395.38 63.5028L1426.92 32.2362L1395.38 0.970293L1405.19 0.970316L1436.73 32.2362L1405.19 63.5015L1436.73 94.7334L1405.19 126Z" fill="#00B7AB" fill-opacity="0.21"/>
<path d="M1435.26 126L1425.44 126L1456.98 94.7348L1425.44 63.5028L1456.98 32.2362L1425.44 0.970292L1435.26 0.970314L1466.79 32.2362L1435.26 63.5015L1466.79 94.7334L1435.26 126Z" fill="#00B7AB" fill-opacity="0.21"/>
<path d="M1465.32 126L1455.51 126L1470.45 111.188L1470.45 120.917L1465.32 126Z" fill="#00B7AB" fill-opacity="0.21"/>
<path d="M1470.45 58.4191L1465.32 63.5015L1470.45 68.5783L1470.45 78.2997L1455.5 63.5028L1470.45 48.6898L1470.45 58.4191Z" fill="#00B7AB" fill-opacity="0.21"/>
<path d="M1455.51 0.970291L1470.45 15.7826L1470.45 6.05335L1465.32 0.970313L1455.51 0.970291Z" fill="#00B7AB" fill-opacity="0.21"/>
<path d="M-6.82555e-07 236.189L16.5972 219.735L-2.19837e-06 203.298L-2.64639e-06 193.577L26.4122 219.733L-2.34172e-07 245.919L-6.82555e-07 236.189Z" fill="#00B7AB" fill-opacity="0.21"/>
<path d="M-5.07951e-06 140.781L-5.52789e-06 131.052L26.4115 157.236L-3.11444e-06 183.421L-3.56282e-06 173.691L16.5979 157.236L-5.07951e-06 140.781Z" fill="#00B7AB" fill-opacity="0.21"/>
<path d="M24.9382 251L15.1246 251L46.6607 219.735L15.1235 188.503L46.6613 157.236L15.1242 125.97L24.9378 125.97L56.475 157.236L24.9385 188.501L56.4757 219.733L24.9382 251Z" fill="#00B7AB" fill-opacity="0.21"/>
<path d="M55.0017 251L45.1881 251L76.7242 219.735L45.187 188.503L76.7248 157.236L45.1877 125.97L55.0013 125.97L86.5385 157.236L55.002 188.501L86.5392 219.733L55.0017 251Z" fill="#00B7AB" fill-opacity="0.21"/>
<path d="M85.0652 251L75.2516 251L106.788 219.735L75.2504 188.503L106.788 157.236L75.2511 125.97L85.0648 125.97L116.602 157.236L85.0655 188.501L116.603 219.733L85.0652 251Z" fill="#00B7AB" fill-opacity="0.21"/>
<path d="M115.129 251L105.315 251L136.851 219.735L105.314 188.503L136.852 157.236L105.315 125.97L115.128 125.97L146.665 157.236L115.129 188.501L146.666 219.733L115.129 251Z" fill="#00B7AB" fill-opacity="0.21"/>
<path d="M145.192 251L135.379 251L166.915 219.735L135.377 188.503L166.915 157.236L135.378 125.97L145.192 125.97L176.729 157.236L145.192 188.501L176.73 219.733L145.192 251Z" fill="#00B7AB" fill-opacity="0.21"/>
<path d="M175.256 251L165.442 251L196.978 219.735L165.441 188.503L196.979 157.236L165.442 125.97L175.255 125.97L206.792 157.236L175.256 188.501L206.793 219.733L175.256 251Z" fill="#00B7AB" fill-opacity="0.21"/>
<path d="M205.319 251L195.506 251L210.446 236.188L210.446 245.917L205.319 251Z" fill="#00B7AB" fill-opacity="0.21"/>
<path d="M210.446 183.419L205.319 188.501L210.446 193.578L210.446 203.3L195.504 188.503L210.446 173.69L210.446 183.419Z" fill="#00B7AB" fill-opacity="0.21"/>
<path d="M195.505 125.97L210.446 140.783L210.446 131.053L205.319 125.97L195.505 125.97Z" fill="#00B7AB" fill-opacity="0.21"/>
<path d="M210 236.189L226.597 219.735L210 203.298L210 193.577L236.412 219.733L210 245.919L210 236.189Z" fill="#00B7AB" fill-opacity="0.21"/>
<path d="M210 140.781L210 131.052L236.412 157.236L210 183.421L210 173.691L226.598 157.236L210 140.781Z" fill="#00B7AB" fill-opacity="0.21"/>
<path d="M234.938 251L225.125 251L256.661 219.735L225.123 188.503L256.661 157.236L225.124 125.97L234.938 125.97L266.475 157.236L234.939 188.501L266.476 219.733L234.938 251Z" fill="#00B7AB" fill-opacity="0.21"/>
<path d="M265.002 251L255.188 251L286.724 219.735L255.187 188.503L286.725 157.236L255.188 125.97L265.001 125.97L296.539 157.236L265.002 188.501L296.539 219.733L265.002 251Z" fill="#00B7AB" fill-opacity="0.21"/>
<path d="M295.065 251L285.252 251L316.788 219.735L285.25 188.503L316.788 157.236L285.251 125.97L295.065 125.97L326.602 157.236L295.065 188.501L326.603 219.733L295.065 251Z" fill="#00B7AB" fill-opacity="0.21"/>
<path d="M325.129 251L315.315 251L346.851 219.735L315.314 188.503L346.852 157.236L315.315 125.97L325.128 125.97L356.665 157.236L325.129 188.501L356.666 219.733L325.129 251Z" fill="#00B7AB" fill-opacity="0.21"/>
<path d="M355.192 251L345.379 251L376.915 219.735L345.377 188.503L376.915 157.236L345.378 125.97L355.192 125.97L386.729 157.236L355.192 188.501L386.73 219.733L355.192 251Z" fill="#00B7AB" fill-opacity="0.21"/>
<path d="M385.256 251L375.442 251L406.978 219.735L375.441 188.503L406.979 157.236L375.442 125.97L385.255 125.97L416.792 157.236L385.256 188.501L416.793 219.733L385.256 251Z" fill="#00B7AB" fill-opacity="0.21"/>
<path d="M415.319 251L405.506 251L420.446 236.188L420.446 245.917L415.319 251Z" fill="#00B7AB" fill-opacity="0.21"/>
<path d="M420.446 183.419L415.319 188.501L420.446 193.578L420.446 203.3L405.504 188.503L420.446 173.69L420.446 183.419Z" fill="#00B7AB" fill-opacity="0.21"/>
<path d="M405.505 125.97L420.446 140.783L420.446 131.053L415.319 125.97L405.505 125.97Z" fill="#00B7AB" fill-opacity="0.21"/>
<path d="M420 236.189L436.597 219.735L420 203.298L420 193.577L446.412 219.733L420 245.919L420 236.189Z" fill="#00B7AB" fill-opacity="0.21"/>
<path d="M420 140.781L420 131.052L446.412 157.236L420 183.421L420 173.691L436.598 157.236L420 140.781Z" fill="#00B7AB" fill-opacity="0.21"/>
<path d="M444.938 251L435.125 251L466.661 219.735L435.123 188.503L466.661 157.236L435.124 125.97L444.938 125.97L476.475 157.236L444.939 188.501L476.476 219.733L444.938 251Z" fill="#00B7AB" fill-opacity="0.21"/>
<path d="M475.002 251L465.188 251L496.724 219.735L465.187 188.503L496.725 157.236L465.188 125.97L475.001 125.97L506.539 157.236L475.002 188.501L506.539 219.733L475.002 251Z" fill="#00B7AB" fill-opacity="0.21"/>
<path d="M505.065 251L495.252 251L526.788 219.735L495.25 188.503L526.788 157.236L495.251 125.97L505.065 125.97L536.602 157.236L505.065 188.501L536.603 219.733L505.065 251Z" fill="#00B7AB" fill-opacity="0.21"/>
<path d="M535.129 251L525.315 251L556.851 219.735L525.314 188.503L556.852 157.236L525.315 125.97L535.128 125.97L566.665 157.236L535.129 188.501L566.666 219.733L535.129 251Z" fill="#00B7AB" fill-opacity="0.21"/>
<path d="M565.192 251L555.379 251L586.915 219.735L555.377 188.503L586.915 157.236L555.378 125.97L565.192 125.97L596.729 157.236L565.192 188.501L596.73 219.733L565.192 251Z" fill="#00B7AB" fill-opacity="0.21"/>
<path d="M595.256 251L585.442 251L616.978 219.735L585.441 188.503L616.979 157.236L585.442 125.97L595.255 125.97L626.792 157.236L595.256 188.501L626.793 219.733L595.256 251Z" fill="#00B7AB" fill-opacity="0.21"/>
<path d="M625.319 251L615.506 251L630.446 236.188L630.446 245.917L625.319 251Z" fill="#00B7AB" fill-opacity="0.21"/>
<path d="M630.446 183.419L625.319 188.501L630.446 193.578L630.446 203.3L615.504 188.503L630.446 173.69L630.446 183.419Z" fill="#00B7AB" fill-opacity="0.21"/>
<path d="M615.505 125.97L630.446 140.783L630.446 131.053L625.319 125.97L615.505 125.97Z" fill="#00B7AB" fill-opacity="0.21"/>
<path d="M630 236.189L646.597 219.735L630 203.298L630 193.577L656.412 219.733L630 245.919L630 236.189Z" fill="#00B7AB" fill-opacity="0.21"/>
<path d="M630 140.781L630 131.052L656.412 157.236L630 183.421L630 173.691L646.598 157.236L630 140.781Z" fill="#00B7AB" fill-opacity="0.21"/>
<path d="M654.938 251L645.125 251L676.661 219.735L645.123 188.503L676.661 157.236L645.124 125.97L654.938 125.97L686.475 157.236L654.939 188.501L686.476 219.733L654.938 251Z" fill="#00B7AB" fill-opacity="0.21"/>
<path d="M685.002 251L675.188 251L706.724 219.735L675.187 188.503L706.725 157.236L675.188 125.97L685.001 125.97L716.539 157.236L685.002 188.501L716.539 219.733L685.002 251Z" fill="#00B7AB" fill-opacity="0.21"/>
<path d="M715.065 251L705.252 251L736.788 219.735L705.25 188.503L736.788 157.236L705.251 125.97L715.065 125.97L746.602 157.236L715.065 188.501L746.603 219.733L715.065 251Z" fill="#00B7AB" fill-opacity="0.21"/>
<path d="M745.129 251L735.315 251L766.851 219.735L735.314 188.503L766.852 157.236L735.315 125.97L745.128 125.97L776.665 157.236L745.129 188.501L776.666 219.733L745.129 251Z" fill="#00B7AB" fill-opacity="0.21"/>
<path d="M775.192 251L765.379 251L796.915 219.735L765.377 188.503L796.915 157.236L765.378 125.97L775.192 125.97L806.729 157.236L775.192 188.501L806.73 219.733L775.192 251Z" fill="#00B7AB" fill-opacity="0.21"/>
<path d="M805.256 251L795.442 251L826.978 219.735L795.441 188.503L826.979 157.236L795.442 125.97L805.255 125.97L836.792 157.236L805.256 188.501L836.793 219.733L805.256 251Z" fill="#00B7AB" fill-opacity="0.21"/>
<path d="M835.319 251L825.506 251L840.446 236.188L840.446 245.917L835.319 251Z" fill="#00B7AB" fill-opacity="0.21"/>
<path d="M840.446 183.419L835.319 188.501L840.446 193.578L840.446 203.3L825.504 188.503L840.446 173.69L840.446 183.419Z" fill="#00B7AB" fill-opacity="0.21"/>
<path d="M825.505 125.97L840.446 140.783L840.446 131.053L835.319 125.97L825.505 125.97Z" fill="#00B7AB" fill-opacity="0.21"/>
<path d="M840 236.189L856.597 219.735L840 203.298L840 193.577L866.412 219.733L840 245.919L840 236.189Z" fill="#00B7AB" fill-opacity="0.21"/>
<path d="M840 140.781L840 131.052L866.412 157.236L840 183.421L840 173.691L856.598 157.236L840 140.781Z" fill="#00B7AB" fill-opacity="0.21"/>
<path d="M864.938 251L855.125 251L886.661 219.735L855.123 188.503L886.661 157.236L855.124 125.97L864.938 125.97L896.475 157.236L864.939 188.501L896.476 219.733L864.938 251Z" fill="#00B7AB" fill-opacity="0.21"/>
<path d="M895.002 251L885.188 251L916.724 219.735L885.187 188.503L916.725 157.236L885.188 125.97L895.001 125.97L926.539 157.236L895.002 188.501L926.539 219.733L895.002 251Z" fill="#00B7AB" fill-opacity="0.21"/>
<path d="M925.065 251L915.252 251L946.788 219.735L915.25 188.503L946.788 157.236L915.251 125.97L925.065 125.97L956.602 157.236L925.065 188.501L956.603 219.733L925.065 251Z" fill="#00B7AB" fill-opacity="0.21"/>
<path d="M955.129 251L945.315 251L976.851 219.735L945.314 188.503L976.852 157.236L945.315 125.97L955.128 125.97L986.665 157.236L955.129 188.501L986.666 219.733L955.129 251Z" fill="#00B7AB" fill-opacity="0.21"/>
<path d="M985.192 251L975.379 251L1006.91 219.735L975.377 188.503L1006.92 157.236L975.378 125.97L985.192 125.97L1016.73 157.236L985.192 188.501L1016.73 219.733L985.192 251Z" fill="#00B7AB" fill-opacity="0.21"/>
<path d="M1015.26 251L1005.44 251L1036.98 219.735L1005.44 188.503L1036.98 157.236L1005.44 125.97L1015.26 125.97L1046.79 157.236L1015.26 188.501L1046.79 219.733L1015.26 251Z" fill="#00B7AB" fill-opacity="0.21"/>
<path d="M1045.32 251L1035.51 251L1050.45 236.188L1050.45 245.917L1045.32 251Z" fill="#00B7AB" fill-opacity="0.21"/>
<path d="M1050.45 183.419L1045.32 188.501L1050.45 193.578L1050.45 203.3L1035.5 188.503L1050.45 173.69L1050.45 183.419Z" fill="#00B7AB" fill-opacity="0.21"/>
<path d="M1035.51 125.97L1050.45 140.783L1050.45 131.053L1045.32 125.97L1035.51 125.97Z" fill="#00B7AB" fill-opacity="0.21"/>
<path d="M1050 236.189L1066.6 219.735L1050 203.298L1050 193.577L1076.41 219.733L1050 245.919L1050 236.189Z" fill="#00B7AB" fill-opacity="0.21"/>
<path d="M1050 140.781L1050 131.052L1076.41 157.236L1050 183.421L1050 173.691L1066.6 157.236L1050 140.781Z" fill="#00B7AB" fill-opacity="0.21"/>
<path d="M1074.94 251L1065.12 251L1096.66 219.735L1065.12 188.503L1096.66 157.236L1065.12 125.97L1074.94 125.97L1106.47 157.236L1074.94 188.501L1106.48 219.733L1074.94 251Z" fill="#00B7AB" fill-opacity="0.21"/>
<path d="M1105 251L1095.19 251L1126.72 219.735L1095.19 188.503L1126.72 157.236L1095.19 125.97L1105 125.97L1136.54 157.236L1105 188.501L1136.54 219.733L1105 251Z" fill="#00B7AB" fill-opacity="0.21"/>
<path d="M1135.07 251L1125.25 251L1156.79 219.735L1125.25 188.503L1156.79 157.236L1125.25 125.97L1135.06 125.97L1166.6 157.236L1135.07 188.501L1166.6 219.733L1135.07 251Z" fill="#00B7AB" fill-opacity="0.21"/>
<path d="M1165.13 251L1155.32 251L1186.85 219.735L1155.31 188.503L1186.85 157.236L1155.31 125.97L1165.13 125.97L1196.67 157.236L1165.13 188.501L1196.67 219.733L1165.13 251Z" fill="#00B7AB" fill-opacity="0.21"/>
<path d="M1195.19 251L1185.38 251L1216.91 219.735L1185.38 188.503L1216.92 157.236L1185.38 125.97L1195.19 125.97L1226.73 157.236L1195.19 188.501L1226.73 219.733L1195.19 251Z" fill="#00B7AB" fill-opacity="0.21"/>
<path d="M1225.26 251L1215.44 251L1246.98 219.735L1215.44 188.503L1246.98 157.236L1215.44 125.97L1225.26 125.97L1256.79 157.236L1225.26 188.501L1256.79 219.733L1225.26 251Z" fill="#00B7AB" fill-opacity="0.21"/>
<path d="M1255.32 251L1245.51 251L1260.45 236.188L1260.45 245.917L1255.32 251Z" fill="#00B7AB" fill-opacity="0.21"/>
<path d="M1260.45 183.419L1255.32 188.501L1260.45 193.578L1260.45 203.3L1245.5 188.503L1260.45 173.69L1260.45 183.419Z" fill="#00B7AB" fill-opacity="0.21"/>
<path d="M1245.51 125.97L1260.45 140.783L1260.45 131.053L1255.32 125.97L1245.51 125.97Z" fill="#00B7AB" fill-opacity="0.21"/>
<path d="M1260 236.189L1276.6 219.735L1260 203.298L1260 193.577L1286.41 219.733L1260 245.919L1260 236.189Z" fill="#00B7AB" fill-opacity="0.21"/>
<path d="M1260 140.781L1260 131.052L1286.41 157.236L1260 183.421L1260 173.691L1276.6 157.236L1260 140.781Z" fill="#00B7AB" fill-opacity="0.21"/>
<path d="M1284.94 251L1275.12 251L1306.66 219.735L1275.12 188.503L1306.66 157.236L1275.12 125.97L1284.94 125.97L1316.47 157.236L1284.94 188.501L1316.48 219.733L1284.94 251Z" fill="#00B7AB" fill-opacity="0.21"/>
<path d="M1315 251L1305.19 251L1336.72 219.735L1305.19 188.503L1336.72 157.236L1305.19 125.97L1315 125.97L1346.54 157.236L1315 188.501L1346.54 219.733L1315 251Z" fill="#00B7AB" fill-opacity="0.21"/>
<path d="M1345.07 251L1335.25 251L1366.79 219.735L1335.25 188.503L1366.79 157.236L1335.25 125.97L1345.06 125.97L1376.6 157.236L1345.07 188.501L1376.6 219.733L1345.07 251Z" fill="#00B7AB" fill-opacity="0.21"/>
<path d="M1375.13 251L1365.32 251L1396.85 219.735L1365.31 188.503L1396.85 157.236L1365.31 125.97L1375.13 125.97L1406.67 157.236L1375.13 188.501L1406.67 219.733L1375.13 251Z" fill="#00B7AB" fill-opacity="0.21"/>
<path d="M1405.19 251L1395.38 251L1426.91 219.735L1395.38 188.503L1426.92 157.236L1395.38 125.97L1405.19 125.97L1436.73 157.236L1405.19 188.501L1436.73 219.733L1405.19 251Z" fill="#00B7AB" fill-opacity="0.21"/>
<path d="M1435.26 251L1425.44 251L1456.98 219.735L1425.44 188.503L1456.98 157.236L1425.44 125.97L1435.26 125.97L1466.79 157.236L1435.26 188.501L1466.79 219.733L1435.26 251Z" fill="#00B7AB" fill-opacity="0.21"/>
<path d="M1465.32 251L1455.51 251L1470.45 236.188L1470.45 245.917L1465.32 251Z" fill="#00B7AB" fill-opacity="0.21"/>
<path d="M1470.45 183.419L1465.32 188.501L1470.45 193.578L1470.45 203.3L1455.5 188.503L1470.45 173.69L1470.45 183.419Z" fill="#00B7AB" fill-opacity="0.21"/>
<path d="M1455.51 125.97L1470.45 140.783L1470.45 131.053L1465.32 125.97L1455.51 125.97Z" fill="#00B7AB" fill-opacity="0.21"/>
<path d="M-6.82555e-07 361.189L16.5972 344.735L-2.19837e-06 328.298L-2.64639e-06 318.577L26.4122 344.733L-2.34172e-07 370.919L-6.82555e-07 361.189Z" fill="#00B7AB" fill-opacity="0.21"/>
<path d="M-5.07951e-06 265.781L-5.52789e-06 256.052L26.4115 282.236L-3.11444e-06 308.421L-3.56282e-06 298.691L16.5979 282.236L-5.07951e-06 265.781Z" fill="#00B7AB" fill-opacity="0.21"/>
<path d="M24.9382 376L15.1246 376L46.6607 344.735L15.1235 313.503L46.6613 282.236L15.1242 250.97L24.9378 250.97L56.475 282.236L24.9385 313.501L56.4757 344.733L24.9382 376Z" fill="#00B7AB" fill-opacity="0.21"/>
<path d="M55.0017 376L45.1881 376L76.7242 344.735L45.187 313.503L76.7248 282.236L45.1877 250.97L55.0013 250.97L86.5385 282.236L55.002 313.501L86.5392 344.733L55.0017 376Z" fill="#00B7AB" fill-opacity="0.21"/>
<path d="M85.0652 376L75.2516 376L106.788 344.735L75.2504 313.503L106.788 282.236L75.2511 250.97L85.0648 250.97L116.602 282.236L85.0655 313.501L116.603 344.733L85.0652 376Z" fill="#00B7AB" fill-opacity="0.21"/>
<path d="M115.129 376L105.315 376L136.851 344.735L105.314 313.503L136.852 282.236L105.315 250.97L115.128 250.97L146.665 282.236L115.129 313.501L146.666 344.733L115.129 376Z" fill="#00B7AB" fill-opacity="0.21"/>
<path d="M145.192 376L135.379 376L166.915 344.735L135.377 313.503L166.915 282.236L135.378 250.97L145.192 250.97L176.729 282.236L145.192 313.501L176.73 344.733L145.192 376Z" fill="#00B7AB" fill-opacity="0.21"/>
<path d="M175.256 376L165.442 376L196.978 344.735L165.441 313.503L196.979 282.236L165.442 250.97L175.255 250.97L206.792 282.236L175.256 313.501L206.793 344.733L175.256 376Z" fill="#00B7AB" fill-opacity="0.21"/>
<path d="M205.319 376L195.506 376L210.446 361.188L210.446 370.917L205.319 376Z" fill="#00B7AB" fill-opacity="0.21"/>
<path d="M210.446 308.419L205.319 313.501L210.446 318.578L210.446 328.3L195.504 313.503L210.446 298.69L210.446 308.419Z" fill="#00B7AB" fill-opacity="0.21"/>
<path d="M195.505 250.97L210.446 265.783L210.446 256.053L205.319 250.97L195.505 250.97Z" fill="#00B7AB" fill-opacity="0.21"/>
<path d="M210 361.189L226.597 344.735L210 328.298L210 318.577L236.412 344.733L210 370.919L210 361.189Z" fill="#00B7AB" fill-opacity="0.21"/>
<path d="M210 265.781L210 256.052L236.412 282.236L210 308.421L210 298.691L226.598 282.236L210 265.781Z" fill="#00B7AB" fill-opacity="0.21"/>
<path d="M234.938 376L225.125 376L256.661 344.735L225.123 313.503L256.661 282.236L225.124 250.97L234.938 250.97L266.475 282.236L234.939 313.501L266.476 344.733L234.938 376Z" fill="#00B7AB" fill-opacity="0.21"/>
<path d="M265.002 376L255.188 376L286.724 344.735L255.187 313.503L286.725 282.236L255.188 250.97L265.001 250.97L296.539 282.236L265.002 313.501L296.539 344.733L265.002 376Z" fill="#00B7AB" fill-opacity="0.21"/>
<path d="M295.065 376L285.252 376L316.788 344.735L285.25 313.503L316.788 282.236L285.251 250.97L295.065 250.97L326.602 282.236L295.065 313.501L326.603 344.733L295.065 376Z" fill="#00B7AB" fill-opacity="0.21"/>
<path d="M325.129 376L315.315 376L346.851 344.735L315.314 313.503L346.852 282.236L315.315 250.97L325.128 250.97L356.665 282.236L325.129 313.501L356.666 344.733L325.129 376Z" fill="#00B7AB" fill-opacity="0.21"/>
<path d="M355.192 376L345.379 376L376.915 344.735L345.377 313.503L376.915 282.236L345.378 250.97L355.192 250.97L386.729 282.236L355.192 313.501L386.73 344.733L355.192 376Z" fill="#00B7AB" fill-opacity="0.21"/>
<path d="M385.256 376L375.442 376L406.978 344.735L375.441 313.503L406.979 282.236L375.442 250.97L385.255 250.97L416.792 282.236L385.256 313.501L416.793 344.733L385.256 376Z" fill="#00B7AB" fill-opacity="0.21"/>
<path d="M415.319 376L405.506 376L420.446 361.188L420.446 370.917L415.319 376Z" fill="#00B7AB" fill-opacity="0.21"/>
<path d="M420.446 308.419L415.319 313.501L420.446 318.578L420.446 328.3L405.504 313.503L420.446 298.69L420.446 308.419Z" fill="#00B7AB" fill-opacity="0.21"/>
<path d="M405.505 250.97L420.446 265.783L420.446 256.053L415.319 250.97L405.505 250.97Z" fill="#00B7AB" fill-opacity="0.21"/>
<path d="M420 361.189L436.597 344.735L420 328.298L420 318.577L446.412 344.733L420 370.919L420 361.189Z" fill="#00B7AB" fill-opacity="0.21"/>
<path d="M420 265.781L420 256.052L446.412 282.236L420 308.421L420 298.691L436.598 282.236L420 265.781Z" fill="#00B7AB" fill-opacity="0.21"/>
<path d="M444.938 376L435.125 376L466.661 344.735L435.123 313.503L466.661 282.236L435.124 250.97L444.938 250.97L476.475 282.236L444.939 313.501L476.476 344.733L444.938 376Z" fill="#00B7AB" fill-opacity="0.21"/>
<path d="M475.002 376L465.188 376L496.724 344.735L465.187 313.503L496.725 282.236L465.188 250.97L475.001 250.97L506.539 282.236L475.002 313.501L506.539 344.733L475.002 376Z" fill="#00B7AB" fill-opacity="0.21"/>
<path d="M505.065 376L495.252 376L526.788 344.735L495.25 313.503L526.788 282.236L495.251 250.97L505.065 250.97L536.602 282.236L505.065 313.501L536.603 344.733L505.065 376Z" fill="#00B7AB" fill-opacity="0.21"/>
<path d="M535.129 376L525.315 376L556.851 344.735L525.314 313.503L556.852 282.236L525.315 250.97L535.128 250.97L566.665 282.236L535.129 313.501L566.666 344.733L535.129 376Z" fill="#00B7AB" fill-opacity="0.21"/>
<path d="M565.192 376L555.379 376L586.915 344.735L555.377 313.503L586.915 282.236L555.378 250.97L565.192 250.97L596.729 282.236L565.192 313.501L596.73 344.733L565.192 376Z" fill="#00B7AB" fill-opacity="0.21"/>
<path d="M595.256 376L585.442 376L616.978 344.735L585.441 313.503L616.979 282.236L585.442 250.97L595.255 250.97L626.792 282.236L595.256 313.501L626.793 344.733L595.256 376Z" fill="#00B7AB" fill-opacity="0.21"/>
<path d="M625.319 376L615.506 376L630.446 361.188L630.446 370.917L625.319 376Z" fill="#00B7AB" fill-opacity="0.21"/>
<path d="M630.446 308.419L625.319 313.501L630.446 318.578L630.446 328.3L615.504 313.503L630.446 298.69L630.446 308.419Z" fill="#00B7AB" fill-opacity="0.21"/>
<path d="M615.505 250.97L630.446 265.783L630.446 256.053L625.319 250.97L615.505 250.97Z" fill="#00B7AB" fill-opacity="0.21"/>
<path d="M630 361.189L646.597 344.735L630 328.298L630 318.577L656.412 344.733L630 370.919L630 361.189Z" fill="#00B7AB" fill-opacity="0.21"/>
<path d="M630 265.781L630 256.052L656.412 282.236L630 308.421L630 298.691L646.598 282.236L630 265.781Z" fill="#00B7AB" fill-opacity="0.21"/>
<path d="M654.938 376L645.125 376L676.661 344.735L645.123 313.503L676.661 282.236L645.124 250.97L654.938 250.97L686.475 282.236L654.939 313.501L686.476 344.733L654.938 376Z" fill="#00B7AB" fill-opacity="0.21"/>
<path d="M685.002 376L675.188 376L706.724 344.735L675.187 313.503L706.725 282.236L675.188 250.97L685.001 250.97L716.539 282.236L685.002 313.501L716.539 344.733L685.002 376Z" fill="#00B7AB" fill-opacity="0.21"/>
<path d="M715.065 376L705.252 376L736.788 344.735L705.25 313.503L736.788 282.236L705.251 250.97L715.065 250.97L746.602 282.236L715.065 313.501L746.603 344.733L715.065 376Z" fill="#00B7AB" fill-opacity="0.21"/>
<path d="M745.129 376L735.315 376L766.851 344.735L735.314 313.503L766.852 282.236L735.315 250.97L745.128 250.97L776.665 282.236L745.129 313.501L776.666 344.733L745.129 376Z" fill="#00B7AB" fill-opacity="0.21"/>
<path d="M775.192 376L765.379 376L796.915 344.735L765.377 313.503L796.915 282.236L765.378 250.97L775.192 250.97L806.729 282.236L775.192 313.501L806.73 344.733L775.192 376Z" fill="#00B7AB" fill-opacity="0.21"/>
<path d="M805.256 376L795.442 376L826.978 344.735L795.441 313.503L826.979 282.236L795.442 250.97L805.255 250.97L836.792 282.236L805.256 313.501L836.793 344.733L805.256 376Z" fill="#00B7AB" fill-opacity="0.21"/>
<path d="M835.319 376L825.506 376L840.446 361.188L840.446 370.917L835.319 376Z" fill="#00B7AB" fill-opacity="0.21"/>
<path d="M840.446 308.419L835.319 313.501L840.446 318.578L840.446 328.3L825.504 313.503L840.446 298.69L840.446 308.419Z" fill="#00B7AB" fill-opacity="0.21"/>
<path d="M825.505 250.97L840.446 265.783L840.446 256.053L835.319 250.97L825.505 250.97Z" fill="#00B7AB" fill-opacity="0.21"/>
<path d="M840 361.189L856.597 344.735L840 328.298L840 318.577L866.412 344.733L840 370.919L840 361.189Z" fill="#00B7AB" fill-opacity="0.21"/>
<path d="M840 265.781L840 256.052L866.412 282.236L840 308.421L840 298.691L856.598 282.236L840 265.781Z" fill="#00B7AB" fill-opacity="0.21"/>
<path d="M864.938 376L855.125 376L886.661 344.735L855.123 313.503L886.661 282.236L855.124 250.97L864.938 250.97L896.475 282.236L864.939 313.501L896.476 344.733L864.938 376Z" fill="#00B7AB" fill-opacity="0.21"/>
<path d="M895.002 376L885.188 376L916.724 344.735L885.187 313.503L916.725 282.236L885.188 250.97L895.001 250.97L926.539 282.236L895.002 313.501L926.539 344.733L895.002 376Z" fill="#00B7AB" fill-opacity="0.21"/>
<path d="M925.065 376L915.252 376L946.788 344.735L915.25 313.503L946.788 282.236L915.251 250.97L925.065 250.97L956.602 282.236L925.065 313.501L956.603 344.733L925.065 376Z" fill="#00B7AB" fill-opacity="0.21"/>
<path d="M955.129 376L945.315 376L976.851 344.735L945.314 313.503L976.852 282.236L945.315 250.97L955.128 250.97L986.665 282.236L955.129 313.501L986.666 344.733L955.129 376Z" fill="#00B7AB" fill-opacity="0.21"/>
<path d="M985.192 376L975.379 376L1006.91 344.735L975.377 313.503L1006.92 282.236L975.378 250.97L985.192 250.97L1016.73 282.236L985.192 313.501L1016.73 344.733L985.192 376Z" fill="#00B7AB" fill-opacity="0.21"/>
<path d="M1015.26 376L1005.44 376L1036.98 344.735L1005.44 313.503L1036.98 282.236L1005.44 250.97L1015.26 250.97L1046.79 282.236L1015.26 313.501L1046.79 344.733L1015.26 376Z" fill="#00B7AB" fill-opacity="0.21"/>
<path d="M1045.32 376L1035.51 376L1050.45 361.188L1050.45 370.917L1045.32 376Z" fill="#00B7AB" fill-opacity="0.21"/>
<path d="M1050.45 308.419L1045.32 313.501L1050.45 318.578L1050.45 328.3L1035.5 313.503L1050.45 298.69L1050.45 308.419Z" fill="#00B7AB" fill-opacity="0.21"/>
<path d="M1035.51 250.97L1050.45 265.783L1050.45 256.053L1045.32 250.97L1035.51 250.97Z" fill="#00B7AB" fill-opacity="0.21"/>
<path d="M1050 361.189L1066.6 344.735L1050 328.298L1050 318.577L1076.41 344.733L1050 370.919L1050 361.189Z" fill="#00B7AB" fill-opacity="0.21"/>
<path d="M1050 265.781L1050 256.052L1076.41 282.236L1050 308.421L1050 298.691L1066.6 282.236L1050 265.781Z" fill="#00B7AB" fill-opacity="0.21"/>
<path d="M1074.94 376L1065.12 376L1096.66 344.735L1065.12 313.503L1096.66 282.236L1065.12 250.97L1074.94 250.97L1106.47 282.236L1074.94 313.501L1106.48 344.733L1074.94 376Z" fill="#00B7AB" fill-opacity="0.21"/>
<path d="M1105 376L1095.19 376L1126.72 344.735L1095.19 313.503L1126.72 282.236L1095.19 250.97L1105 250.97L1136.54 282.236L1105 313.501L1136.54 344.733L1105 376Z" fill="#00B7AB" fill-opacity="0.21"/>
<path d="M1135.07 376L1125.25 376L1156.79 344.735L1125.25 313.503L1156.79 282.236L1125.25 250.97L1135.06 250.97L1166.6 282.236L1135.07 313.501L1166.6 344.733L1135.07 376Z" fill="#00B7AB" fill-opacity="0.21"/>
<path d="M1165.13 376L1155.32 376L1186.85 344.735L1155.31 313.503L1186.85 282.236L1155.31 250.97L1165.13 250.97L1196.67 282.236L1165.13 313.501L1196.67 344.733L1165.13 376Z" fill="#00B7AB" fill-opacity="0.21"/>
<path d="M1195.19 376L1185.38 376L1216.91 344.735L1185.38 313.503L1216.92 282.236L1185.38 250.97L1195.19 250.97L1226.73 282.236L1195.19 313.501L1226.73 344.733L1195.19 376Z" fill="#00B7AB" fill-opacity="0.21"/>
<path d="M1225.26 376L1215.44 376L1246.98 344.735L1215.44 313.503L1246.98 282.236L1215.44 250.97L1225.26 250.97L1256.79 282.236L1225.26 313.501L1256.79 344.733L1225.26 376Z" fill="#00B7AB" fill-opacity="0.21"/>
<path d="M1255.32 376L1245.51 376L1260.45 361.188L1260.45 370.917L1255.32 376Z" fill="#00B7AB" fill-opacity="0.21"/>
<path d="M1260.45 308.419L1255.32 313.501L1260.45 318.578L1260.45 328.3L1245.5 313.503L1260.45 298.69L1260.45 308.419Z" fill="#00B7AB" fill-opacity="0.21"/>
<path d="M1245.51 250.97L1260.45 265.783L1260.45 256.053L1255.32 250.97L1245.51 250.97Z" fill="#00B7AB" fill-opacity="0.21"/>
<path d="M1260 361.189L1276.6 344.735L1260 328.298L1260 318.577L1286.41 344.733L1260 370.919L1260 361.189Z" fill="#00B7AB" fill-opacity="0.21"/>
<path d="M1260 265.781L1260 256.052L1286.41 282.236L1260 308.421L1260 298.691L1276.6 282.236L1260 265.781Z" fill="#00B7AB" fill-opacity="0.21"/>
<path d="M1284.94 376L1275.12 376L1306.66 344.735L1275.12 313.503L1306.66 282.236L1275.12 250.97L1284.94 250.97L1316.47 282.236L1284.94 313.501L1316.48 344.733L1284.94 376Z" fill="#00B7AB" fill-opacity="0.21"/>
<path d="M1315 376L1305.19 376L1336.72 344.735L1305.19 313.503L1336.72 282.236L1305.19 250.97L1315 250.97L1346.54 282.236L1315 313.501L1346.54 344.733L1315 376Z" fill="#00B7AB" fill-opacity="0.21"/>
<path d="M1345.07 376L1335.25 376L1366.79 344.735L1335.25 313.503L1366.79 282.236L1335.25 250.97L1345.06 250.97L1376.6 282.236L1345.07 313.501L1376.6 344.733L1345.07 376Z" fill="#00B7AB" fill-opacity="0.21"/>
<path d="M1375.13 376L1365.32 376L1396.85 344.735L1365.31 313.503L1396.85 282.236L1365.31 250.97L1375.13 250.97L1406.67 282.236L1375.13 313.501L1406.67 344.733L1375.13 376Z" fill="#00B7AB" fill-opacity="0.21"/>
<path d="M1405.19 376L1395.38 376L1426.91 344.735L1395.38 313.503L1426.92 282.236L1395.38 250.97L1405.19 250.97L1436.73 282.236L1405.19 313.501L1436.73 344.733L1405.19 376Z" fill="#00B7AB" fill-opacity="0.21"/>
<path d="M1435.26 376L1425.44 376L1456.98 344.735L1425.44 313.503L1456.98 282.236L1425.44 250.97L1435.26 250.97L1466.79 282.236L1435.26 313.501L1466.79 344.733L1435.26 376Z" fill="#00B7AB" fill-opacity="0.21"/>
<path d="M1465.32 376L1455.51 376L1470.45 361.188L1470.45 370.917L1465.32 376Z" fill="#00B7AB" fill-opacity="0.21"/>
<path d="M1470.45 308.419L1465.32 313.501L1470.45 318.578L1470.45 328.3L1455.5 313.503L1470.45 298.69L1470.45 308.419Z" fill="#00B7AB" fill-opacity="0.21"/>
<path d="M1455.51 250.97L1470.45 265.783L1470.45 256.053L1465.32 250.97L1455.51 250.97Z" fill="#00B7AB" fill-opacity="0.21"/>
<path d="M-6.82555e-07 486.189L16.5972 469.735L-2.19837e-06 453.298L-2.64639e-06 443.577L26.4122 469.733L-2.34172e-07 495.919L-6.82555e-07 486.189Z" fill="#00B7AB" fill-opacity="0.21"/>
<path d="M-5.07951e-06 390.781L-5.52789e-06 381.052L26.4115 407.236L-3.11444e-06 433.421L-3.56282e-06 423.691L16.5979 407.236L-5.07951e-06 390.781Z" fill="#00B7AB" fill-opacity="0.21"/>
<path d="M24.9382 501L15.1246 501L46.6607 469.735L15.1235 438.503L46.6613 407.236L15.1242 375.97L24.9378 375.97L56.475 407.236L24.9385 438.501L56.4757 469.733L24.9382 501Z" fill="#00B7AB" fill-opacity="0.21"/>
<path d="M55.0017 501L45.1881 501L76.7242 469.735L45.187 438.503L76.7248 407.236L45.1877 375.97L55.0013 375.97L86.5385 407.236L55.002 438.501L86.5392 469.733L55.0017 501Z" fill="#00B7AB" fill-opacity="0.21"/>
<path d="M85.0652 501L75.2516 501L106.788 469.735L75.2504 438.503L106.788 407.236L75.2511 375.97L85.0648 375.97L116.602 407.236L85.0655 438.501L116.603 469.733L85.0652 501Z" fill="#00B7AB" fill-opacity="0.21"/>
<path d="M115.129 501L105.315 501L136.851 469.735L105.314 438.503L136.852 407.236L105.315 375.97L115.128 375.97L146.665 407.236L115.129 438.501L146.666 469.733L115.129 501Z" fill="#00B7AB" fill-opacity="0.21"/>
<path d="M145.192 501L135.379 501L166.915 469.735L135.377 438.503L166.915 407.236L135.378 375.97L145.192 375.97L176.729 407.236L145.192 438.501L176.73 469.733L145.192 501Z" fill="#00B7AB" fill-opacity="0.21"/>
<path d="M175.256 501L165.442 501L196.978 469.735L165.441 438.503L196.979 407.236L165.442 375.97L175.255 375.97L206.792 407.236L175.256 438.501L206.793 469.733L175.256 501Z" fill="#00B7AB" fill-opacity="0.21"/>
<path d="M205.319 501L195.506 501L210.446 486.188L210.446 495.917L205.319 501Z" fill="#00B7AB" fill-opacity="0.21"/>
<path d="M210.446 433.419L205.319 438.501L210.446 443.578L210.446 453.3L195.504 438.503L210.446 423.69L210.446 433.419Z" fill="#00B7AB" fill-opacity="0.21"/>
<path d="M195.505 375.97L210.446 390.783L210.446 381.053L205.319 375.97L195.505 375.97Z" fill="#00B7AB" fill-opacity="0.21"/>
<path d="M210 486.189L226.597 469.735L210 453.298L210 443.577L236.412 469.733L210 495.919L210 486.189Z" fill="#00B7AB" fill-opacity="0.21"/>
<path d="M210 390.781L210 381.052L236.412 407.236L210 433.421L210 423.691L226.598 407.236L210 390.781Z" fill="#00B7AB" fill-opacity="0.21"/>
<path d="M234.938 501L225.125 501L256.661 469.735L225.123 438.503L256.661 407.236L225.124 375.97L234.938 375.97L266.475 407.236L234.939 438.501L266.476 469.733L234.938 501Z" fill="#00B7AB" fill-opacity="0.21"/>
<path d="M265.002 501L255.188 501L286.724 469.735L255.187 438.503L286.725 407.236L255.188 375.97L265.001 375.97L296.539 407.236L265.002 438.501L296.539 469.733L265.002 501Z" fill="#00B7AB" fill-opacity="0.21"/>
<path d="M295.065 501L285.252 501L316.788 469.735L285.25 438.503L316.788 407.236L285.251 375.97L295.065 375.97L326.602 407.236L295.065 438.501L326.603 469.733L295.065 501Z" fill="#00B7AB" fill-opacity="0.21"/>
<path d="M325.129 501L315.315 501L346.851 469.735L315.314 438.503L346.852 407.236L315.315 375.97L325.128 375.97L356.665 407.236L325.129 438.501L356.666 469.733L325.129 501Z" fill="#00B7AB" fill-opacity="0.21"/>
<path d="M355.192 501L345.379 501L376.915 469.735L345.377 438.503L376.915 407.236L345.378 375.97L355.192 375.97L386.729 407.236L355.192 438.501L386.73 469.733L355.192 501Z" fill="#00B7AB" fill-opacity="0.21"/>
<path d="M385.256 501L375.442 501L406.978 469.735L375.441 438.503L406.979 407.236L375.442 375.97L385.255 375.97L416.792 407.236L385.256 438.501L416.793 469.733L385.256 501Z" fill="#00B7AB" fill-opacity="0.21"/>
<path d="M415.319 501L405.506 501L420.446 486.188L420.446 495.917L415.319 501Z" fill="#00B7AB" fill-opacity="0.21"/>
<path d="M420.446 433.419L415.319 438.501L420.446 443.578L420.446 453.3L405.504 438.503L420.446 423.69L420.446 433.419Z" fill="#00B7AB" fill-opacity="0.21"/>
<path d="M405.505 375.97L420.446 390.783L420.446 381.053L415.319 375.97L405.505 375.97Z" fill="#00B7AB" fill-opacity="0.21"/>
<path d="M420 486.189L436.597 469.735L420 453.298L420 443.577L446.412 469.733L420 495.919L420 486.189Z" fill="#00B7AB" fill-opacity="0.21"/>
<path d="M420 390.781L420 381.052L446.412 407.236L420 433.421L420 423.691L436.598 407.236L420 390.781Z" fill="#00B7AB" fill-opacity="0.21"/>
<path d="M444.938 501L435.125 501L466.661 469.735L435.123 438.503L466.661 407.236L435.124 375.97L444.938 375.97L476.475 407.236L444.939 438.501L476.476 469.733L444.938 501Z" fill="#00B7AB" fill-opacity="0.21"/>
<path d="M475.002 501L465.188 501L496.724 469.735L465.187 438.503L496.725 407.236L465.188 375.97L475.001 375.97L506.539 407.236L475.002 438.501L506.539 469.733L475.002 501Z" fill="#00B7AB" fill-opacity="0.21"/>
<path d="M505.065 501L495.252 501L526.788 469.735L495.25 438.503L526.788 407.236L495.251 375.97L505.065 375.97L536.602 407.236L505.065 438.501L536.603 469.733L505.065 501Z" fill="#00B7AB" fill-opacity="0.21"/>
<path d="M535.129 501L525.315 501L556.851 469.735L525.314 438.503L556.852 407.236L525.315 375.97L535.128 375.97L566.665 407.236L535.129 438.501L566.666 469.733L535.129 501Z" fill="#00B7AB" fill-opacity="0.21"/>
<path d="M565.192 501L555.379 501L586.915 469.735L555.377 438.503L586.915 407.236L555.378 375.97L565.192 375.97L596.729 407.236L565.192 438.501L596.73 469.733L565.192 501Z" fill="#00B7AB" fill-opacity="0.21"/>
<path d="M595.256 501L585.442 501L616.978 469.735L585.441 438.503L616.979 407.236L585.442 375.97L595.255 375.97L626.792 407.236L595.256 438.501L626.793 469.733L595.256 501Z" fill="#00B7AB" fill-opacity="0.21"/>
<path d="M625.319 501L615.506 501L630.446 486.188L630.446 495.917L625.319 501Z" fill="#00B7AB" fill-opacity="0.21"/>
<path d="M630.446 433.419L625.319 438.501L630.446 443.578L630.446 453.3L615.504 438.503L630.446 423.69L630.446 433.419Z" fill="#00B7AB" fill-opacity="0.21"/>
<path d="M615.505 375.97L630.446 390.783L630.446 381.053L625.319 375.97L615.505 375.97Z" fill="#00B7AB" fill-opacity="0.21"/>
<path d="M630 486.189L646.597 469.735L630 453.298L630 443.577L656.412 469.733L630 495.919L630 486.189Z" fill="#00B7AB" fill-opacity="0.21"/>
<path d="M630 390.781L630 381.052L656.412 407.236L630 433.421L630 423.691L646.598 407.236L630 390.781Z" fill="#00B7AB" fill-opacity="0.21"/>
<path d="M654.938 501L645.125 501L676.661 469.735L645.123 438.503L676.661 407.236L645.124 375.97L654.938 375.97L686.475 407.236L654.939 438.501L686.476 469.733L654.938 501Z" fill="#00B7AB" fill-opacity="0.21"/>
<path d="M685.002 501L675.188 501L706.724 469.735L675.187 438.503L706.725 407.236L675.188 375.97L685.001 375.97L716.539 407.236L685.002 438.501L716.539 469.733L685.002 501Z" fill="#00B7AB" fill-opacity="0.21"/>
<path d="M715.065 501L705.252 501L736.788 469.735L705.25 438.503L736.788 407.236L705.251 375.97L715.065 375.97L746.602 407.236L715.065 438.501L746.603 469.733L715.065 501Z" fill="#00B7AB" fill-opacity="0.21"/>
<path d="M745.129 501L735.315 501L766.851 469.735L735.314 438.503L766.852 407.236L735.315 375.97L745.128 375.97L776.665 407.236L745.129 438.501L776.666 469.733L745.129 501Z" fill="#00B7AB" fill-opacity="0.21"/>
<path d="M775.192 501L765.379 501L796.915 469.735L765.377 438.503L796.915 407.236L765.378 375.97L775.192 375.97L806.729 407.236L775.192 438.501L806.73 469.733L775.192 501Z" fill="#00B7AB" fill-opacity="0.21"/>
<path d="M805.256 501L795.442 501L826.978 469.735L795.441 438.503L826.979 407.236L795.442 375.97L805.255 375.97L836.792 407.236L805.256 438.501L836.793 469.733L805.256 501Z" fill="#00B7AB" fill-opacity="0.21"/>
<path d="M835.319 501L825.506 501L840.446 486.188L840.446 495.917L835.319 501Z" fill="#00B7AB" fill-opacity="0.21"/>
<path d="M840.446 433.419L835.319 438.501L840.446 443.578L840.446 453.3L825.504 438.503L840.446 423.69L840.446 433.419Z" fill="#00B7AB" fill-opacity="0.21"/>
<path d="M825.505 375.97L840.446 390.783L840.446 381.053L835.319 375.97L825.505 375.97Z" fill="#00B7AB" fill-opacity="0.21"/>
<path d="M840 486.189L856.597 469.735L840 453.298L840 443.577L866.412 469.733L840 495.919L840 486.189Z" fill="#00B7AB" fill-opacity="0.21"/>
<path d="M840 390.781L840 381.052L866.412 407.236L840 433.421L840 423.691L856.598 407.236L840 390.781Z" fill="#00B7AB" fill-opacity="0.21"/>
<path d="M864.938 501L855.125 501L886.661 469.735L855.123 438.503L886.661 407.236L855.124 375.97L864.938 375.97L896.475 407.236L864.939 438.501L896.476 469.733L864.938 501Z" fill="#00B7AB" fill-opacity="0.21"/>
<path d="M895.002 501L885.188 501L916.724 469.735L885.187 438.503L916.725 407.236L885.188 375.97L895.001 375.97L926.539 407.236L895.002 438.501L926.539 469.733L895.002 501Z" fill="#00B7AB" fill-opacity="0.21"/>
<path d="M925.065 501L915.252 501L946.788 469.735L915.25 438.503L946.788 407.236L915.251 375.97L925.065 375.97L956.602 407.236L925.065 438.501L956.603 469.733L925.065 501Z" fill="#00B7AB" fill-opacity="0.21"/>
<path d="M955.129 501L945.315 501L976.851 469.735L945.314 438.503L976.852 407.236L945.315 375.97L955.128 375.97L986.665 407.236L955.129 438.501L986.666 469.733L955.129 501Z" fill="#00B7AB" fill-opacity="0.21"/>
<path d="M985.192 501L975.379 501L1006.91 469.735L975.377 438.503L1006.92 407.236L975.378 375.97L985.192 375.97L1016.73 407.236L985.192 438.501L1016.73 469.733L985.192 501Z" fill="#00B7AB" fill-opacity="0.21"/>
<path d="M1015.26 501L1005.44 501L1036.98 469.735L1005.44 438.503L1036.98 407.236L1005.44 375.97L1015.26 375.97L1046.79 407.236L1015.26 438.501L1046.79 469.733L1015.26 501Z" fill="#00B7AB" fill-opacity="0.21"/>
<path d="M1045.32 501L1035.51 501L1050.45 486.188L1050.45 495.917L1045.32 501Z" fill="#00B7AB" fill-opacity="0.21"/>
<path d="M1050.45 433.419L1045.32 438.501L1050.45 443.578L1050.45 453.3L1035.5 438.503L1050.45 423.69L1050.45 433.419Z" fill="#00B7AB" fill-opacity="0.21"/>
<path d="M1035.51 375.97L1050.45 390.783L1050.45 381.053L1045.32 375.97L1035.51 375.97Z" fill="#00B7AB" fill-opacity="0.21"/>
<path d="M1050 486.189L1066.6 469.735L1050 453.298L1050 443.577L1076.41 469.733L1050 495.919L1050 486.189Z" fill="#00B7AB" fill-opacity="0.21"/>
<path d="M1050 390.781L1050 381.052L1076.41 407.236L1050 433.421L1050 423.691L1066.6 407.236L1050 390.781Z" fill="#00B7AB" fill-opacity="0.21"/>
<path d="M1074.94 501L1065.12 501L1096.66 469.735L1065.12 438.503L1096.66 407.236L1065.12 375.97L1074.94 375.97L1106.47 407.236L1074.94 438.501L1106.48 469.733L1074.94 501Z" fill="#00B7AB" fill-opacity="0.21"/>
<path d="M1105 501L1095.19 501L1126.72 469.735L1095.19 438.503L1126.72 407.236L1095.19 375.97L1105 375.97L1136.54 407.236L1105 438.501L1136.54 469.733L1105 501Z" fill="#00B7AB" fill-opacity="0.21"/>
<path d="M1135.07 501L1125.25 501L1156.79 469.735L1125.25 438.503L1156.79 407.236L1125.25 375.97L1135.06 375.97L1166.6 407.236L1135.07 438.501L1166.6 469.733L1135.07 501Z" fill="#00B7AB" fill-opacity="0.21"/>
<path d="M1165.13 501L1155.32 501L1186.85 469.735L1155.31 438.503L1186.85 407.236L1155.31 375.97L1165.13 375.97L1196.67 407.236L1165.13 438.501L1196.67 469.733L1165.13 501Z" fill="#00B7AB" fill-opacity="0.21"/>
<path d="M1195.19 501L1185.38 501L1216.91 469.735L1185.38 438.503L1216.92 407.236L1185.38 375.97L1195.19 375.97L1226.73 407.236L1195.19 438.501L1226.73 469.733L1195.19 501Z" fill="#00B7AB" fill-opacity="0.21"/>
<path d="M1225.26 501L1215.44 501L1246.98 469.735L1215.44 438.503L1246.98 407.236L1215.44 375.97L1225.26 375.97L1256.79 407.236L1225.26 438.501L1256.79 469.733L1225.26 501Z" fill="#00B7AB" fill-opacity="0.21"/>
<path d="M1255.32 501L1245.51 501L1260.45 486.188L1260.45 495.917L1255.32 501Z" fill="#00B7AB" fill-opacity="0.21"/>
<path d="M1260.45 433.419L1255.32 438.501L1260.45 443.578L1260.45 453.3L1245.5 438.503L1260.45 423.69L1260.45 433.419Z" fill="#00B7AB" fill-opacity="0.21"/>
<path d="M1245.51 375.97L1260.45 390.783L1260.45 381.053L1255.32 375.97L1245.51 375.97Z" fill="#00B7AB" fill-opacity="0.21"/>
<path d="M1260 486.189L1276.6 469.735L1260 453.298L1260 443.577L1286.41 469.733L1260 495.919L1260 486.189Z" fill="#00B7AB" fill-opacity="0.21"/>
<path d="M1260 390.781L1260 381.052L1286.41 407.236L1260 433.421L1260 423.691L1276.6 407.236L1260 390.781Z" fill="#00B7AB" fill-opacity="0.21"/>
<path d="M1284.94 501L1275.12 501L1306.66 469.735L1275.12 438.503L1306.66 407.236L1275.12 375.97L1284.94 375.97L1316.47 407.236L1284.94 438.501L1316.48 469.733L1284.94 501Z" fill="#00B7AB" fill-opacity="0.21"/>
<path d="M1315 501L1305.19 501L1336.72 469.735L1305.19 438.503L1336.72 407.236L1305.19 375.97L1315 375.97L1346.54 407.236L1315 438.501L1346.54 469.733L1315 501Z" fill="#00B7AB" fill-opacity="0.21"/>
<path d="M1345.07 501L1335.25 501L1366.79 469.735L1335.25 438.503L1366.79 407.236L1335.25 375.97L1345.06 375.97L1376.6 407.236L1345.07 438.501L1376.6 469.733L1345.07 501Z" fill="#00B7AB" fill-opacity="0.21"/>
<path d="M1375.13 501L1365.32 501L1396.85 469.735L1365.31 438.503L1396.85 407.236L1365.31 375.97L1375.13 375.97L1406.67 407.236L1375.13 438.501L1406.67 469.733L1375.13 501Z" fill="#00B7AB" fill-opacity="0.21"/>
<path d="M1405.19 501L1395.38 501L1426.91 469.735L1395.38 438.503L1426.92 407.236L1395.38 375.97L1405.19 375.97L1436.73 407.236L1405.19 438.501L1436.73 469.733L1405.19 501Z" fill="#00B7AB" fill-opacity="0.21"/>
<path d="M1435.26 501L1425.44 501L1456.98 469.735L1425.44 438.503L1456.98 407.236L1425.44 375.97L1435.26 375.97L1466.79 407.236L1435.26 438.501L1466.79 469.733L1435.26 501Z" fill="#00B7AB" fill-opacity="0.21"/>
<path d="M1465.32 501L1455.51 501L1470.45 486.188L1470.45 495.917L1465.32 501Z" fill="#00B7AB" fill-opacity="0.21"/>
<path d="M1470.45 433.419L1465.32 438.501L1470.45 443.578L1470.45 453.3L1455.5 438.503L1470.45 423.69L1470.45 433.419Z" fill="#00B7AB" fill-opacity="0.21"/>
<path d="M1455.51 375.97L1470.45 390.783L1470.45 381.053L1465.32 375.97L1455.51 375.97Z" fill="#00B7AB" fill-opacity="0.21"/>
<path d="M-6.82555e-07 611.189L16.5972 594.735L-2.19837e-06 578.298L-2.64639e-06 568.577L26.4122 594.733L-2.34172e-07 620.919L-6.82555e-07 611.189Z" fill="#00B7AB" fill-opacity="0.21"/>
<path d="M-5.07951e-06 515.781L-5.52789e-06 506.052L26.4115 532.236L-3.11444e-06 558.421L-3.56282e-06 548.691L16.5979 532.236L-5.07951e-06 515.781Z" fill="#00B7AB" fill-opacity="0.21"/>
<path d="M24.9382 626L15.1246 626L46.6607 594.735L15.1235 563.503L46.6613 532.236L15.1242 500.97L24.9378 500.97L56.475 532.236L24.9385 563.501L56.4757 594.733L24.9382 626Z" fill="#00B7AB" fill-opacity="0.21"/>
<path d="M55.0017 626L45.1881 626L76.7242 594.735L45.187 563.503L76.7248 532.236L45.1877 500.97L55.0013 500.97L86.5385 532.236L55.002 563.501L86.5392 594.733L55.0017 626Z" fill="#00B7AB" fill-opacity="0.21"/>
<path d="M85.0652 626L75.2516 626L106.788 594.735L75.2504 563.503L106.788 532.236L75.2511 500.97L85.0648 500.97L116.602 532.236L85.0655 563.501L116.603 594.733L85.0652 626Z" fill="#00B7AB" fill-opacity="0.21"/>
<path d="M115.129 626L105.315 626L136.851 594.735L105.314 563.503L136.852 532.236L105.315 500.97L115.128 500.97L146.665 532.236L115.129 563.501L146.666 594.733L115.129 626Z" fill="#00B7AB" fill-opacity="0.21"/>
<path d="M145.192 626L135.379 626L166.915 594.735L135.377 563.503L166.915 532.236L135.378 500.97L145.192 500.97L176.729 532.236L145.192 563.501L176.73 594.733L145.192 626Z" fill="#00B7AB" fill-opacity="0.21"/>
<path d="M175.256 626L165.442 626L196.978 594.735L165.441 563.503L196.979 532.236L165.442 500.97L175.255 500.97L206.792 532.236L175.256 563.501L206.793 594.733L175.256 626Z" fill="#00B7AB" fill-opacity="0.21"/>
<path d="M205.319 626L195.506 626L210.446 611.188L210.446 620.917L205.319 626Z" fill="#00B7AB" fill-opacity="0.21"/>
<path d="M210.446 558.419L205.319 563.501L210.446 568.578L210.446 578.3L195.504 563.503L210.446 548.69L210.446 558.419Z" fill="#00B7AB" fill-opacity="0.21"/>
<path d="M195.505 500.97L210.446 515.783L210.446 506.053L205.319 500.97L195.505 500.97Z" fill="#00B7AB" fill-opacity="0.21"/>
<path d="M210 611.189L226.597 594.735L210 578.298L210 568.577L236.412 594.733L210 620.919L210 611.189Z" fill="#00B7AB" fill-opacity="0.21"/>
<path d="M210 515.781L210 506.052L236.412 532.236L210 558.421L210 548.691L226.598 532.236L210 515.781Z" fill="#00B7AB" fill-opacity="0.21"/>
<path d="M234.938 626L225.125 626L256.661 594.735L225.123 563.503L256.661 532.236L225.124 500.97L234.938 500.97L266.475 532.236L234.939 563.501L266.476 594.733L234.938 626Z" fill="#00B7AB" fill-opacity="0.21"/>
<path d="M265.002 626L255.188 626L286.724 594.735L255.187 563.503L286.725 532.236L255.188 500.97L265.001 500.97L296.539 532.236L265.002 563.501L296.539 594.733L265.002 626Z" fill="#00B7AB" fill-opacity="0.21"/>
<path d="M295.065 626L285.252 626L316.788 594.735L285.25 563.503L316.788 532.236L285.251 500.97L295.065 500.97L326.602 532.236L295.065 563.501L326.603 594.733L295.065 626Z" fill="#00B7AB" fill-opacity="0.21"/>
<path d="M325.129 626L315.315 626L346.851 594.735L315.314 563.503L346.852 532.236L315.315 500.97L325.128 500.97L356.665 532.236L325.129 563.501L356.666 594.733L325.129 626Z" fill="#00B7AB" fill-opacity="0.21"/>
<path d="M355.192 626L345.379 626L376.915 594.735L345.377 563.503L376.915 532.236L345.378 500.97L355.192 500.97L386.729 532.236L355.192 563.501L386.73 594.733L355.192 626Z" fill="#00B7AB" fill-opacity="0.21"/>
<path d="M385.256 626L375.442 626L406.978 594.735L375.441 563.503L406.979 532.236L375.442 500.97L385.255 500.97L416.792 532.236L385.256 563.501L416.793 594.733L385.256 626Z" fill="#00B7AB" fill-opacity="0.21"/>
<path d="M415.319 626L405.506 626L420.446 611.188L420.446 620.917L415.319 626Z" fill="#00B7AB" fill-opacity="0.21"/>
<path d="M420.446 558.419L415.319 563.501L420.446 568.578L420.446 578.3L405.504 563.503L420.446 548.69L420.446 558.419Z" fill="#00B7AB" fill-opacity="0.21"/>
<path d="M405.505 500.97L420.446 515.783L420.446 506.053L415.319 500.97L405.505 500.97Z" fill="#00B7AB" fill-opacity="0.21"/>
<path d="M420 611.189L436.597 594.735L420 578.298L420 568.577L446.412 594.733L420 620.919L420 611.189Z" fill="#00B7AB" fill-opacity="0.21"/>
<path d="M420 515.781L420 506.052L446.412 532.236L420 558.421L420 548.691L436.598 532.236L420 515.781Z" fill="#00B7AB" fill-opacity="0.21"/>
<path d="M444.938 626L435.125 626L466.661 594.735L435.123 563.503L466.661 532.236L435.124 500.97L444.938 500.97L476.475 532.236L444.939 563.501L476.476 594.733L444.938 626Z" fill="#00B7AB" fill-opacity="0.21"/>
<path d="M475.002 626L465.188 626L496.724 594.735L465.187 563.503L496.725 532.236L465.188 500.97L475.001 500.97L506.539 532.236L475.002 563.501L506.539 594.733L475.002 626Z" fill="#00B7AB" fill-opacity="0.21"/>
<path d="M505.065 626L495.252 626L526.788 594.735L495.25 563.503L526.788 532.236L495.251 500.97L505.065 500.97L536.602 532.236L505.065 563.501L536.603 594.733L505.065 626Z" fill="#00B7AB" fill-opacity="0.21"/>
<path d="M535.129 626L525.315 626L556.851 594.735L525.314 563.503L556.852 532.236L525.315 500.97L535.128 500.97L566.665 532.236L535.129 563.501L566.666 594.733L535.129 626Z" fill="#00B7AB" fill-opacity="0.21"/>
<path d="M565.192 626L555.379 626L586.915 594.735L555.377 563.503L586.915 532.236L555.378 500.97L565.192 500.97L596.729 532.236L565.192 563.501L596.73 594.733L565.192 626Z" fill="#00B7AB" fill-opacity="0.21"/>
<path d="M595.256 626L585.442 626L616.978 594.735L585.441 563.503L616.979 532.236L585.442 500.97L595.255 500.97L626.792 532.236L595.256 563.501L626.793 594.733L595.256 626Z" fill="#00B7AB" fill-opacity="0.21"/>
<path d="M625.319 626L615.506 626L630.446 611.188L630.446 620.917L625.319 626Z" fill="#00B7AB" fill-opacity="0.21"/>
<path d="M630.446 558.419L625.319 563.501L630.446 568.578L630.446 578.3L615.504 563.503L630.446 548.69L630.446 558.419Z" fill="#00B7AB" fill-opacity="0.21"/>
<path d="M615.505 500.97L630.446 515.783L630.446 506.053L625.319 500.97L615.505 500.97Z" fill="#00B7AB" fill-opacity="0.21"/>
<path d="M630 611.189L646.597 594.735L630 578.298L630 568.577L656.412 594.733L630 620.919L630 611.189Z" fill="#00B7AB" fill-opacity="0.21"/>
<path d="M630 515.781L630 506.052L656.412 532.236L630 558.421L630 548.691L646.598 532.236L630 515.781Z" fill="#00B7AB" fill-opacity="0.21"/>
<path d="M654.938 626L645.125 626L676.661 594.735L645.123 563.503L676.661 532.236L645.124 500.97L654.938 500.97L686.475 532.236L654.939 563.501L686.476 594.733L654.938 626Z" fill="#00B7AB" fill-opacity="0.21"/>
<path d="M685.002 626L675.188 626L706.724 594.735L675.187 563.503L706.725 532.236L675.188 500.97L685.001 500.97L716.539 532.236L685.002 563.501L716.539 594.733L685.002 626Z" fill="#00B7AB" fill-opacity="0.21"/>
<path d="M715.065 626L705.252 626L736.788 594.735L705.25 563.503L736.788 532.236L705.251 500.97L715.065 500.97L746.602 532.236L715.065 563.501L746.603 594.733L715.065 626Z" fill="#00B7AB" fill-opacity="0.21"/>
<path d="M745.129 626L735.315 626L766.851 594.735L735.314 563.503L766.852 532.236L735.315 500.97L745.128 500.97L776.665 532.236L745.129 563.501L776.666 594.733L745.129 626Z" fill="#00B7AB" fill-opacity="0.21"/>
<path d="M775.192 626L765.379 626L796.915 594.735L765.377 563.503L796.915 532.236L765.378 500.97L775.192 500.97L806.729 532.236L775.192 563.501L806.73 594.733L775.192 626Z" fill="#00B7AB" fill-opacity="0.21"/>
<path d="M805.256 626L795.442 626L826.978 594.735L795.441 563.503L826.979 532.236L795.442 500.97L805.255 500.97L836.792 532.236L805.256 563.501L836.793 594.733L805.256 626Z" fill="#00B7AB" fill-opacity="0.21"/>
<path d="M835.319 626L825.506 626L840.446 611.188L840.446 620.917L835.319 626Z" fill="#00B7AB" fill-opacity="0.21"/>
<path d="M840.446 558.419L835.319 563.501L840.446 568.578L840.446 578.3L825.504 563.503L840.446 548.69L840.446 558.419Z" fill="#00B7AB" fill-opacity="0.21"/>
<path d="M825.505 500.97L840.446 515.783L840.446 506.053L835.319 500.97L825.505 500.97Z" fill="#00B7AB" fill-opacity="0.21"/>
<path d="M840 611.189L856.597 594.735L840 578.298L840 568.577L866.412 594.733L840 620.919L840 611.189Z" fill="#00B7AB" fill-opacity="0.21"/>
<path d="M840 515.781L840 506.052L866.412 532.236L840 558.421L840 548.691L856.598 532.236L840 515.781Z" fill="#00B7AB" fill-opacity="0.21"/>
<path d="M864.938 626L855.125 626L886.661 594.735L855.123 563.503L886.661 532.236L855.124 500.97L864.938 500.97L896.475 532.236L864.939 563.501L896.476 594.733L864.938 626Z" fill="#00B7AB" fill-opacity="0.21"/>
<path d="M895.002 626L885.188 626L916.724 594.735L885.187 563.503L916.725 532.236L885.188 500.97L895.001 500.97L926.539 532.236L895.002 563.501L926.539 594.733L895.002 626Z" fill="#00B7AB" fill-opacity="0.21"/>
<path d="M925.065 626L915.252 626L946.788 594.735L915.25 563.503L946.788 532.236L915.251 500.97L925.065 500.97L956.602 532.236L925.065 563.501L956.603 594.733L925.065 626Z" fill="#00B7AB" fill-opacity="0.21"/>
<path d="M955.129 626L945.315 626L976.851 594.735L945.314 563.503L976.852 532.236L945.315 500.97L955.128 500.97L986.665 532.236L955.129 563.501L986.666 594.733L955.129 626Z" fill="#00B7AB" fill-opacity="0.21"/>
<path d="M985.192 626L975.379 626L1006.91 594.735L975.377 563.503L1006.92 532.236L975.378 500.97L985.192 500.97L1016.73 532.236L985.192 563.501L1016.73 594.733L985.192 626Z" fill="#00B7AB" fill-opacity="0.21"/>
<path d="M1015.26 626L1005.44 626L1036.98 594.735L1005.44 563.503L1036.98 532.236L1005.44 500.97L1015.26 500.97L1046.79 532.236L1015.26 563.501L1046.79 594.733L1015.26 626Z" fill="#00B7AB" fill-opacity="0.21"/>
<path d="M1045.32 626L1035.51 626L1050.45 611.188L1050.45 620.917L1045.32 626Z" fill="#00B7AB" fill-opacity="0.21"/>
<path d="M1050.45 558.419L1045.32 563.501L1050.45 568.578L1050.45 578.3L1035.5 563.503L1050.45 548.69L1050.45 558.419Z" fill="#00B7AB" fill-opacity="0.21"/>
<path d="M1035.51 500.97L1050.45 515.783L1050.45 506.053L1045.32 500.97L1035.51 500.97Z" fill="#00B7AB" fill-opacity="0.21"/>
<path d="M1050 611.189L1066.6 594.735L1050 578.298L1050 568.577L1076.41 594.733L1050 620.919L1050 611.189Z" fill="#00B7AB" fill-opacity="0.21"/>
<path d="M1050 515.781L1050 506.052L1076.41 532.236L1050 558.421L1050 548.691L1066.6 532.236L1050 515.781Z" fill="#00B7AB" fill-opacity="0.21"/>
<path d="M1074.94 626L1065.12 626L1096.66 594.735L1065.12 563.503L1096.66 532.236L1065.12 500.97L1074.94 500.97L1106.47 532.236L1074.94 563.501L1106.48 594.733L1074.94 626Z" fill="#00B7AB" fill-opacity="0.21"/>
<path d="M1105 626L1095.19 626L1126.72 594.735L1095.19 563.503L1126.72 532.236L1095.19 500.97L1105 500.97L1136.54 532.236L1105 563.501L1136.54 594.733L1105 626Z" fill="#00B7AB" fill-opacity="0.21"/>
<path d="M1135.07 626L1125.25 626L1156.79 594.735L1125.25 563.503L1156.79 532.236L1125.25 500.97L1135.06 500.97L1166.6 532.236L1135.07 563.501L1166.6 594.733L1135.07 626Z" fill="#00B7AB" fill-opacity="0.21"/>
<path d="M1165.13 626L1155.32 626L1186.85 594.735L1155.31 563.503L1186.85 532.236L1155.31 500.97L1165.13 500.97L1196.67 532.236L1165.13 563.501L1196.67 594.733L1165.13 626Z" fill="#00B7AB" fill-opacity="0.21"/>
<path d="M1195.19 626L1185.38 626L1216.91 594.735L1185.38 563.503L1216.92 532.236L1185.38 500.97L1195.19 500.97L1226.73 532.236L1195.19 563.501L1226.73 594.733L1195.19 626Z" fill="#00B7AB" fill-opacity="0.21"/>
<path d="M1225.26 626L1215.44 626L1246.98 594.735L1215.44 563.503L1246.98 532.236L1215.44 500.97L1225.26 500.97L1256.79 532.236L1225.26 563.501L1256.79 594.733L1225.26 626Z" fill="#00B7AB" fill-opacity="0.21"/>
<path d="M1255.32 626L1245.51 626L1260.45 611.188L1260.45 620.917L1255.32 626Z" fill="#00B7AB" fill-opacity="0.21"/>
<path d="M1260.45 558.419L1255.32 563.501L1260.45 568.578L1260.45 578.3L1245.5 563.503L1260.45 548.69L1260.45 558.419Z" fill="#00B7AB" fill-opacity="0.21"/>
<path d="M1245.51 500.97L1260.45 515.783L1260.45 506.053L1255.32 500.97L1245.51 500.97Z" fill="#00B7AB" fill-opacity="0.21"/>
<path d="M1260 611.189L1276.6 594.735L1260 578.298L1260 568.577L1286.41 594.733L1260 620.919L1260 611.189Z" fill="#00B7AB" fill-opacity="0.21"/>
<path d="M1260 515.781L1260 506.052L1286.41 532.236L1260 558.421L1260 548.691L1276.6 532.236L1260 515.781Z" fill="#00B7AB" fill-opacity="0.21"/>
<path d="M1284.94 626L1275.12 626L1306.66 594.735L1275.12 563.503L1306.66 532.236L1275.12 500.97L1284.94 500.97L1316.47 532.236L1284.94 563.501L1316.48 594.733L1284.94 626Z" fill="#00B7AB" fill-opacity="0.21"/>
<path d="M1315 626L1305.19 626L1336.72 594.735L1305.19 563.503L1336.72 532.236L1305.19 500.97L1315 500.97L1346.54 532.236L1315 563.501L1346.54 594.733L1315 626Z" fill="#00B7AB" fill-opacity="0.21"/>
<path d="M1345.07 626L1335.25 626L1366.79 594.735L1335.25 563.503L1366.79 532.236L1335.25 500.97L1345.06 500.97L1376.6 532.236L1345.07 563.501L1376.6 594.733L1345.07 626Z" fill="#00B7AB" fill-opacity="0.21"/>
<path d="M1375.13 626L1365.32 626L1396.85 594.735L1365.31 563.503L1396.85 532.236L1365.31 500.97L1375.13 500.97L1406.67 532.236L1375.13 563.501L1406.67 594.733L1375.13 626Z" fill="#00B7AB" fill-opacity="0.21"/>
<path d="M1405.19 626L1395.38 626L1426.91 594.735L1395.38 563.503L1426.92 532.236L1395.38 500.97L1405.19 500.97L1436.73 532.236L1405.19 563.501L1436.73 594.733L1405.19 626Z" fill="#00B7AB" fill-opacity="0.21"/>
<path d="M1435.26 626L1425.44 626L1456.98 594.735L1425.44 563.503L1456.98 532.236L1425.44 500.97L1435.26 500.97L1466.79 532.236L1435.26 563.501L1466.79 594.733L1435.26 626Z" fill="#00B7AB" fill-opacity="0.21"/>
<path d="M1465.32 626L1455.51 626L1470.45 611.188L1470.45 620.917L1465.32 626Z" fill="#00B7AB" fill-opacity="0.21"/>
<path d="M1470.45 558.419L1465.32 563.501L1470.45 568.578L1470.45 578.3L1455.5 563.503L1470.45 548.69L1470.45 558.419Z" fill="#00B7AB" fill-opacity="0.21"/>
<path d="M1455.51 500.97L1470.45 515.783L1470.45 506.053L1465.32 500.97L1455.51 500.97Z" fill="#00B7AB" fill-opacity="0.21"/>
<path d="M-6.82555e-07 736.189L16.5972 719.735L-2.19837e-06 703.298L-2.64639e-06 693.577L26.4122 719.733L-2.34172e-07 745.919L-6.82555e-07 736.189Z" fill="#00B7AB" fill-opacity="0.21"/>
<path d="M-5.07951e-06 640.781L-5.52789e-06 631.052L26.4115 657.236L-3.11444e-06 683.421L-3.56282e-06 673.691L16.5979 657.236L-5.07951e-06 640.781Z" fill="#00B7AB" fill-opacity="0.21"/>
<path d="M24.9382 751L15.1246 751L46.6607 719.735L15.1235 688.503L46.6613 657.236L15.1242 625.97L24.9378 625.97L56.475 657.236L24.9385 688.501L56.4757 719.733L24.9382 751Z" fill="#00B7AB" fill-opacity="0.21"/>
<path d="M55.0017 751L45.1881 751L76.7242 719.735L45.187 688.503L76.7248 657.236L45.1877 625.97L55.0013 625.97L86.5385 657.236L55.002 688.501L86.5392 719.733L55.0017 751Z" fill="#00B7AB" fill-opacity="0.21"/>
<path d="M85.0652 751L75.2516 751L106.788 719.735L75.2504 688.503L106.788 657.236L75.2511 625.97L85.0648 625.97L116.602 657.236L85.0655 688.501L116.603 719.733L85.0652 751Z" fill="#00B7AB" fill-opacity="0.21"/>
<path d="M115.129 751L105.315 751L136.851 719.735L105.314 688.503L136.852 657.236L105.315 625.97L115.128 625.97L146.665 657.236L115.129 688.501L146.666 719.733L115.129 751Z" fill="#00B7AB" fill-opacity="0.21"/>
<path d="M145.192 751L135.379 751L166.915 719.735L135.377 688.503L166.915 657.236L135.378 625.97L145.192 625.97L176.729 657.236L145.192 688.501L176.73 719.733L145.192 751Z" fill="#00B7AB" fill-opacity="0.21"/>
<path d="M175.256 751L165.442 751L196.978 719.735L165.441 688.503L196.979 657.236L165.442 625.97L175.255 625.97L206.792 657.236L175.256 688.501L206.793 719.733L175.256 751Z" fill="#00B7AB" fill-opacity="0.21"/>
<path d="M205.319 751L195.506 751L210.446 736.188L210.446 745.917L205.319 751Z" fill="#00B7AB" fill-opacity="0.21"/>
<path d="M210.446 683.419L205.319 688.501L210.446 693.578L210.446 703.3L195.504 688.503L210.446 673.69L210.446 683.419Z" fill="#00B7AB" fill-opacity="0.21"/>
<path d="M195.505 625.97L210.446 640.783L210.446 631.053L205.319 625.97L195.505 625.97Z" fill="#00B7AB" fill-opacity="0.21"/>
<path d="M210 736.189L226.597 719.735L210 703.298L210 693.577L236.412 719.733L210 745.919L210 736.189Z" fill="#00B7AB" fill-opacity="0.21"/>
<path d="M210 640.781L210 631.052L236.412 657.236L210 683.421L210 673.691L226.598 657.236L210 640.781Z" fill="#00B7AB" fill-opacity="0.21"/>
<path d="M234.938 751L225.125 751L256.661 719.735L225.123 688.503L256.661 657.236L225.124 625.97L234.938 625.97L266.475 657.236L234.939 688.501L266.476 719.733L234.938 751Z" fill="#00B7AB" fill-opacity="0.21"/>
<path d="M265.002 751L255.188 751L286.724 719.735L255.187 688.503L286.725 657.236L255.188 625.97L265.001 625.97L296.539 657.236L265.002 688.501L296.539 719.733L265.002 751Z" fill="#00B7AB" fill-opacity="0.21"/>
<path d="M295.065 751L285.252 751L316.788 719.735L285.25 688.503L316.788 657.236L285.251 625.97L295.065 625.97L326.602 657.236L295.065 688.501L326.603 719.733L295.065 751Z" fill="#00B7AB" fill-opacity="0.21"/>
<path d="M325.129 751L315.315 751L346.851 719.735L315.314 688.503L346.852 657.236L315.315 625.97L325.128 625.97L356.665 657.236L325.129 688.501L356.666 719.733L325.129 751Z" fill="#00B7AB" fill-opacity="0.21"/>
<path d="M355.192 751L345.379 751L376.915 719.735L345.377 688.503L376.915 657.236L345.378 625.97L355.192 625.97L386.729 657.236L355.192 688.501L386.73 719.733L355.192 751Z" fill="#00B7AB" fill-opacity="0.21"/>
<path d="M385.256 751L375.442 751L406.978 719.735L375.441 688.503L406.979 657.236L375.442 625.97L385.255 625.97L416.792 657.236L385.256 688.501L416.793 719.733L385.256 751Z" fill="#00B7AB" fill-opacity="0.21"/>
<path d="M415.319 751L405.506 751L420.446 736.188L420.446 745.917L415.319 751Z" fill="#00B7AB" fill-opacity="0.21"/>
<path d="M420.446 683.419L415.319 688.501L420.446 693.578L420.446 703.3L405.504 688.503L420.446 673.69L420.446 683.419Z" fill="#00B7AB" fill-opacity="0.21"/>
<path d="M405.505 625.97L420.446 640.783L420.446 631.053L415.319 625.97L405.505 625.97Z" fill="#00B7AB" fill-opacity="0.21"/>
<path d="M420 736.189L436.597 719.735L420 703.298L420 693.577L446.412 719.733L420 745.919L420 736.189Z" fill="#00B7AB" fill-opacity="0.21"/>
<path d="M420 640.781L420 631.052L446.412 657.236L420 683.421L420 673.691L436.598 657.236L420 640.781Z" fill="#00B7AB" fill-opacity="0.21"/>
<path d="M444.938 751L435.125 751L466.661 719.735L435.123 688.503L466.661 657.236L435.124 625.97L444.938 625.97L476.475 657.236L444.939 688.501L476.476 719.733L444.938 751Z" fill="#00B7AB" fill-opacity="0.21"/>
<path d="M475.002 751L465.188 751L496.724 719.735L465.187 688.503L496.725 657.236L465.188 625.97L475.001 625.97L506.539 657.236L475.002 688.501L506.539 719.733L475.002 751Z" fill="#00B7AB" fill-opacity="0.21"/>
<path d="M505.065 751L495.252 751L526.788 719.735L495.25 688.503L526.788 657.236L495.251 625.97L505.065 625.97L536.602 657.236L505.065 688.501L536.603 719.733L505.065 751Z" fill="#00B7AB" fill-opacity="0.21"/>
<path d="M535.129 751L525.315 751L556.851 719.735L525.314 688.503L556.852 657.236L525.315 625.97L535.128 625.97L566.665 657.236L535.129 688.501L566.666 719.733L535.129 751Z" fill="#00B7AB" fill-opacity="0.21"/>
<path d="M565.192 751L555.379 751L586.915 719.735L555.377 688.503L586.915 657.236L555.378 625.97L565.192 625.97L596.729 657.236L565.192 688.501L596.73 719.733L565.192 751Z" fill="#00B7AB" fill-opacity="0.21"/>
<path d="M595.256 751L585.442 751L616.978 719.735L585.441 688.503L616.979 657.236L585.442 625.97L595.255 625.97L626.792 657.236L595.256 688.501L626.793 719.733L595.256 751Z" fill="#00B7AB" fill-opacity="0.21"/>
<path d="M625.319 751L615.506 751L630.446 736.188L630.446 745.917L625.319 751Z" fill="#00B7AB" fill-opacity="0.21"/>
<path d="M630.446 683.419L625.319 688.501L630.446 693.578L630.446 703.3L615.504 688.503L630.446 673.69L630.446 683.419Z" fill="#00B7AB" fill-opacity="0.21"/>
<path d="M615.505 625.97L630.446 640.783L630.446 631.053L625.319 625.97L615.505 625.97Z" fill="#00B7AB" fill-opacity="0.21"/>
<path d="M630 736.189L646.597 719.735L630 703.298L630 693.577L656.412 719.733L630 745.919L630 736.189Z" fill="#00B7AB" fill-opacity="0.21"/>
<path d="M630 640.781L630 631.052L656.412 657.236L630 683.421L630 673.691L646.598 657.236L630 640.781Z" fill="#00B7AB" fill-opacity="0.21"/>
<path d="M654.938 751L645.125 751L676.661 719.735L645.123 688.503L676.661 657.236L645.124 625.97L654.938 625.97L686.475 657.236L654.939 688.501L686.476 719.733L654.938 751Z" fill="#00B7AB" fill-opacity="0.21"/>
<path d="M685.002 751L675.188 751L706.724 719.735L675.187 688.503L706.725 657.236L675.188 625.97L685.001 625.97L716.539 657.236L685.002 688.501L716.539 719.733L685.002 751Z" fill="#00B7AB" fill-opacity="0.21"/>
<path d="M715.065 751L705.252 751L736.788 719.735L705.25 688.503L736.788 657.236L705.251 625.97L715.065 625.97L746.602 657.236L715.065 688.501L746.603 719.733L715.065 751Z" fill="#00B7AB" fill-opacity="0.21"/>
<path d="M745.129 751L735.315 751L766.851 719.735L735.314 688.503L766.852 657.236L735.315 625.97L745.128 625.97L776.665 657.236L745.129 688.501L776.666 719.733L745.129 751Z" fill="#00B7AB" fill-opacity="0.21"/>
<path d="M775.192 751L765.379 751L796.915 719.735L765.377 688.503L796.915 657.236L765.378 625.97L775.192 625.97L806.729 657.236L775.192 688.501L806.73 719.733L775.192 751Z" fill="#00B7AB" fill-opacity="0.21"/>
<path d="M805.256 751L795.442 751L826.978 719.735L795.441 688.503L826.979 657.236L795.442 625.97L805.255 625.97L836.792 657.236L805.256 688.501L836.793 719.733L805.256 751Z" fill="#00B7AB" fill-opacity="0.21"/>
<path d="M835.319 751L825.506 751L840.446 736.188L840.446 745.917L835.319 751Z" fill="#00B7AB" fill-opacity="0.21"/>
<path d="M840.446 683.419L835.319 688.501L840.446 693.578L840.446 703.3L825.504 688.503L840.446 673.69L840.446 683.419Z" fill="#00B7AB" fill-opacity="0.21"/>
<path d="M825.505 625.97L840.446 640.783L840.446 631.053L835.319 625.97L825.505 625.97Z" fill="#00B7AB" fill-opacity="0.21"/>
<path d="M840 736.189L856.597 719.735L840 703.298L840 693.577L866.412 719.733L840 745.919L840 736.189Z" fill="#00B7AB" fill-opacity="0.21"/>
<path d="M840 640.781L840 631.052L866.412 657.236L840 683.421L840 673.691L856.598 657.236L840 640.781Z" fill="#00B7AB" fill-opacity="0.21"/>
<path d="M864.938 751L855.125 751L886.661 719.735L855.123 688.503L886.661 657.236L855.124 625.97L864.938 625.97L896.475 657.236L864.939 688.501L896.476 719.733L864.938 751Z" fill="#00B7AB" fill-opacity="0.21"/>
<path d="M895.002 751L885.188 751L916.724 719.735L885.187 688.503L916.725 657.236L885.188 625.97L895.001 625.97L926.539 657.236L895.002 688.501L926.539 719.733L895.002 751Z" fill="#00B7AB" fill-opacity="0.21"/>
<path d="M925.065 751L915.252 751L946.788 719.735L915.25 688.503L946.788 657.236L915.251 625.97L925.065 625.97L956.602 657.236L925.065 688.501L956.603 719.733L925.065 751Z" fill="#00B7AB" fill-opacity="0.21"/>
<path d="M955.129 751L945.315 751L976.851 719.735L945.314 688.503L976.852 657.236L945.315 625.97L955.128 625.97L986.665 657.236L955.129 688.501L986.666 719.733L955.129 751Z" fill="#00B7AB" fill-opacity="0.21"/>
<path d="M985.192 751L975.379 751L1006.91 719.735L975.377 688.503L1006.92 657.236L975.378 625.97L985.192 625.97L1016.73 657.236L985.192 688.501L1016.73 719.733L985.192 751Z" fill="#00B7AB" fill-opacity="0.21"/>
<path d="M1015.26 751L1005.44 751L1036.98 719.735L1005.44 688.503L1036.98 657.236L1005.44 625.97L1015.26 625.97L1046.79 657.236L1015.26 688.501L1046.79 719.733L1015.26 751Z" fill="#00B7AB" fill-opacity="0.21"/>
<path d="M1045.32 751L1035.51 751L1050.45 736.188L1050.45 745.917L1045.32 751Z" fill="#00B7AB" fill-opacity="0.21"/>
<path d="M1050.45 683.419L1045.32 688.501L1050.45 693.578L1050.45 703.3L1035.5 688.503L1050.45 673.69L1050.45 683.419Z" fill="#00B7AB" fill-opacity="0.21"/>
<path d="M1035.51 625.97L1050.45 640.783L1050.45 631.053L1045.32 625.97L1035.51 625.97Z" fill="#00B7AB" fill-opacity="0.21"/>
<path d="M1050 736.189L1066.6 719.735L1050 703.298L1050 693.577L1076.41 719.733L1050 745.919L1050 736.189Z" fill="#00B7AB" fill-opacity="0.21"/>
<path d="M1050 640.781L1050 631.052L1076.41 657.236L1050 683.421L1050 673.691L1066.6 657.236L1050 640.781Z" fill="#00B7AB" fill-opacity="0.21"/>
<path d="M1074.94 751L1065.12 751L1096.66 719.735L1065.12 688.503L1096.66 657.236L1065.12 625.97L1074.94 625.97L1106.47 657.236L1074.94 688.501L1106.48 719.733L1074.94 751Z" fill="#00B7AB" fill-opacity="0.21"/>
<path d="M1105 751L1095.19 751L1126.72 719.735L1095.19 688.503L1126.72 657.236L1095.19 625.97L1105 625.97L1136.54 657.236L1105 688.501L1136.54 719.733L1105 751Z" fill="#00B7AB" fill-opacity="0.21"/>
<path d="M1135.07 751L1125.25 751L1156.79 719.735L1125.25 688.503L1156.79 657.236L1125.25 625.97L1135.06 625.97L1166.6 657.236L1135.07 688.501L1166.6 719.733L1135.07 751Z" fill="#00B7AB" fill-opacity="0.21"/>
<path d="M1165.13 751L1155.32 751L1186.85 719.735L1155.31 688.503L1186.85 657.236L1155.31 625.97L1165.13 625.97L1196.67 657.236L1165.13 688.501L1196.67 719.733L1165.13 751Z" fill="#00B7AB" fill-opacity="0.21"/>
<path d="M1195.19 751L1185.38 751L1216.91 719.735L1185.38 688.503L1216.92 657.236L1185.38 625.97L1195.19 625.97L1226.73 657.236L1195.19 688.501L1226.73 719.733L1195.19 751Z" fill="#00B7AB" fill-opacity="0.21"/>
<path d="M1225.26 751L1215.44 751L1246.98 719.735L1215.44 688.503L1246.98 657.236L1215.44 625.97L1225.26 625.97L1256.79 657.236L1225.26 688.501L1256.79 719.733L1225.26 751Z" fill="#00B7AB" fill-opacity="0.21"/>
<path d="M1255.32 751L1245.51 751L1260.45 736.188L1260.45 745.917L1255.32 751Z" fill="#00B7AB" fill-opacity="0.21"/>
<path d="M1260.45 683.419L1255.32 688.501L1260.45 693.578L1260.45 703.3L1245.5 688.503L1260.45 673.69L1260.45 683.419Z" fill="#00B7AB" fill-opacity="0.21"/>
<path d="M1245.51 625.97L1260.45 640.783L1260.45 631.053L1255.32 625.97L1245.51 625.97Z" fill="#00B7AB" fill-opacity="0.21"/>
<path d="M1260 736.189L1276.6 719.735L1260 703.298L1260 693.577L1286.41 719.733L1260 745.919L1260 736.189Z" fill="#00B7AB" fill-opacity="0.21"/>
<path d="M1260 640.781L1260 631.052L1286.41 657.236L1260 683.421L1260 673.691L1276.6 657.236L1260 640.781Z" fill="#00B7AB" fill-opacity="0.21"/>
<path d="M1284.94 751L1275.12 751L1306.66 719.735L1275.12 688.503L1306.66 657.236L1275.12 625.97L1284.94 625.97L1316.47 657.236L1284.94 688.501L1316.48 719.733L1284.94 751Z" fill="#00B7AB" fill-opacity="0.21"/>
<path d="M1315 751L1305.19 751L1336.72 719.735L1305.19 688.503L1336.72 657.236L1305.19 625.97L1315 625.97L1346.54 657.236L1315 688.501L1346.54 719.733L1315 751Z" fill="#00B7AB" fill-opacity="0.21"/>
<path d="M1345.07 751L1335.25 751L1366.79 719.735L1335.25 688.503L1366.79 657.236L1335.25 625.97L1345.06 625.97L1376.6 657.236L1345.07 688.501L1376.6 719.733L1345.07 751Z" fill="#00B7AB" fill-opacity="0.21"/>
<path d="M1375.13 751L1365.32 751L1396.85 719.735L1365.31 688.503L1396.85 657.236L1365.31 625.97L1375.13 625.97L1406.67 657.236L1375.13 688.501L1406.67 719.733L1375.13 751Z" fill="#00B7AB" fill-opacity="0.21"/>
<path d="M1405.19 751L1395.38 751L1426.91 719.735L1395.38 688.503L1426.92 657.236L1395.38 625.97L1405.19 625.97L1436.73 657.236L1405.19 688.501L1436.73 719.733L1405.19 751Z" fill="#00B7AB" fill-opacity="0.21"/>
<path d="M1435.26 751L1425.44 751L1456.98 719.735L1425.44 688.503L1456.98 657.236L1425.44 625.97L1435.26 625.97L1466.79 657.236L1435.26 688.501L1466.79 719.733L1435.26 751Z" fill="#00B7AB" fill-opacity="0.21"/>
<path d="M1465.32 751L1455.51 751L1470.45 736.188L1470.45 745.917L1465.32 751Z" fill="#00B7AB" fill-opacity="0.21"/>
<path d="M1470.45 683.419L1465.32 688.501L1470.45 693.578L1470.45 703.3L1455.5 688.503L1470.45 673.69L1470.45 683.419Z" fill="#00B7AB" fill-opacity="0.21"/>
<path d="M1455.51 625.97L1470.45 640.783L1470.45 631.053L1465.32 625.97L1455.51 625.97Z" fill="#00B7AB" fill-opacity="0.21"/>
<path d="M-6.82555e-07 861.189L16.5972 844.735L-2.19837e-06 828.298L-2.64639e-06 818.577L26.4122 844.733L-2.34172e-07 870.919L-6.82555e-07 861.189Z" fill="#00B7AB" fill-opacity="0.21"/>
<path d="M-5.07951e-06 765.781L-5.52789e-06 756.052L26.4115 782.236L-3.11444e-06 808.421L-3.56282e-06 798.691L16.5979 782.236L-5.07951e-06 765.781Z" fill="#00B7AB" fill-opacity="0.21"/>
<path d="M24.9382 876L15.1246 876L46.6607 844.735L15.1235 813.503L46.6613 782.236L15.1242 750.97L24.9378 750.97L56.475 782.236L24.9385 813.501L56.4757 844.733L24.9382 876Z" fill="#00B7AB" fill-opacity="0.21"/>
<path d="M55.0017 876L45.1881 876L76.7242 844.735L45.187 813.503L76.7248 782.236L45.1877 750.97L55.0013 750.97L86.5385 782.236L55.002 813.501L86.5392 844.733L55.0017 876Z" fill="#00B7AB" fill-opacity="0.21"/>
<path d="M85.0652 876L75.2516 876L106.788 844.735L75.2504 813.503L106.788 782.236L75.2511 750.97L85.0648 750.97L116.602 782.236L85.0655 813.501L116.603 844.733L85.0652 876Z" fill="#00B7AB" fill-opacity="0.21"/>
<path d="M115.129 876L105.315 876L136.851 844.735L105.314 813.503L136.852 782.236L105.315 750.97L115.128 750.97L146.665 782.236L115.129 813.501L146.666 844.733L115.129 876Z" fill="#00B7AB" fill-opacity="0.21"/>
<path d="M145.192 876L135.379 876L166.915 844.735L135.377 813.503L166.915 782.236L135.378 750.97L145.192 750.97L176.729 782.236L145.192 813.501L176.73 844.733L145.192 876Z" fill="#00B7AB" fill-opacity="0.21"/>
<path d="M175.256 876L165.442 876L196.978 844.735L165.441 813.503L196.979 782.236L165.442 750.97L175.255 750.97L206.792 782.236L175.256 813.501L206.793 844.733L175.256 876Z" fill="#00B7AB" fill-opacity="0.21"/>
<path d="M205.319 876L195.506 876L210.446 861.188L210.446 870.917L205.319 876Z" fill="#00B7AB" fill-opacity="0.21"/>
<path d="M210.446 808.419L205.319 813.501L210.446 818.578L210.446 828.3L195.504 813.503L210.446 798.69L210.446 808.419Z" fill="#00B7AB" fill-opacity="0.21"/>
<path d="M195.505 750.97L210.446 765.783L210.446 756.053L205.319 750.97L195.505 750.97Z" fill="#00B7AB" fill-opacity="0.21"/>
<path d="M210 861.189L226.597 844.735L210 828.298L210 818.577L236.412 844.733L210 870.919L210 861.189Z" fill="#00B7AB" fill-opacity="0.21"/>
<path d="M210 765.781L210 756.052L236.412 782.236L210 808.421L210 798.691L226.598 782.236L210 765.781Z" fill="#00B7AB" fill-opacity="0.21"/>
<path d="M234.938 876L225.125 876L256.661 844.735L225.123 813.503L256.661 782.236L225.124 750.97L234.938 750.97L266.475 782.236L234.939 813.501L266.476 844.733L234.938 876Z" fill="#00B7AB" fill-opacity="0.21"/>
<path d="M265.002 876L255.188 876L286.724 844.735L255.187 813.503L286.725 782.236L255.188 750.97L265.001 750.97L296.539 782.236L265.002 813.501L296.539 844.733L265.002 876Z" fill="#00B7AB" fill-opacity="0.21"/>
<path d="M295.065 876L285.252 876L316.788 844.735L285.25 813.503L316.788 782.236L285.251 750.97L295.065 750.97L326.602 782.236L295.065 813.501L326.603 844.733L295.065 876Z" fill="#00B7AB" fill-opacity="0.21"/>
<path d="M325.129 876L315.315 876L346.851 844.735L315.314 813.503L346.852 782.236L315.315 750.97L325.128 750.97L356.665 782.236L325.129 813.501L356.666 844.733L325.129 876Z" fill="#00B7AB" fill-opacity="0.21"/>
<path d="M355.192 876L345.379 876L376.915 844.735L345.377 813.503L376.915 782.236L345.378 750.97L355.192 750.97L386.729 782.236L355.192 813.501L386.73 844.733L355.192 876Z" fill="#00B7AB" fill-opacity="0.21"/>
<path d="M385.256 876L375.442 876L406.978 844.735L375.441 813.503L406.979 782.236L375.442 750.97L385.255 750.97L416.792 782.236L385.256 813.501L416.793 844.733L385.256 876Z" fill="#00B7AB" fill-opacity="0.21"/>
<path d="M415.319 876L405.506 876L420.446 861.188L420.446 870.917L415.319 876Z" fill="#00B7AB" fill-opacity="0.21"/>
<path d="M420.446 808.419L415.319 813.501L420.446 818.578L420.446 828.3L405.504 813.503L420.446 798.69L420.446 808.419Z" fill="#00B7AB" fill-opacity="0.21"/>
<path d="M405.505 750.97L420.446 765.783L420.446 756.053L415.319 750.97L405.505 750.97Z" fill="#00B7AB" fill-opacity="0.21"/>
<path d="M420 861.189L436.597 844.735L420 828.298L420 818.577L446.412 844.733L420 870.919L420 861.189Z" fill="#00B7AB" fill-opacity="0.21"/>
<path d="M420 765.781L420 756.052L446.412 782.236L420 808.421L420 798.691L436.598 782.236L420 765.781Z" fill="#00B7AB" fill-opacity="0.21"/>
<path d="M444.938 876L435.125 876L466.661 844.735L435.123 813.503L466.661 782.236L435.124 750.97L444.938 750.97L476.475 782.236L444.939 813.501L476.476 844.733L444.938 876Z" fill="#00B7AB" fill-opacity="0.21"/>
<path d="M475.002 876L465.188 876L496.724 844.735L465.187 813.503L496.725 782.236L465.188 750.97L475.001 750.97L506.539 782.236L475.002 813.501L506.539 844.733L475.002 876Z" fill="#00B7AB" fill-opacity="0.21"/>
<path d="M505.065 876L495.252 876L526.788 844.735L495.25 813.503L526.788 782.236L495.251 750.97L505.065 750.97L536.602 782.236L505.065 813.501L536.603 844.733L505.065 876Z" fill="#00B7AB" fill-opacity="0.21"/>
<path d="M535.129 876L525.315 876L556.851 844.735L525.314 813.503L556.852 782.236L525.315 750.97L535.128 750.97L566.665 782.236L535.129 813.501L566.666 844.733L535.129 876Z" fill="#00B7AB" fill-opacity="0.21"/>
<path d="M565.192 876L555.379 876L586.915 844.735L555.377 813.503L586.915 782.236L555.378 750.97L565.192 750.97L596.729 782.236L565.192 813.501L596.73 844.733L565.192 876Z" fill="#00B7AB" fill-opacity="0.21"/>
<path d="M595.256 876L585.442 876L616.978 844.735L585.441 813.503L616.979 782.236L585.442 750.97L595.255 750.97L626.792 782.236L595.256 813.501L626.793 844.733L595.256 876Z" fill="#00B7AB" fill-opacity="0.21"/>
<path d="M625.319 876L615.506 876L630.446 861.188L630.446 870.917L625.319 876Z" fill="#00B7AB" fill-opacity="0.21"/>
<path d="M630.446 808.419L625.319 813.501L630.446 818.578L630.446 828.3L615.504 813.503L630.446 798.69L630.446 808.419Z" fill="#00B7AB" fill-opacity="0.21"/>
<path d="M615.505 750.97L630.446 765.783L630.446 756.053L625.319 750.97L615.505 750.97Z" fill="#00B7AB" fill-opacity="0.21"/>
<path d="M630 861.189L646.597 844.735L630 828.298L630 818.577L656.412 844.733L630 870.919L630 861.189Z" fill="#00B7AB" fill-opacity="0.21"/>
<path d="M630 765.781L630 756.052L656.412 782.236L630 808.421L630 798.691L646.598 782.236L630 765.781Z" fill="#00B7AB" fill-opacity="0.21"/>
<path d="M654.938 876L645.125 876L676.661 844.735L645.123 813.503L676.661 782.236L645.124 750.97L654.938 750.97L686.475 782.236L654.939 813.501L686.476 844.733L654.938 876Z" fill="#00B7AB" fill-opacity="0.21"/>
<path d="M685.002 876L675.188 876L706.724 844.735L675.187 813.503L706.725 782.236L675.188 750.97L685.001 750.97L716.539 782.236L685.002 813.501L716.539 844.733L685.002 876Z" fill="#00B7AB" fill-opacity="0.21"/>
<path d="M715.065 876L705.252 876L736.788 844.735L705.25 813.503L736.788 782.236L705.251 750.97L715.065 750.97L746.602 782.236L715.065 813.501L746.603 844.733L715.065 876Z" fill="#00B7AB" fill-opacity="0.21"/>
<path d="M745.129 876L735.315 876L766.851 844.735L735.314 813.503L766.852 782.236L735.315 750.97L745.128 750.97L776.665 782.236L745.129 813.501L776.666 844.733L745.129 876Z" fill="#00B7AB" fill-opacity="0.21"/>
<path d="M775.192 876L765.379 876L796.915 844.735L765.377 813.503L796.915 782.236L765.378 750.97L775.192 750.97L806.729 782.236L775.192 813.501L806.73 844.733L775.192 876Z" fill="#00B7AB" fill-opacity="0.21"/>
<path d="M805.256 876L795.442 876L826.978 844.735L795.441 813.503L826.979 782.236L795.442 750.97L805.255 750.97L836.792 782.236L805.256 813.501L836.793 844.733L805.256 876Z" fill="#00B7AB" fill-opacity="0.21"/>
<path d="M835.319 876L825.506 876L840.446 861.188L840.446 870.917L835.319 876Z" fill="#00B7AB" fill-opacity="0.21"/>
<path d="M840.446 808.419L835.319 813.501L840.446 818.578L840.446 828.3L825.504 813.503L840.446 798.69L840.446 808.419Z" fill="#00B7AB" fill-opacity="0.21"/>
<path d="M825.505 750.97L840.446 765.783L840.446 756.053L835.319 750.97L825.505 750.97Z" fill="#00B7AB" fill-opacity="0.21"/>
<path d="M840 861.189L856.597 844.735L840 828.298L840 818.577L866.412 844.733L840 870.919L840 861.189Z" fill="#00B7AB" fill-opacity="0.21"/>
<path d="M840 765.781L840 756.052L866.412 782.236L840 808.421L840 798.691L856.598 782.236L840 765.781Z" fill="#00B7AB" fill-opacity="0.21"/>
<path d="M864.938 876L855.125 876L886.661 844.735L855.123 813.503L886.661 782.236L855.124 750.97L864.938 750.97L896.475 782.236L864.939 813.501L896.476 844.733L864.938 876Z" fill="#00B7AB" fill-opacity="0.21"/>
<path d="M895.002 876L885.188 876L916.724 844.735L885.187 813.503L916.725 782.236L885.188 750.97L895.001 750.97L926.539 782.236L895.002 813.501L926.539 844.733L895.002 876Z" fill="#00B7AB" fill-opacity="0.21"/>
<path d="M925.065 876L915.252 876L946.788 844.735L915.25 813.503L946.788 782.236L915.251 750.97L925.065 750.97L956.602 782.236L925.065 813.501L956.603 844.733L925.065 876Z" fill="#00B7AB" fill-opacity="0.21"/>
<path d="M955.129 876L945.315 876L976.851 844.735L945.314 813.503L976.852 782.236L945.315 750.97L955.128 750.97L986.665 782.236L955.129 813.501L986.666 844.733L955.129 876Z" fill="#00B7AB" fill-opacity="0.21"/>
<path d="M985.192 876L975.379 876L1006.91 844.735L975.377 813.503L1006.92 782.236L975.378 750.97L985.192 750.97L1016.73 782.236L985.192 813.501L1016.73 844.733L985.192 876Z" fill="#00B7AB" fill-opacity="0.21"/>
<path d="M1015.26 876L1005.44 876L1036.98 844.735L1005.44 813.503L1036.98 782.236L1005.44 750.97L1015.26 750.97L1046.79 782.236L1015.26 813.501L1046.79 844.733L1015.26 876Z" fill="#00B7AB" fill-opacity="0.21"/>
<path d="M1045.32 876L1035.51 876L1050.45 861.188L1050.45 870.917L1045.32 876Z" fill="#00B7AB" fill-opacity="0.21"/>
<path d="M1050.45 808.419L1045.32 813.501L1050.45 818.578L1050.45 828.3L1035.5 813.503L1050.45 798.69L1050.45 808.419Z" fill="#00B7AB" fill-opacity="0.21"/>
<path d="M1035.51 750.97L1050.45 765.783L1050.45 756.053L1045.32 750.97L1035.51 750.97Z" fill="#00B7AB" fill-opacity="0.21"/>
<path d="M1050 861.189L1066.6 844.735L1050 828.298L1050 818.577L1076.41 844.733L1050 870.919L1050 861.189Z" fill="#00B7AB" fill-opacity="0.21"/>
<path d="M1050 765.781L1050 756.052L1076.41 782.236L1050 808.421L1050 798.691L1066.6 782.236L1050 765.781Z" fill="#00B7AB" fill-opacity="0.21"/>
<path d="M1074.94 876L1065.12 876L1096.66 844.735L1065.12 813.503L1096.66 782.236L1065.12 750.97L1074.94 750.97L1106.47 782.236L1074.94 813.501L1106.48 844.733L1074.94 876Z" fill="#00B7AB" fill-opacity="0.21"/>
<path d="M1105 876L1095.19 876L1126.72 844.735L1095.19 813.503L1126.72 782.236L1095.19 750.97L1105 750.97L1136.54 782.236L1105 813.501L1136.54 844.733L1105 876Z" fill="#00B7AB" fill-opacity="0.21"/>
<path d="M1135.07 876L1125.25 876L1156.79 844.735L1125.25 813.503L1156.79 782.236L1125.25 750.97L1135.06 750.97L1166.6 782.236L1135.07 813.501L1166.6 844.733L1135.07 876Z" fill="#00B7AB" fill-opacity="0.21"/>
<path d="M1165.13 876L1155.32 876L1186.85 844.735L1155.31 813.503L1186.85 782.236L1155.31 750.97L1165.13 750.97L1196.67 782.236L1165.13 813.501L1196.67 844.733L1165.13 876Z" fill="#00B7AB" fill-opacity="0.21"/>
<path d="M1195.19 876L1185.38 876L1216.91 844.735L1185.38 813.503L1216.92 782.236L1185.38 750.97L1195.19 750.97L1226.73 782.236L1195.19 813.501L1226.73 844.733L1195.19 876Z" fill="#00B7AB" fill-opacity="0.21"/>
<path d="M1225.26 876L1215.44 876L1246.98 844.735L1215.44 813.503L1246.98 782.236L1215.44 750.97L1225.26 750.97L1256.79 782.236L1225.26 813.501L1256.79 844.733L1225.26 876Z" fill="#00B7AB" fill-opacity="0.21"/>
<path d="M1255.32 876L1245.51 876L1260.45 861.188L1260.45 870.917L1255.32 876Z" fill="#00B7AB" fill-opacity="0.21"/>
<path d="M1260.45 808.419L1255.32 813.501L1260.45 818.578L1260.45 828.3L1245.5 813.503L1260.45 798.69L1260.45 808.419Z" fill="#00B7AB" fill-opacity="0.21"/>
<path d="M1245.51 750.97L1260.45 765.783L1260.45 756.053L1255.32 750.97L1245.51 750.97Z" fill="#00B7AB" fill-opacity="0.21"/>
<path d="M1260 861.189L1276.6 844.735L1260 828.298L1260 818.577L1286.41 844.733L1260 870.919L1260 861.189Z" fill="#00B7AB" fill-opacity="0.21"/>
<path d="M1260 765.781L1260 756.052L1286.41 782.236L1260 808.421L1260 798.691L1276.6 782.236L1260 765.781Z" fill="#00B7AB" fill-opacity="0.21"/>
<path d="M1284.94 876L1275.12 876L1306.66 844.735L1275.12 813.503L1306.66 782.236L1275.12 750.97L1284.94 750.97L1316.47 782.236L1284.94 813.501L1316.48 844.733L1284.94 876Z" fill="#00B7AB" fill-opacity="0.21"/>
<path d="M1315 876L1305.19 876L1336.72 844.735L1305.19 813.503L1336.72 782.236L1305.19 750.97L1315 750.97L1346.54 782.236L1315 813.501L1346.54 844.733L1315 876Z" fill="#00B7AB" fill-opacity="0.21"/>
<path d="M1345.07 876L1335.25 876L1366.79 844.735L1335.25 813.503L1366.79 782.236L1335.25 750.97L1345.06 750.97L1376.6 782.236L1345.07 813.501L1376.6 844.733L1345.07 876Z" fill="#00B7AB" fill-opacity="0.21"/>
<path d="M1375.13 876L1365.32 876L1396.85 844.735L1365.31 813.503L1396.85 782.236L1365.31 750.97L1375.13 750.97L1406.67 782.236L1375.13 813.501L1406.67 844.733L1375.13 876Z" fill="#00B7AB" fill-opacity="0.21"/>
<path d="M1405.19 876L1395.38 876L1426.91 844.735L1395.38 813.503L1426.92 782.236L1395.38 750.97L1405.19 750.97L1436.73 782.236L1405.19 813.501L1436.73 844.733L1405.19 876Z" fill="#00B7AB" fill-opacity="0.21"/>
<path d="M1435.26 876L1425.44 876L1456.98 844.735L1425.44 813.503L1456.98 782.236L1425.44 750.97L1435.26 750.97L1466.79 782.236L1435.26 813.501L1466.79 844.733L1435.26 876Z" fill="#00B7AB" fill-opacity="0.21"/>
<path d="M1465.32 876L1455.51 876L1470.45 861.188L1470.45 870.917L1465.32 876Z" fill="#00B7AB" fill-opacity="0.21"/>
<path d="M1470.45 808.419L1465.32 813.501L1470.45 818.578L1470.45 828.3L1455.5 813.503L1470.45 798.69L1470.45 808.419Z" fill="#00B7AB" fill-opacity="0.21"/>
<path d="M1455.51 750.97L1470.45 765.783L1470.45 756.053L1465.32 750.97L1455.51 750.97Z" fill="#00B7AB" fill-opacity="0.21"/>
</svg>
