<svg width="152" height="64" viewBox="0 0 152 64" fill="none" xmlns="http://www.w3.org/2000/svg">
<path d="M26.0468 17.541C27.0115 17.541 27.9184 17.7339 28.7673 18.1198C29.6162 18.4671 30.3494 18.9687 30.9668 19.6247C31.6228 20.2421 32.163 20.9753 32.5875 21.8242C33.012 22.6346 33.3207 23.5028 33.5136 24.4289C33.7066 25.4708 33.7837 26.532 33.7451 27.6124C33.7451 28.6929 33.7451 29.754 33.7451 30.7959C33.7451 31.8378 33.7258 32.8797 33.6873 33.9215C33.6873 34.9634 33.6487 36.0053 33.5715 37.0472C33.4943 37.9347 33.3978 38.8608 33.2821 39.8255C33.1663 40.7516 32.9541 41.6777 32.6454 42.6038C32.3753 43.5299 31.9894 44.3982 31.4877 45.2085C31.0247 45.9803 30.388 46.6363 29.5776 47.1765C28.8831 47.6395 28.1306 47.9482 27.3203 48.1026C26.5485 48.2184 25.7767 48.1991 25.005 48.0447C24.2718 47.8518 23.5772 47.5238 22.9212 47.0607C22.3038 46.5591 21.8215 45.9224 21.4742 45.1506C20.8954 46.0381 20.1429 46.752 19.2168 47.2923C18.2907 47.7939 17.326 48.0833 16.3227 48.1605C15.3194 48.1991 14.3547 48.0061 13.4286 47.5817C12.5411 47.1186 11.8272 46.3854 11.287 45.3822C10.8625 46.3854 10.2837 47.2923 9.55051 48.1026C8.85593 48.8744 7.94911 49.3567 6.83006 49.5496C5.82678 49.7426 4.88137 49.6461 3.99385 49.2602C3.10633 48.9129 2.37316 48.3341 1.79434 47.5238C1.25411 46.7134 0.848934 45.8066 0.578819 44.8033C0.347291 43.8 0.19294 42.7775 0.115764 41.7356C0.0385879 40.6551 0.019294 39.594 0.0578819 38.5521C0.0964698 37.5102 0.135058 36.5262 0.173646 35.6001C0.212234 34.3267 0.250822 33.0533 0.289409 31.7799C0.327997 30.4679 0.385879 29.1559 0.463055 27.8439C0.501643 26.6863 0.540231 25.5287 0.578819 24.371C0.655995 23.2134 1.02258 22.0943 1.67857 21.0139C2.29598 20.0106 3.08703 19.2388 4.05173 18.6986C5.01643 18.1584 6.01972 17.869 7.06159 17.8304C8.10346 17.7918 9.10675 18.0426 10.0714 18.5828C11.0747 19.0845 11.8658 19.8755 12.4446 20.956C13.5251 20.2228 14.6827 19.8369 15.9175 19.7984C17.1523 19.7598 18.3293 20.1071 19.4483 20.8402C20.2587 19.8755 21.2234 19.0845 22.3424 18.4671C23.5 17.8497 24.7349 17.541 26.0468 17.541ZM31.4299 33.227C31.4299 32.1851 31.4492 30.9117 31.4877 29.4068C31.5649 27.8632 31.4685 26.3969 31.1983 25.0077C30.9282 23.58 30.4073 22.3645 29.6355 21.3612C28.8638 20.3579 27.6675 19.8562 26.0468 19.8562C25.3523 19.8562 24.677 19.9913 24.021 20.2614C23.4036 20.4929 22.8248 20.8209 22.2845 21.2454C21.7829 21.6699 21.3005 22.1522 20.8375 22.6925C20.413 23.2327 20.0464 23.7922 19.7377 24.371C19.2361 23.5993 18.5801 23.0012 17.7697 22.5767C16.998 22.1136 16.149 21.9979 15.2229 22.2294C14.3354 22.4223 13.5444 22.8661 12.8498 23.5607C12.1552 24.2167 11.5957 24.9306 11.1712 25.7023C11.1712 25.2007 11.1326 24.699 11.0554 24.1974C10.9783 23.6572 10.8432 23.1555 10.6503 22.6925C10.4573 22.1908 10.2065 21.747 9.8978 21.3612C9.5891 20.9367 9.18393 20.6087 8.68228 20.3772C7.91052 19.9913 7.10018 19.9334 6.25124 20.2035C5.40231 20.4351 4.70773 20.8788 4.1675 21.5348C3.70444 22.0365 3.37644 22.596 3.1835 23.2134C2.99056 23.8308 2.85551 24.4868 2.77833 25.1814C2.73974 25.8374 2.72045 26.5127 2.72045 27.2072C2.75904 27.8632 2.75904 28.4999 2.72045 29.1173C2.64327 30.4679 2.58539 31.8378 2.5468 33.227C2.50821 34.6161 2.46963 35.986 2.43104 37.3366C2.43104 38.4556 2.45033 39.5747 2.48892 40.6937C2.52751 41.8128 2.66257 42.9318 2.89409 44.0509C3.04845 44.6683 3.26068 45.2857 3.5308 45.9031C3.80091 46.5205 4.26397 46.9643 4.91996 47.2344C5.84607 47.5817 6.61783 47.5431 7.23524 47.1186C7.85264 46.6941 8.35429 46.096 8.74016 45.3243C9.12604 44.5525 9.39616 43.7229 9.55051 42.8353C9.74345 41.9478 9.87851 41.1954 9.95568 40.578C10.1486 39.1116 10.2065 37.6646 10.1293 36.2368C10.0907 34.7705 10.2258 33.3041 10.5345 31.8378C10.5731 31.722 10.6889 31.394 10.8818 30.8538C11.0747 30.3136 11.3063 29.8119 11.5764 29.3489C11.8465 28.8472 12.1166 28.4999 12.3867 28.307C12.6954 28.1141 12.9655 28.307 13.1971 28.8858C13.5829 29.8119 13.6794 30.8538 13.4865 32.0114C13.3321 33.1691 13.1971 34.2302 13.0813 35.1949C12.927 36.2754 12.7919 37.3559 12.6761 38.4363C12.599 39.5168 12.599 40.6165 12.6761 41.7356C12.7533 42.5074 12.927 43.2984 13.1971 44.1087C13.5058 44.8805 14.0846 45.4014 14.9335 45.6716C15.821 45.9803 16.6893 45.9417 17.5382 45.5558C18.4257 45.1313 19.101 44.5332 19.5641 43.7615C20.1815 42.7582 20.5674 41.6584 20.7217 40.4622C20.8761 39.2274 20.9725 38.0504 21.0111 36.9314C21.0883 36.0825 21.1269 35.2528 21.1269 34.4425C21.1269 33.6321 21.1269 32.8218 21.1269 32.0114C21.1269 31.3169 21.1076 30.6223 21.069 29.9277C21.069 29.1945 21.2234 28.4999 21.5321 27.8439C21.725 27.4581 21.9565 27.1879 22.2266 27.0336C22.5353 26.8792 22.8441 27.0143 23.1528 27.4388C23.4615 27.9404 23.6544 28.5192 23.7316 29.1752C23.8087 29.8312 23.828 30.4486 23.7895 31.0274C23.7895 32.0307 23.7123 33.034 23.5579 34.0373C23.4036 35.0406 23.2685 36.0439 23.1528 37.0472C23.0756 37.7417 22.9984 38.6293 22.9212 39.7097C22.8826 40.7516 22.9405 41.7549 23.0949 42.7196C23.2878 43.6843 23.6544 44.4753 24.1946 45.0927C24.7734 45.7101 25.6417 45.9417 26.7993 45.7873C28.0341 45.633 28.9602 45.0542 29.5776 44.0509C30.2336 43.0476 30.6774 41.8899 30.9089 40.578C31.179 39.2274 31.3334 37.8768 31.372 36.5262C31.4106 35.1756 31.4299 34.0759 31.4299 33.227ZM50.6435 20.4929C52.1484 21.3805 53.3832 22.5188 54.3479 23.908C55.3126 25.2971 56.0265 26.8021 56.4896 28.4228C56.9912 30.0435 57.242 31.722 57.242 33.4585C57.242 35.1564 57.0298 36.7963 56.6053 38.3784C56.1037 40.0763 55.3512 41.6391 54.3479 43.0669C53.3446 44.456 52.1484 45.6137 50.7592 46.5398C49.4087 47.4273 47.9037 48.0447 46.2445 48.392C44.5852 48.7393 42.868 48.7007 41.093 48.2762C38.7005 47.736 36.7518 46.6363 35.2469 44.977C33.7806 43.2791 32.7387 41.3497 32.1213 39.1888C31.5425 36.9893 31.3688 34.6933 31.6003 32.3008C31.8705 29.9084 32.5265 27.7282 33.5683 25.7602C34.6102 23.7536 36.0187 22.1136 37.7937 20.8402C39.6073 19.5282 41.7683 18.8722 44.2765 18.8722C45.3955 18.8722 46.4953 19.0073 47.5757 19.2774C48.6562 19.5475 49.6788 19.9527 50.6435 20.4929ZM43.9871 46.2504C46.3795 46.2504 48.3861 45.633 50.0068 44.3982C51.6275 43.1633 52.843 41.6198 53.6533 39.7676C54.5023 37.9154 54.946 35.9088 54.9846 33.7479C55.0232 31.5484 54.6566 29.5225 53.8849 27.6703C53.1131 25.8181 51.9169 24.2746 50.2962 23.0397C48.7141 21.8049 46.7075 21.1875 44.2765 21.1875C42.077 21.1875 40.2054 21.8049 38.6619 23.0397C37.157 24.2746 35.9994 25.8181 35.189 27.6703C34.3787 29.5225 33.9349 31.5484 33.8577 33.7479C33.8191 35.9088 34.1471 37.9154 34.8417 39.7676C35.5363 41.6198 36.6361 43.1633 38.141 44.3982C39.6845 45.633 41.6332 46.2504 43.9871 46.2504ZM44.1028 25.876C44.836 25.876 45.2991 26.204 45.492 26.8599C45.6849 27.4774 45.6849 28.1912 45.492 29.0016C45.3376 29.7733 45.0096 30.4872 44.508 31.1432C44.0064 31.7606 43.4468 32.0693 42.8294 32.0693C42.0577 32.0693 41.5753 31.7606 41.3824 31.1432C41.1894 30.4872 41.1894 29.7733 41.3824 29.0016C41.5753 28.1912 41.9226 27.4774 42.4243 26.8599C42.9259 26.204 43.4854 25.876 44.1028 25.876ZM68.3698 21.1296C70.0291 21.3998 71.5726 21.94 73.0004 22.7503C74.4667 23.5221 75.7015 24.5061 76.7048 25.7023C77.7081 26.8599 78.4027 28.2105 78.7885 29.754C79.213 31.2976 79.1937 32.9568 78.7307 34.7319C78.3062 36.3526 77.5923 37.8189 76.589 39.1309C75.5857 40.4429 74.4088 41.5427 73.0582 42.4302C71.5919 43.4335 70.0677 44.1859 68.4856 44.6876C68.254 44.7647 68.0611 44.8226 67.9068 44.8612C67.791 44.8998 67.6945 45.0349 67.6173 45.2664C67.5788 45.4593 67.5402 45.633 67.5016 45.7873C67.463 45.9031 67.4051 46.0574 67.3279 46.2504C67.0964 46.9064 66.7105 47.5431 66.1703 48.1605C65.6301 48.7007 64.9934 49.1252 64.2602 49.4339C63.527 49.7812 62.7746 49.9934 62.0028 50.0706C61.231 50.1478 60.4593 50.0706 59.6875 49.8391C58.9544 49.6461 58.2984 49.2795 57.7195 48.7393C57.1793 48.1991 56.7355 47.601 56.3883 46.945C56.0796 46.2504 55.8287 45.5365 55.6358 44.8033C55.4429 44.0316 55.3078 43.2598 55.2306 42.4881C55.1534 41.6777 55.0956 40.9252 55.057 40.2307C54.9798 38.3784 54.9991 36.5262 55.1149 34.674C55.2306 32.8218 55.3657 30.9696 55.52 29.1173C55.6744 27.4966 55.7516 25.9145 55.7516 24.371C55.7516 22.7889 55.7901 21.1875 55.8673 19.5668C55.9059 18.2163 56.0024 16.6727 56.1567 14.9363C56.3111 13.1998 56.6584 11.5598 57.1986 10.0163C57.7388 8.4728 58.5299 7.18011 59.5718 6.13823C60.6522 5.05777 62.1186 4.51754 63.9708 4.51754C65.3985 4.51754 66.5369 4.80695 67.3858 5.38577C68.2348 5.96459 68.8522 6.73635 69.238 7.70104C69.6625 8.62715 69.894 9.70762 69.9326 10.9424C69.9712 12.1387 69.9133 13.3542 69.759 14.589C69.6046 15.7852 69.3924 16.9621 69.1223 18.1198C68.8522 19.2774 68.6013 20.2807 68.3698 21.1296ZM74.6789 37.8575C75.7208 36.5069 76.3768 34.9827 76.6469 33.2848C76.9556 31.5484 76.6855 29.8891 75.8366 28.307C75.3349 27.3809 74.6982 26.6091 73.9265 25.9917C73.1547 25.3357 72.3058 24.8148 71.3797 24.4289C70.4536 24.0044 69.4696 23.6957 68.4277 23.5028C67.4244 23.3099 66.4211 23.2134 65.4178 23.2134C65.5722 22.6346 65.8037 21.8242 66.1124 20.7823C66.4211 19.7405 66.7105 18.6214 66.9806 17.4252C67.2893 16.1904 67.5209 14.9556 67.6752 13.7208C67.8682 12.4474 67.8875 11.309 67.7331 10.3057C67.5788 9.26386 67.2122 8.43421 66.6334 7.81681C66.0545 7.16081 65.167 6.83282 63.9708 6.83282C63.199 6.83282 62.5237 7.00646 61.9449 7.35375C61.3661 7.70105 60.8838 8.14481 60.4979 8.68504C60.112 9.22527 59.784 9.84267 59.5139 10.5373C59.2824 11.1933 59.0894 11.8492 58.9351 12.5052C58.5106 14.3189 58.2791 16.1518 58.2405 18.004C58.2019 19.8177 58.1633 21.6506 58.1247 23.5028C58.0861 25.4708 57.9897 27.4002 57.8353 29.291C57.681 31.1818 57.5459 33.1112 57.4301 35.0792C57.3915 35.9281 57.353 36.8349 57.3144 37.7996C57.2758 38.7643 57.2758 39.729 57.3144 40.6937C57.353 41.6584 57.4687 42.6038 57.6617 43.5299C57.8546 44.456 58.1633 45.305 58.5878 46.0767C59.0508 46.9257 59.6682 47.4466 60.44 47.6395C61.2503 47.8325 62.0993 47.7746 62.9868 47.4659C63.7586 47.1958 64.3567 46.752 64.7811 46.1346C65.2056 45.4786 65.4371 44.7455 65.4757 43.9351C65.4757 43.5492 65.4564 43.337 65.4178 43.2984C65.4178 43.2212 65.6301 43.1248 66.0545 43.009C67.3665 42.7003 68.5435 42.2951 69.5853 41.7935C70.5886 41.3304 71.5147 40.7709 72.3637 40.1149C73.2512 39.4589 74.0229 38.7064 74.6789 37.8575ZM66.6912 27.7282C67.3086 27.8439 67.791 28.2298 68.1383 28.8858C68.5242 29.5418 68.7171 30.2557 68.7171 31.0274C68.7557 31.7992 68.6013 32.4938 68.254 33.1112C67.9068 33.7286 67.3665 34.0373 66.6334 34.0373C65.9388 34.0373 65.3985 33.69 65.0127 32.9954C64.6654 32.3008 64.4917 31.5484 64.4917 30.738C64.4917 29.9277 64.6654 29.1945 65.0127 28.5385C65.3599 27.8825 65.9195 27.6124 66.6912 27.7282ZM91.116 14.1838C91.2704 15.1871 91.2125 16.1904 90.9424 17.1937C90.6723 18.1584 90.2285 19.0459 89.6111 19.8562C89.3796 20.1649 89.2252 20.3579 89.148 20.4351C89.1095 20.4736 89.1866 20.6666 89.3796 21.0139C89.4567 21.2068 89.5339 21.4191 89.6111 21.6506C89.7269 21.8435 89.8233 22.0558 89.9005 22.2873C90.0549 22.7503 90.1513 23.2134 90.1899 23.6764C90.2671 24.1395 90.325 24.6026 90.3636 25.0656C90.5179 26.8021 90.4793 28.5385 90.2478 30.275C90.0163 31.9728 89.9005 33.69 89.9005 35.4265C89.9391 37.1629 89.9584 38.9187 89.9584 40.6937C89.997 42.4688 89.7076 44.1859 89.0902 45.8452C88.5499 47.3887 87.6431 48.5464 86.3697 49.3181C85.0963 50.1285 83.63 50.4565 81.9707 50.3021C80.2728 50.1092 79.0187 49.376 78.2084 48.1026C77.4366 46.8292 76.9928 45.4014 76.8771 43.8193C76.7227 42.1601 76.7227 40.5201 76.8771 38.8994C77.07 37.2787 77.2051 35.6387 77.2823 33.9794C77.3594 32.1658 77.3401 30.3522 77.2244 28.5385C77.1472 26.6863 77.3016 24.8727 77.6874 23.0976C77.7646 22.6346 77.8804 22.1908 78.0347 21.7663C78.1891 21.3033 78.382 20.8595 78.6135 20.4351C78.382 20.1264 78.1505 19.8177 77.919 19.5089C77.726 19.1617 77.5524 18.8144 77.398 18.4671C77.0893 17.6953 76.8964 16.9043 76.8192 16.0939C76.7806 15.2836 76.8578 14.4925 77.0507 13.7208C77.3594 12.1387 78.0926 10.8074 79.2502 9.72691C80.4465 8.60786 81.8549 8.00975 83.4756 7.93257C84.4403 7.89398 85.3471 8.02904 86.1961 8.33774C87.0836 8.60786 87.8553 9.01303 88.5113 9.55326C89.2059 10.0935 89.7847 10.7688 90.2478 11.5791C90.7109 12.3509 91.0003 13.2191 91.116 14.1838ZM84.9805 20.0878C86.254 19.8177 87.2379 19.1617 87.9325 18.1198C88.6657 17.0393 88.9744 15.8431 88.8586 14.5311C88.6657 13.1805 88.0676 12.1194 87.0643 11.3476C86.061 10.5758 84.8841 10.2093 83.5335 10.2478C82.2601 10.2864 81.2375 10.7881 80.4658 11.7528C79.7326 12.6789 79.3081 13.7401 79.1924 14.9363C79.0766 16.0939 79.2888 17.1937 79.8291 18.2355C80.4079 19.2774 81.3533 19.9334 82.6653 20.2035C81.7392 20.4351 81.0446 20.9174 80.5815 21.6506C80.1571 22.3837 79.8676 23.2134 79.7133 24.1395C79.5975 25.0656 79.5397 26.0303 79.5397 27.0336C79.5782 27.9983 79.5975 28.8279 79.5975 29.5225C79.6361 31.1046 79.5975 32.6674 79.4818 34.2109C79.4046 35.7159 79.3274 37.2594 79.2502 38.8415C79.1731 39.9605 79.1152 41.1182 79.0766 42.3144C79.038 43.472 79.1731 44.5911 79.4818 45.6716C79.7519 46.5205 80.1956 47.1186 80.8131 47.4659C81.469 47.8132 82.2408 47.9868 83.1283 47.9868C84.2088 47.9097 85.077 47.5624 85.733 46.945C86.389 46.289 86.8714 45.44 87.1801 44.3982C87.4888 43.2791 87.6431 42.1408 87.6431 40.9831C87.6817 39.7869 87.701 38.61 87.701 37.4523C87.6238 36.3719 87.6045 35.33 87.6431 34.3267C87.7203 33.2848 87.7975 32.243 87.8746 31.2011C87.9518 30.3907 88.0483 29.4068 88.1641 28.2491C88.2798 27.0915 88.2798 25.9531 88.1641 24.8341C88.0483 23.715 87.7589 22.7117 87.2958 21.8242C86.8328 20.9367 86.061 20.3579 84.9805 20.0878ZM106.8 17.5988C107.996 17.5988 108.98 17.8883 109.752 18.4671C110.562 19.0459 111.199 19.7984 111.662 20.7245C112.125 21.6506 112.472 22.6925 112.704 23.8501C112.935 25.0077 113.07 26.1847 113.109 27.3809C113.186 28.5771 113.205 29.7347 113.167 30.8538C113.128 31.9343 113.09 32.8797 113.051 33.69C113.012 34.5004 112.993 35.4651 112.993 36.5841C112.993 37.7032 112.935 38.8608 112.819 40.057C112.704 41.2147 112.511 42.3723 112.241 43.5299C111.971 44.649 111.565 45.6523 111.025 46.5398C110.523 47.4273 109.848 48.1412 108.999 48.6814C108.189 49.2602 107.166 49.5496 105.932 49.5496C105.005 49.5496 104.118 49.3374 103.269 48.9129C103.076 48.8358 102.902 48.7393 102.748 48.6235C102.632 48.5078 102.478 48.392 102.285 48.2762C102.092 48.0833 101.938 48.0447 101.822 48.1605C101.706 48.2377 101.533 48.3341 101.301 48.4499C100.606 48.8358 99.8732 49.1252 99.1015 49.3181C98.3297 49.5111 97.558 49.5689 96.7862 49.4918C95.3199 49.4146 94.0079 48.9515 92.8502 48.1026C91.7312 47.2537 90.863 46.1732 90.2455 44.8612C89.551 43.3563 89.1458 41.7935 89.03 40.1728C88.9143 38.5135 88.895 36.8735 88.9721 35.2528C89.0107 33.7865 89.0879 32.3201 89.2037 30.8538C89.358 29.3489 89.5895 27.8825 89.8983 26.4548C90.0526 25.7602 90.2455 25.0463 90.4771 24.3131C90.7472 23.58 91.0559 22.8854 91.4032 22.2294C91.7891 21.5734 92.2521 20.9946 92.7923 20.4929C93.3326 19.9913 93.9886 19.6247 94.7603 19.3932C96.1109 19.0073 97.4422 19.1231 98.7542 19.7405C100.066 20.3579 101.031 21.284 101.648 22.5188C101.996 21.2454 102.574 20.1071 103.385 19.1038C104.234 18.1005 105.372 17.5988 106.8 17.5988ZM110.736 34.5004C110.813 32.7639 110.851 31.0081 110.851 29.2331C110.851 27.4581 110.659 25.7023 110.273 23.9659C110.157 23.5028 110.022 23.0397 109.868 22.5767C109.713 22.1136 109.501 21.6892 109.231 21.3033C108.961 20.8788 108.613 20.5508 108.189 20.3193C107.803 20.0492 107.34 19.9141 106.8 19.9141C106.298 19.9141 105.874 20.0492 105.526 20.3193C105.179 20.5508 104.89 20.8595 104.658 21.2454C104.427 21.5927 104.234 21.9979 104.079 22.4609C103.925 22.924 103.809 23.3484 103.732 23.7343C103.423 25.0849 103.25 26.4355 103.211 27.7861C103.211 29.1366 103.23 30.4872 103.269 31.8378C103.269 32.4552 103.308 33.1305 103.385 33.8637C103.462 34.5582 103.5 35.2528 103.5 35.9474C103.5 36.642 103.443 37.3366 103.327 38.0312C103.25 38.6871 103.057 39.3046 102.748 39.8834C102.517 40.3464 102.169 40.7902 101.706 41.2147C101.243 41.6005 100.722 41.697 100.143 41.5041C99.6417 41.3111 99.2944 40.9638 99.1015 40.4622C98.9471 39.922 98.8507 39.4203 98.8121 38.9573C98.7349 37.8382 98.8314 36.7192 99.1015 35.6001C99.3716 34.4425 99.6031 33.3041 99.7961 32.1851C99.989 31.066 100.143 29.9663 100.259 28.8858C100.375 27.7668 100.336 26.6477 100.143 25.5287C100.028 24.6411 99.7382 23.8308 99.2751 23.0976C98.8121 22.3259 98.1175 21.8242 97.1914 21.5927C96.1495 21.3226 95.2813 21.4769 94.5867 22.0558C93.9307 22.6346 93.4098 23.3677 93.0239 24.2553C92.4451 25.5287 92.0592 26.8792 91.8662 28.307C91.6733 29.7347 91.5189 31.1239 91.4032 32.4745C91.326 34.0952 91.2488 35.7545 91.1717 37.4523C91.1331 39.1502 91.326 40.7902 91.7505 42.3723C92.0592 43.337 92.4836 44.2438 93.0239 45.0927C93.6027 45.9417 94.3745 46.5398 95.3392 46.8871C96.6126 47.3501 97.886 47.3501 99.1594 46.8871C100.433 46.3854 101.513 45.6909 102.401 44.8033C102.748 45.4979 103.192 46.0574 103.732 46.4819C104.272 46.8678 104.851 47.0993 105.468 47.1765C106.086 47.2151 106.703 47.1186 107.321 46.8871C107.938 46.617 108.459 46.1539 108.884 45.4979C109.385 44.7647 109.752 43.9351 109.983 43.009C110.253 42.0829 110.427 41.1375 110.504 40.1728C110.62 39.2081 110.678 38.2434 110.678 37.2787C110.678 36.314 110.697 35.3879 110.736 34.5004ZM132.204 22.1715C132.706 23.059 133.053 24.043 133.246 25.1235C133.439 26.1654 133.459 27.2072 133.304 28.2491C133.15 29.291 132.822 30.275 132.32 31.2011C131.857 32.1272 131.182 32.8797 130.294 33.4585C131.105 34.1531 131.722 34.9827 132.147 35.9474C132.571 36.8735 132.822 37.8382 132.899 38.8415C133.015 39.8448 132.976 40.8674 132.783 41.9092C132.59 42.9511 132.262 43.9158 131.799 44.8033C130.989 46.4626 129.812 47.7553 128.269 48.6814C126.725 49.6461 125.046 50.2249 123.233 50.4179C122.114 50.5336 120.975 50.4951 119.818 50.3021C118.699 50.1092 117.618 49.7619 116.576 49.2602C115.573 48.7972 114.647 48.1798 113.798 47.408C112.988 46.5977 112.332 45.6716 111.83 44.6297C111.406 43.8193 111.116 42.9125 110.962 41.9092C110.846 40.906 110.865 39.9413 111.02 39.0151C111.174 38.0504 111.502 37.1629 112.004 36.3526C112.505 35.5422 113.219 34.9055 114.145 34.4425C113.374 33.7093 112.775 32.8797 112.351 31.9536C111.927 30.9889 111.637 30.0049 111.483 29.0016C111.367 27.9983 111.386 26.9757 111.541 25.9338C111.695 24.892 111.965 23.8887 112.351 22.924C113.161 20.956 114.454 19.4318 116.229 18.3513C118.043 17.2323 119.991 16.6727 122.075 16.6727C124.082 16.6727 126.011 17.1551 127.863 18.1198C129.754 19.0459 131.201 20.3965 132.204 22.1715ZM130.468 29.754C131.124 28.3263 131.317 26.9564 131.047 25.6444C130.777 24.3324 130.198 23.1941 129.31 22.2294C128.461 21.2261 127.4 20.4351 126.127 19.8562C124.853 19.2774 123.522 18.988 122.133 18.988C120.126 18.988 118.371 19.5668 116.866 20.7245C115.399 21.8435 114.454 23.387 114.03 25.355C113.721 26.8599 113.721 28.3263 114.03 29.754C114.377 31.1818 115.168 32.3973 116.403 33.4006C116.943 33.8637 117.56 34.2688 118.255 34.6161C118.95 34.9634 119.644 35.33 120.339 35.7159C121.033 36.1018 121.67 36.5262 122.249 36.9893C122.828 37.4523 123.271 38.0312 123.58 38.7257C123.734 39.073 123.792 39.5361 123.754 40.1149C123.754 40.6551 123.657 41.1568 123.464 41.6198C123.271 42.0829 122.982 42.4302 122.596 42.6617C122.249 42.8546 121.805 42.7775 121.265 42.4302C120.879 42.1601 120.725 41.8514 120.802 41.5041C120.879 41.1568 120.975 40.8288 121.091 40.5201C121.284 39.9027 121.265 39.3046 121.033 38.7257C120.802 38.1083 120.416 37.6067 119.876 37.2208C119.374 36.8349 118.814 36.5455 118.197 36.3526C116.808 35.9281 115.65 36.121 114.724 36.9314C113.798 37.7032 113.296 38.7643 113.219 40.1149C113.142 41.4655 113.412 42.7196 114.03 43.8772C114.686 45.0349 115.573 45.961 116.692 46.6556C117.695 47.3115 118.814 47.7553 120.049 47.9868C121.284 48.2184 122.5 48.2377 123.696 48.0447C124.931 47.8518 126.05 47.4273 127.053 46.7713C128.095 46.1153 128.925 45.2278 129.542 44.1087C130.121 43.0669 130.468 41.8706 130.584 40.5201C130.738 39.1695 130.545 37.9347 130.005 36.8156C129.581 35.9667 128.982 35.2914 128.211 34.7898C127.477 34.2881 126.706 33.8251 125.895 33.4006C125.124 33.0147 124.333 32.6288 123.522 32.243C122.712 31.8571 122.017 31.3169 121.438 30.6223C121.168 30.3136 120.937 29.8891 120.744 29.3489C120.551 28.7701 120.454 28.2105 120.454 27.6703C120.454 27.1301 120.57 26.667 120.802 26.2811C121.072 25.8567 121.535 25.6444 122.191 25.6444C122.886 25.6444 123.349 25.9724 123.58 26.6284C123.85 27.2458 123.947 27.8246 123.869 28.3649C123.792 29.0209 123.869 29.6383 124.101 30.2171C124.333 30.7573 124.718 31.2011 125.259 31.5484C125.76 31.8957 126.262 32.0886 126.764 32.1272C127.304 32.1658 127.805 32.1079 128.269 31.9536C128.732 31.7606 129.156 31.4712 129.542 31.0853C129.928 30.6994 130.237 30.2557 130.468 29.754Z" fill="white"/>
<line x1="1.33641" y1="-1.33641" x2="9.48192" y2="-1.33641" transform="matrix(0.424576 -0.905018 0.904056 0.428213 127.429 11.1987)" stroke="white" stroke-width="2.67281" stroke-linecap="round"/>
<line x1="1.33641" y1="-1.33641" x2="9.46389" y2="-1.33641" transform="matrix(0.75803 -0.651351 0.648487 0.761971 133.214 16.5762)" stroke="white" stroke-width="2.67281" stroke-linecap="round"/>
<line x1="1.33641" y1="-1.33641" x2="9.44533" y2="-1.33641" transform="matrix(0.951748 -0.30547 0.303083 0.953414 137.11 24.3251)" stroke="white" stroke-width="2.67281" stroke-linecap="round"/>
<line x1="1.33641" y1="-1.33641" x2="9.43699" y2="-1.33641" transform="matrix(0.999362 0.0328282 -0.0325216 0.999569 137.715 32.8488)" stroke="white" stroke-width="2.67281" stroke-linecap="round"/>
</svg>
