<svg width="1440" height="710" viewBox="0 0 1440 710" fill="none" xmlns="http://www.w3.org/2000/svg">
<path d="M-3.6763e-06 625.896L113.962 532.456L-1.18406e-05 439.119L-1.42537e-05 383.914L181.356 532.448L-1.26127e-06 681.146L-3.6763e-06 625.896Z" fill="#873694" fill-opacity="0.21"/>
<path d="M-2.73587e-05 84.1057L-2.97737e-05 28.8567L181.351 177.548L-1.67747e-05 326.24L-1.91897e-05 270.991L113.967 177.548L-2.73587e-05 84.1057Z" fill="#873694" fill-opacity="0.21"/>
<path d="M171.235 710L103.851 710L320.39 532.456L103.843 355.101L320.394 177.548L103.848 5.64958e-05L171.233 0.000175621L387.778 177.548L171.237 355.093L387.783 532.448L171.235 710Z" fill="#873694" fill-opacity="0.21"/>
<path d="M377.663 710L310.279 710L526.817 532.456L310.271 355.101L526.822 177.548L310.275 4.74726e-05L377.66 0.000166597L594.206 177.548L377.665 355.093L594.211 532.448L377.663 710Z" fill="#873694" fill-opacity="0.21"/>
<path d="M584.089 710L516.706 710L733.244 532.456L516.698 355.101L733.248 177.548L516.702 3.84494e-05L584.087 0.000157574L800.633 177.548L584.091 355.093L800.637 532.448L584.089 710Z" fill="#873694" fill-opacity="0.21"/>
<path d="M790.517 710L723.133 710L939.671 532.456L723.125 355.101L939.676 177.548L723.13 2.94262e-05L790.514 0.000148551L1007.06 177.548L790.519 355.093L1007.06 532.448L790.517 710Z" fill="#873694" fill-opacity="0.21"/>
<path d="M996.944 710L929.56 710L1146.1 532.456L929.552 355.101L1146.1 177.548L929.556 2.0403e-05L996.941 0.000139528L1213.49 177.548L996.945 355.093L1213.49 532.448L996.944 710Z" fill="#873694" fill-opacity="0.21"/>
<path d="M1203.37 710L1135.99 710L1352.52 532.456L1135.98 355.101L1352.53 177.548L1135.98 1.13797e-05L1203.37 0.000130505L1419.91 177.548L1203.37 355.093L1419.92 532.448L1203.37 710Z" fill="#873694" fill-opacity="0.21"/>
<path d="M1409.8 710L1342.41 710L1445 625.888L1445 681.137L1409.8 710Z" fill="#873694" fill-opacity="0.21"/>
<path d="M1445 326.232L1409.8 355.093L1445 383.922L1445 439.127L1342.41 355.1L1445 270.983L1445 326.232Z" fill="#873694" fill-opacity="0.21"/>
<path d="M1342.41 2.35651e-06L1445 84.1139L1445 28.8649L1409.8 0.000121481L1342.41 2.35651e-06Z" fill="#873694" fill-opacity="0.21"/>
</svg>
